<?xml version="1.0" encoding="utf-8"?>
<!-- Generator: Adobe Illustrator 14.0.0, SVG Export Plug-In . SVG Version: 6.00 Build 43363)  -->
<!DOCTYPE svg PUBLIC "-//W3C//DTD SVG 1.1//EN" "http://www.w3.org/Graphics/SVG/1.1/DTD/svg11.dtd">
<svg version="1.1" id="Capa_1" xmlns="http://www.w3.org/2000/svg" xmlns:xlink="http://www.w3.org/1999/xlink" x="0px" y="0px"
	 width="26px" height="26px" viewBox="0 0 26 26" enable-background="new 0 0 26 26" xml:space="preserve">
<g>
	<g>
		<path fill="#0A72B3" d="M19.676,1.491H0.25v19.798h19.426V1.491L19.676,1.491z M18.998,20.652H0.928V2.127h18.07V20.652
			L18.998,20.652z"/>
		<polygon fill="#0A72B3" points="22.738,3.104 20.379,3.104 20.379,3.74 22.06,3.74 22.06,22.266 3.992,22.266 3.992,21.892 
			3.313,21.892 3.313,22.901 22.738,22.901 		"/>
		<polygon fill="#0A72B3" points="23.389,4.711 23.389,5.347 25.072,5.347 25.072,23.873 7.001,23.873 7.001,23.501 6.324,23.501 
			6.324,24.509 25.75,24.509 25.75,4.711 		"/>
	</g>
	<g>
		<path fill="#0A72B3" d="M7.181,12.724c-0.063,0.309-0.21,0.579-0.444,0.812c-0.169,0.169-0.375,0.295-0.615,0.382
			c-0.24,0.084-0.502,0.126-0.785,0.126H3.421V8.736h1.916c0.283,0,0.545,0.042,0.785,0.128c0.241,0.083,0.446,0.211,0.615,0.379
			C6.86,9.363,6.959,9.492,7.031,9.63c0.072,0.14,0.125,0.293,0.161,0.46c0.036,0.166,0.058,0.345,0.067,0.536
			c0.01,0.192,0.015,0.439,0.015,0.742C7.273,11.964,7.242,12.416,7.181,12.724z M6.198,10.447C6.17,10.255,6.11,10.103,6.013,9.989
			C5.836,9.77,5.577,9.661,5.239,9.661H4.456v3.457h0.783c0.339,0,0.597-0.108,0.775-0.327c0.095-0.115,0.155-0.272,0.183-0.473
			c0.026-0.203,0.042-0.519,0.042-0.951C6.239,10.945,6.224,10.638,6.198,10.447z"/>
		<path fill="#0A72B3" d="M11.615,12.705c-0.058,0.295-0.205,0.563-0.443,0.801c-0.193,0.192-0.408,0.339-0.641,0.436
			c-0.234,0.099-0.497,0.145-0.79,0.145s-0.558-0.048-0.794-0.145c-0.237-0.099-0.451-0.243-0.645-0.436
			c-0.228-0.234-0.374-0.5-0.432-0.798C7.81,12.41,7.782,11.97,7.782,11.387c0-0.581,0.028-1.021,0.089-1.323
			c0.06-0.3,0.204-0.564,0.432-0.794c0.193-0.193,0.408-0.339,0.645-0.435c0.235-0.098,0.5-0.146,0.794-0.146
			c0.293,0,0.555,0.048,0.79,0.146c0.234,0.096,0.448,0.243,0.641,0.435c0.238,0.233,0.385,0.499,0.443,0.794
			c0.057,0.296,0.086,0.736,0.086,1.323C11.701,11.971,11.673,12.41,11.615,12.705z M10.654,10.749
			c-0.008-0.164-0.021-0.297-0.041-0.398c-0.021-0.102-0.046-0.188-0.079-0.257c-0.033-0.071-0.076-0.135-0.13-0.194
			c-0.163-0.188-0.385-0.283-0.663-0.283c-0.139,0-0.267,0.025-0.384,0.075C9.24,9.74,9.145,9.811,9.071,9.899
			c-0.05,0.055-0.091,0.117-0.123,0.185c-0.033,0.071-0.059,0.157-0.079,0.262c-0.02,0.104-0.035,0.237-0.041,0.398
			c-0.007,0.162-0.011,0.376-0.011,0.645s0.004,0.482,0.011,0.642c0.007,0.159,0.022,0.291,0.041,0.398
			c0.02,0.107,0.044,0.193,0.075,0.262c0.03,0.066,0.073,0.128,0.126,0.19c0.075,0.09,0.169,0.158,0.286,0.208
			c0.116,0.051,0.245,0.075,0.384,0.075c0.278,0,0.5-0.095,0.663-0.282c0.056-0.062,0.099-0.125,0.13-0.193
			c0.033-0.071,0.059-0.157,0.079-0.259s0.033-0.236,0.041-0.403c0.007-0.166,0.012-0.378,0.012-0.637
			C10.666,11.125,10.661,10.913,10.654,10.749z"/>
		<path fill="#0A72B3" d="M16.05,12.82c-0.077,0.249-0.207,0.47-0.391,0.665c-0.203,0.208-0.43,0.36-0.679,0.456
			s-0.521,0.147-0.817,0.147c-0.567,0-1.044-0.195-1.431-0.582c-0.228-0.234-0.372-0.5-0.431-0.798
			c-0.061-0.298-0.09-0.738-0.09-1.321c0-0.581,0.03-1.021,0.09-1.323c0.06-0.3,0.203-0.564,0.431-0.794
			c0.387-0.387,0.863-0.581,1.431-0.581c0.299,0,0.564,0.044,0.799,0.134c0.235,0.089,0.437,0.212,0.6,0.369
			c0.164,0.156,0.295,0.338,0.395,0.544s0.166,0.424,0.203,0.652h-1.044c-0.125-0.515-0.443-0.775-0.954-0.775
			c-0.28,0-0.5,0.095-0.665,0.284c-0.049,0.054-0.089,0.117-0.122,0.187c-0.033,0.069-0.06,0.155-0.077,0.261
			c-0.021,0.103-0.035,0.237-0.042,0.398c-0.008,0.161-0.012,0.376-0.012,0.644c0,0.269,0.004,0.482,0.012,0.642
			c0.007,0.16,0.021,0.293,0.042,0.403c0.019,0.108,0.042,0.198,0.073,0.265c0.031,0.067,0.073,0.13,0.128,0.19
			c0.159,0.184,0.381,0.275,0.663,0.275c0.308,0,0.554-0.099,0.739-0.298c0.157-0.178,0.237-0.416,0.237-0.709v-0.201h-0.977V11.09
			h2.005v0.776C16.166,12.255,16.126,12.571,16.05,12.82z"/>
	</g>
</g>
</svg>
