<?xml version="1.0" encoding="utf-8"?>
<!-- Generator: Adobe Illustrator 14.0.0, SVG Export Plug-In . SVG Version: 6.00 Build 43363)  -->
<!DOCTYPE svg PUBLIC "-//W3C//DTD SVG 1.1//EN" "http://www.w3.org/Graphics/SVG/1.1/DTD/svg11.dtd">
<svg version="1.1" id="Capa_1" xmlns="http://www.w3.org/2000/svg" xmlns:xlink="http://www.w3.org/1999/xlink" x="0px" y="0px"
	 width="26px" height="26px" viewBox="0 0 26 26" enable-background="new 0 0 26 26" xml:space="preserve">
<g>
	<path fill="#0A72B3" d="M19.493,15.211H7.212c0.089,1.631,0.465,2.913,1.135,3.849c0.668,0.935,1.832,1.402,3.491,1.402
		c1.721,0,3.696-0.503,5.917-1.515c0.86,0.892,1.408,2.063,1.648,3.516C17.029,24.153,14.182,25,10.862,25
		c-3.144,0-5.525-0.972-7.143-2.915c-1.616-1.939-2.42-4.825-2.42-8.653c0-1.78,0.207-3.389,0.62-4.828
		C2.337,7.166,2.943,5.935,3.744,4.91c0.797-1.023,1.777-1.818,2.934-2.38c1.157-0.564,2.476-0.847,3.96-0.847
		c1.513,0,2.846,0.23,4.003,0.691c1.158,0.459,2.14,1.111,2.938,1.957c0.803,0.846,1.403,1.845,1.804,3.002
		c0.401,1.157,0.603,2.419,0.603,3.781c0,0.742-0.047,1.447-0.138,2.113C19.759,13.896,19.64,14.559,19.493,15.211z M10.906,5.865
		c-2.314,0-3.562,1.751-3.741,5.251h7.389v-0.534c0-1.422-0.299-2.565-0.892-3.425C13.07,6.297,12.151,5.865,10.906,5.865z"/>
	<path fill="#0A72B3" d="M21.643,15.865c0.337-0.221,0.803-0.328,1.404-0.328c0.268,0,0.504,0.02,0.714,0.061
		c0.211,0.043,0.385,0.093,0.525,0.149c0.143,0.059,0.25,0.2,0.313,0.426c0.067,0.227,0.101,0.514,0.101,0.866
		c0,0.335-0.033,0.609-0.101,0.822c-0.063,0.22-0.171,0.362-0.313,0.427c-0.139,0.067-0.314,0.123-0.525,0.164
		c-0.21,0.043-0.446,0.062-0.714,0.062c-0.249,0-0.476-0.019-0.676-0.05c-0.199-0.034-0.381-0.085-0.541-0.149
		c-0.157-0.064-0.267-0.209-0.326-0.425c-0.06-0.221-0.087-0.5-0.087-0.854C21.418,16.487,21.493,16.098,21.643,15.865z
		 M22.045,13.433l-0.3-11.68C22.412,1.251,23.331,1,24.501,1l0.174,0.177l-0.623,12.257c-0.134,0.047-0.293,0.083-0.477,0.1
		c-0.184,0.019-0.368,0.023-0.551,0.023c-0.184,0-0.358-0.006-0.527-0.023C22.33,13.516,22.177,13.48,22.045,13.433z"/>
</g>
</svg>
