<?xml version="1.0" encoding="utf-8"?>
<!-- Generator: Adobe Illustrator 14.0.0, SVG Export Plug-In . SVG Version: 6.00 Build 43363)  -->
<!DOCTYPE svg PUBLIC "-//W3C//DTD SVG 1.1//EN" "http://www.w3.org/Graphics/SVG/1.1/DTD/svg11.dtd">
<svg version="1.1" id="Capa_1" xmlns="http://www.w3.org/2000/svg" xmlns:xlink="http://www.w3.org/1999/xlink" x="0px" y="0px"
	 width="26px" height="26px" viewBox="0 0 26 26" enable-background="new 0 0 26 26" xml:space="preserve">
<g>
	<path fill="#0A72B3" d="M20.287,14.318c-0.229-0.092-0.467-0.164-0.707-0.227V5.054c0,0,0-0.003,0-0.004c0,0,0-0.001,0-0.002
		c0-0.104-0.047-0.195-0.119-0.26l-4.15-4.184C15.243,0.538,15.153,0.5,15.059,0.5H4.997c-0.507,0-0.919,0.412-0.919,0.919v19.2
		c0,0.507,0.412,0.919,0.919,0.919h7.629c0.771,2.299,2.94,3.962,5.495,3.962c3.199,0,5.801-2.604,5.801-5.798
		C23.922,17.318,22.494,15.209,20.287,14.318z M15.39,1.69l2.982,3.004H15.39V1.69z M12.436,20.832H4.998
		c-0.117,0-0.212-0.098-0.212-0.212V1.42c0-0.116,0.095-0.212,0.212-0.212h9.688v3.841c0,0.195,0.154,0.354,0.352,0.354h3.836v8.556
		c-0.246-0.033-0.498-0.055-0.752-0.055c-2.92,0-5.395,2.186-5.753,5.076c-0.03,0.238-0.045,0.479-0.045,0.724
		C12.323,20.089,12.363,20.466,12.436,20.832z M18.123,24.794c-2.809,0-5.093-2.284-5.093-5.091c0-0.215,0.014-0.428,0.039-0.637
		c0.313-2.541,2.487-4.457,5.054-4.457c0.658,0,1.297,0.123,1.898,0.367c1.938,0.778,3.191,2.633,3.191,4.727
		C23.215,22.51,20.929,24.794,18.123,24.794z"/>
	<path fill="#0A72B3" d="M7.119,7.675h9.422c0.195,0,0.354-0.158,0.354-0.354c0-0.194-0.156-0.354-0.354-0.354H7.119
		c-0.195,0-0.354,0.158-0.354,0.354C6.765,7.517,6.924,7.675,7.119,7.675z"/>
	<path fill="#0A72B3" d="M7.119,9.606h9.422c0.195,0,0.354-0.158,0.354-0.354s-0.156-0.354-0.354-0.354H7.119
		c-0.195,0-0.354,0.158-0.354,0.354S6.924,9.606,7.119,9.606z"/>
	<path fill="#0A72B3" d="M7.119,11.538h9.422c0.195,0,0.354-0.158,0.354-0.354c0-0.196-0.156-0.354-0.354-0.354H7.119
		c-0.195,0-0.354,0.158-0.354,0.354C6.765,11.38,6.924,11.538,7.119,11.538z"/>
	<path fill="#0A72B3" d="M7.119,13.47h9.422c0.195,0,0.354-0.158,0.354-0.355c0-0.193-0.156-0.352-0.354-0.352H7.119
		c-0.195,0-0.354,0.158-0.354,0.352C6.765,13.312,6.924,13.47,7.119,13.47z"/>
	<path fill="#0A72B3" d="M12.668,15.048c0-0.192-0.159-0.354-0.354-0.354H7.119c-0.195,0-0.354,0.158-0.354,0.354
		s0.157,0.354,0.354,0.354h5.195C12.51,15.4,12.668,15.242,12.668,15.048z"/>
	<path fill="#0A72B3" d="M10.971,16.627H7.118c-0.195,0-0.354,0.157-0.354,0.354c0,0.192,0.157,0.354,0.354,0.354h3.854
		c0.193,0,0.354-0.159,0.354-0.354C11.325,16.784,11.167,16.627,10.971,16.627z"/>
	<path fill="#0A72B3" d="M16.935,18.135l2.799-0.285c0.254-0.025,0.438-0.252,0.412-0.504c-0.025-0.255-0.252-0.439-0.504-0.41
		l-3.902,0.396c-0.063,0.005-0.121,0.023-0.176,0.053c-0.047,0.026-0.088,0.063-0.123,0.104c-0.004,0.006-0.012,0.007-0.016,0.013
		h-0.002c-0.037,0.047-0.064,0.103-0.084,0.159c-0.012,0.043-0.012,0.085-0.012,0.127c0,0.018-0.008,0.033-0.006,0.051l0.398,3.904
		c0.023,0.254,0.252,0.436,0.504,0.41c0.254-0.023,0.438-0.252,0.412-0.504l-0.285-2.799l4.318,3.521
		c0.197,0.159,0.488,0.131,0.646-0.065c0.162-0.195,0.131-0.486-0.066-0.646L16.935,18.135z"/>
</g>
</svg>
