<?xml version="1.0" encoding="utf-8"?>
<!-- Generator: Adobe Illustrator 14.0.0, SVG Export Plug-In . SVG Version: 6.00 Build 43363)  -->
<!DOCTYPE svg PUBLIC "-//W3C//DTD SVG 1.1//EN" "http://www.w3.org/Graphics/SVG/1.1/DTD/svg11.dtd">
<svg version="1.1" id="Capa_1" xmlns="http://www.w3.org/2000/svg" xmlns:xlink="http://www.w3.org/1999/xlink" x="0px" y="0px"
	 width="40px" height="40px" viewBox="0 0 40 40" enable-background="new 0 0 40 40" xml:space="preserve">
<path fill="#FFFFFF" d="M20,1C9.507,1,1,9.507,1,20c0,10.494,8.507,19,19,19s19-8.506,19-19C38.988,9.512,30.488,1.012,20,1z
	 M20,3.479c2.445-0.002,4.861,0.543,7.07,1.595l-4.502,4.502c-1.76-0.435-3.599-0.416-5.349,0.054l-4.468-4.47
	C15.007,4.052,17.487,3.477,20,3.479z M9.575,22.57l-4.502,4.502c-2.154-4.538-2.122-9.81,0.086-14.321l4.47,4.47
	c-0.47,1.748-0.488,3.587-0.054,5.345V22.57z M20,36.521c-2.583,0.004-5.13-0.604-7.435-1.77l4.448-4.428
	c1.885,0.55,3.885,0.568,5.782,0.059l4.453,4.456C24.993,35.949,22.514,36.523,20,36.521z M20,28.262
	c-4.563,0-8.261-3.699-8.261-8.262c0-4.562,3.698-8.261,8.261-8.261c4.563,0,8.262,3.699,8.262,8.261
	C28.262,24.563,24.563,28.262,20,28.262z M36.521,20c0.002,2.514-0.573,4.994-1.683,7.25l-4.47-4.471
	c0.513-1.896,0.492-3.896-0.059-5.781l4.439-4.433C35.92,14.87,36.525,17.417,36.521,20z"/>
</svg>
