<?xml version="1.0" encoding="utf-8"?>
<!-- Generator: Adobe Illustrator 14.0.0, SVG Export Plug-In . SVG Version: 6.00 Build 43363)  -->
<!DOCTYPE svg PUBLIC "-//W3C//DTD SVG 1.1//EN" "http://www.w3.org/Graphics/SVG/1.1/DTD/svg11.dtd">
<svg version="1.1" id="Capa_1" xmlns="http://www.w3.org/2000/svg" xmlns:xlink="http://www.w3.org/1999/xlink" x="0px" y="0px"
	 width="36px" height="36px" viewBox="0 0 36 36" enable-background="new 0 0 36 36" xml:space="preserve">
<g>
	<path fill="#FFFFFF" d="M26.229,0.694H12.952c-1.193,0-2.164,0.971-2.164,2.163V15.49l-3.371,2.699
		c-1.043,0.956-1.676,1.665-1.676,3.417V31.7h-0.72v3.604h1.441v-2.162h11.537v2.162h1.442V31.7h-1.442v-0.382
		c0.649-0.566,2.164-2.086,2.164-3.944v-1.442h8.651c1.192,0,2.164-0.97,2.164-2.162V5.443L26.229,0.694z M18.721,27.374
		c0,1.592-1.854,3.017-1.874,3.028l-0.289,0.217V31.7H7.185L7.183,21.605c0-1.123,0.244-1.471,1.172-2.321l2.434-1.946v3.969
		l-1.951,1.952l1.02,1.021l5.77-5.77c0.082-0.083,0.186-0.188,0.475,0.072c0.613,0.548,1.02,1.939,0.285,2.896l-1.992,1.989v2.464
		c0,1.786-1.176,2.161-2.162,2.161v1.442c1.662,0,3.605-0.944,3.605-3.604h2.884v1.441L18.721,27.374L18.721,27.374z M29.536,23.77
		c0,0.397-0.322,0.723-0.722,0.723H15.837v-0.424l1.598-1.6l0.053-0.06c1.243-1.554,0.773-3.829-0.424-4.902
		c-0.795-0.709-1.758-0.717-2.459-0.017l-2.373,2.374V2.857c0-0.397,0.322-0.721,0.721-0.721h12.68l3.904,3.903L29.536,23.77
		L29.536,23.77z"/>
	<polygon fill="#FFFFFF" points="24.488,3.579 24.488,7.184 28.096,7.184 28.096,5.742 25.932,5.742 25.932,3.579 	"/>
	<rect x="15.837" y="10.068" fill="#FFFFFF" width="10.815" height="1.442"/>
	<rect x="15.837" y="12.952" fill="#FFFFFF" width="5.769" height="1.442"/>
</g>
</svg>
