<?xml version="1.0" encoding="utf-8"?>
<!-- Generator: Adobe Illustrator 14.0.0, SVG Export Plug-In . SVG Version: 6.00 Build 43363)  -->
<!DOCTYPE svg PUBLIC "-//W3C//DTD SVG 1.1//EN" "http://www.w3.org/Graphics/SVG/1.1/DTD/svg11.dtd">
<svg version="1.1" id="Capa_1" xmlns="http://www.w3.org/2000/svg" xmlns:xlink="http://www.w3.org/1999/xlink" x="0px" y="0px"
	 width="40px" height="40px" viewBox="0 0 40 40" enable-background="new 0 0 40 40" xml:space="preserve">
<g>
	<g>
		<path fill="#FFFFFF" d="M28.787,25.764L40,36.977L36.977,40L25.764,28.788c-2.697,2.062-6.069,3.284-9.728,3.284
			C7.179,32.072,0,24.895,0,16.037C0,7.18,7.179,0,16.036,0c8.856,0,16.037,7.18,16.037,16.037
			C32.073,19.694,30.85,23.066,28.787,25.764L28.787,25.764z M16.036,27.797c6.495,0,11.761-5.266,11.761-11.76
			c0-6.495-5.266-11.76-11.761-11.76c-6.494,0-11.76,5.265-11.76,11.76C4.276,22.531,9.542,27.797,16.036,27.797z"/>
	</g>
</g>
</svg>
