<?xml version="1.0" encoding="utf-8"?>
<!-- Generator: Adobe Illustrator 14.0.0, SVG Export Plug-In . SVG Version: 6.00 Build 43363)  -->
<!DOCTYPE svg PUBLIC "-//W3C//DTD SVG 1.1//EN" "http://www.w3.org/Graphics/SVG/1.1/DTD/svg11.dtd">
<svg version="1.1" id="Capa_1" xmlns="http://www.w3.org/2000/svg" xmlns:xlink="http://www.w3.org/1999/xlink" x="0px" y="0px"
	 width="50px" height="50px" viewBox="0 0 50 50" enable-background="new 0 0 50 50" xml:space="preserve">
<g>
	<path opacity="0.6" fill="#FFFFFF" enable-background="new    " d="M25,14.088c-6.024,0-10.912,4.885-10.912,10.912
		c0,6.025,4.888,10.912,10.912,10.912c6.027,0,10.912-4.887,10.912-10.912C35.912,18.973,31.027,14.088,25,14.088z M25.174,30.691
		c-0.047,0.145-0.11,0.233-0.198,0.27c-0.086,0.035-0.211,0.068-0.373,0.104c-0.162,0.037-0.328,0.054-0.502,0.054
		c-0.187,0-0.347-0.019-0.486-0.054c-0.139-0.034-0.256-0.067-0.354-0.104c-0.1-0.035-0.172-0.129-0.217-0.285
		c-0.047-0.156-0.069-0.35-0.069-0.582c0-0.346,0.053-0.617,0.155-0.813c0.23-0.15,0.556-0.226,0.972-0.226
		c0.174,0,0.332,0.014,0.477,0.043c0.146,0.029,0.273,0.07,0.389,0.121c0.117,0.053,0.191,0.148,0.228,0.287
		s0.053,0.334,0.053,0.588C25.244,30.35,25.221,30.549,25.174,30.691z M27.695,23.742c-0.363,0.572-0.928,1.061-1.689,1.465
		l-1.092,0.59l-0.139,1.768c-0.207,0.07-0.439,0.104-0.693,0.104c-0.242,0-0.469-0.033-0.676-0.104l-0.104-2.582l0.156-0.191
		l0.83-0.434C24.982,24,25.5,23.631,25.842,23.25c0.341-0.383,0.511-0.793,0.511-1.232c0-0.438-0.146-0.805-0.441-1.1
		s-0.725-0.441-1.291-0.441c-0.301,0-0.635,0.049-1.006,0.146c-0.369,0.098-0.773,0.258-1.213,0.477
		c-0.162-0.139-0.31-0.334-0.441-0.588c-0.132-0.254-0.205-0.504-0.217-0.746c1.051-0.59,2.115-0.883,3.189-0.883
		c1.073,0,1.896,0.268,2.469,0.805s0.856,1.256,0.856,2.158C28.246,22.539,28.059,23.172,27.695,23.742z"/>
</g>
</svg>
