<?xml version="1.0" encoding="utf-8"?>
<!-- Generator: Adobe Illustrator 14.0.0, SVG Export Plug-In . SVG Version: 6.00 Build 43363)  -->
<!DOCTYPE svg PUBLIC "-//W3C//DTD SVG 1.1//EN" "http://www.w3.org/Graphics/SVG/1.1/DTD/svg11.dtd">
<svg version="1.1" id="Capa_1" xmlns="http://www.w3.org/2000/svg" xmlns:xlink="http://www.w3.org/1999/xlink" x="0px" y="0px"
	 width="39px" height="39px" viewBox="0 0 39 39" enable-background="new 0 0 39 39" xml:space="preserve">
<g>
	<path fill="#BC1535" d="M19.117,12.645h0.845c0.121,0,0.2-0.079,0.2-0.2v-2.413c0-0.121-0.079-0.2-0.2-0.2h-0.845
		c-0.119,0-0.202,0.079-0.202,0.2v2.412C18.915,12.563,18.998,12.645,19.117,12.645z"/>
	<path fill="#BC1535" d="M31.707,21.535h-2.414c-0.119,0-0.201,0.078-0.201,0.199v0.844c0,0.121,0.082,0.201,0.201,0.201h2.414
		c0.119,0,0.199-0.08,0.199-0.201v-0.844C31.906,21.613,31.787,21.535,31.707,21.535z"/>
	<path fill="#BC1535" d="M28.207,18.115l0.32,0.764c0.041,0.081,0.162,0.159,0.24,0.12l2.215-0.924
		c0.08-0.041,0.16-0.16,0.121-0.242l-0.324-0.765c-0.039-0.079-0.16-0.16-0.24-0.12l-2.215,0.926
		C28.207,17.915,28.168,18.034,28.207,18.115z"/>
	<path fill="#BC1535" d="M26.557,15.702c0.08,0.08,0.201,0.08,0.281,0l1.688-1.689c0.082-0.08,0.082-0.202,0-0.281l-0.602-0.603
		c-0.08-0.081-0.203-0.081-0.283,0l-1.688,1.689c-0.08,0.079-0.08,0.2,0,0.277L26.557,15.702z"/>
	<path fill="#BC1535" d="M22.775,13.208l0.766,0.32c0.082,0.041,0.201,0,0.24-0.118l0.928-2.212c0.041-0.082,0-0.203-0.123-0.242
		l-0.766-0.322c-0.078-0.04-0.197,0-0.238,0.119l-0.928,2.214C22.654,13.047,22.693,13.168,22.775,13.208z"/>
	<path fill="#BC1535" d="M24.99,16.144c-0.082-0.079-0.199-0.079-0.281,0l-1.385,1.383l0.896,0.873l1.37-1.371
		c0.08-0.079,0.08-0.198,0-0.28L24.99,16.144z"/>
	<path fill="#BC1535" d="M32.793,11.198l0.199,0.2c0.402,0.401,1.008,0.401,1.367,0l0.727-0.723c0.398-0.404,0.398-1.008,0-1.369
		L32.188,6.41c-0.397-0.401-1.004-0.401-1.362,0l-0.728,0.724C29.7,7.536,29.7,8.14,30.098,8.5l0.16,0.162l-0.766,0.766
		c-2.131-1.65-4.625-2.776-7.398-3.219V5.001h1.289c0.52,0,0.963-0.44,0.963-0.964V1.181c0-0.521-0.443-0.964-0.963-0.964h-7.727
		c-0.521,0-0.963,0.441-0.963,0.964v2.856c0,0.522,0.44,0.964,0.963,0.964h1.287v1.208c-1.313,0.205-2.564,0.58-3.752,1.083
		l2.185,2.128c1.317-0.435,2.724-0.678,4.183-0.678c7.4,0,13.436,6.034,13.436,13.434c0,1.34-0.203,2.633-0.57,3.857l2.166,2.109
		c0.729-1.838,1.142-3.834,1.142-5.929c0.039-3.901-1.367-7.48-3.66-10.295L32.793,11.198z"/>
	<path fill="#BC1535" d="M29.408,27.576l-1.061-0.443c-0.119-0.041-0.162-0.16-0.119-0.24l0.146-0.352l-5.813-5.813l-0.893,0.893
		c0.24,0.361,0.363,0.809,0.363,1.289c0,1.404-1.125,2.529-2.536,2.529c-1.406,0-2.533-1.125-2.533-2.529
		c0-1.408,1.127-2.535,2.533-2.535c0.481,0,0.924,0.121,1.288,0.361l0.893-0.893l-5.769-5.768l-0.434,0.184
		c-0.123,0.039-0.201-0.041-0.242-0.12l-0.529-1.269L3.078,1.247L0.732,3.593l7.141,7.14c-3.006,2.991-4.795,7.109-4.795,11.628
		c0,9.056,7.367,16.423,16.423,16.423c4.526,0,8.632-1.843,11.604-4.816l4.813,4.816l2.349-2.349L29.408,27.576z M10.529,14.502
		l0.603-0.604c0.084-0.078,0.205-0.078,0.283,0l1.688,1.691c0.082,0.079,0.082,0.198,0,0.279L12.5,16.473
		c-0.08,0.08-0.201,0.08-0.279,0l-1.69-1.688C10.451,14.704,10.451,14.583,10.529,14.502z M8.277,17.842
		c0.041-0.122,0.16-0.161,0.242-0.122l2.211,0.927c0.121,0.04,0.162,0.16,0.121,0.24l-0.322,0.764
		c-0.039,0.122-0.162,0.162-0.239,0.122l-2.212-0.925c-0.081-0.041-0.161-0.161-0.12-0.241L8.277,17.842z M7.396,23.555
		c-0.123,0-0.203-0.078-0.203-0.201v-0.848c0-0.117,0.08-0.197,0.203-0.197h2.41c0.12,0,0.201,0.08,0.201,0.197v0.848
		c0,0.08-0.081,0.162-0.201,0.201H7.396z M8.318,27.979l-0.321-0.768c-0.039-0.08,0.038-0.201,0.12-0.242l2.212-0.926
		c0.081-0.039,0.2,0.043,0.241,0.121l0.322,0.768c0.039,0.117,0,0.238-0.121,0.238L8.559,28.1
		C8.479,28.141,8.357,28.059,8.318,27.979z M13.146,30.229l-1.689,1.689c-0.079,0.076-0.2,0.076-0.28,0l-0.605-0.604
		c-0.08-0.082-0.08-0.201,0-0.281l1.688-1.691c0.082-0.078,0.203-0.078,0.282,0l0.604,0.605
		C13.226,30.027,13.226,30.148,13.146,30.229z M15.519,34.33c-0.041,0.121-0.162,0.164-0.24,0.121l-0.767-0.322
		c-0.12-0.039-0.159-0.16-0.12-0.238l0.926-2.215c0.039-0.117,0.16-0.156,0.239-0.117l0.765,0.32
		c0.08,0.039,0.121,0.117,0.121,0.242L15.519,34.33z M20.184,35.016c0,0.119-0.08,0.201-0.203,0.201h-0.844
		c-0.121,0-0.199-0.082-0.199-0.201v-2.41c0-0.123,0.078-0.2,0.199-0.2h0.844c0.123,0,0.203,0.077,0.203,0.2V35.016z M24.688,34.09
		l-0.766,0.322c-0.078,0.039-0.197-0.039-0.24-0.119l-0.924-2.215c-0.041-0.082,0.039-0.199,0.119-0.24l0.764-0.318
		c0.084-0.041,0.203,0.039,0.242,0.115l0.926,2.217C24.848,33.932,24.77,34.051,24.688,34.09z M28.549,31.273l-0.604,0.604
		c-0.082,0.078-0.199,0.078-0.281,0l-1.688-1.69c-0.082-0.08-0.082-0.199,0-0.279l0.602-0.604c0.08-0.08,0.199-0.08,0.283,0
		l1.688,1.69C28.629,31.072,28.629,31.193,28.549,31.273z"/>
</g>
</svg>
