<?xml version="1.0" encoding="utf-8"?>
<!-- Generator: Adobe Illustrator 14.0.0, SVG Export Plug-In . SVG Version: 6.00 Build 43363)  -->
<!DOCTYPE svg PUBLIC "-//W3C//DTD SVG 1.1//EN" "http://www.w3.org/Graphics/SVG/1.1/DTD/svg11.dtd">
<svg version="1.1" id="Capa_1" xmlns="http://www.w3.org/2000/svg" xmlns:xlink="http://www.w3.org/1999/xlink" x="0px" y="0px"
	 width="40px" height="40px" viewBox="0 0 40 40" enable-background="new 0 0 40 40" xml:space="preserve">
<g>
	<path fill="#FFFFFF" d="M9.133,15.09c1.166,0,2.12-0.954,2.12-2.121c0-2.438,1.007-4.771,2.81-6.412
		c1.803-1.696,4.188-2.492,6.625-2.279c4.506,0.371,8.11,4.346,8.058,8.904c-0.106,4.293-2.968,7.738-7.05,8.427
		c-2.014,0.316-3.286,1.908-3.286,4.08v5.301c0,1.166,0.955,2.119,2.12,2.119c1.166,0,2.121-0.953,2.121-2.119v-5.247
		c5.883-1.113,10.175-6.307,10.334-12.455c0.158-6.89-5.088-12.72-11.926-13.25c-3.658-0.267-7.156,0.9-9.858,3.392
		c-2.649,2.438-4.188,5.936-4.188,9.539C7.013,14.136,7.968,15.09,9.133,15.09z"/>
	<circle fill="#FFFFFF" cx="20.527" cy="37.35" r="2.65"/>
</g>
</svg>
