<?xml version="1.0" encoding="utf-8"?>
<!-- Generator: Adobe Illustrator 14.0.0, SVG Export Plug-In . SVG Version: 6.00 Build 43363)  -->
<!DOCTYPE svg PUBLIC "-//W3C//DTD SVG 1.1//EN" "http://www.w3.org/Graphics/SVG/1.1/DTD/svg11.dtd">
<svg version="1.1" id="Capa_1" xmlns="http://www.w3.org/2000/svg" xmlns:xlink="http://www.w3.org/1999/xlink" x="0px" y="0px"
	 width="39px" height="39px" viewBox="0 0 39 39" enable-background="new 0 0 39 39" xml:space="preserve">
<g>
	<path fill="#006837" d="M31.428,12.14l0.723-0.721l0.197,0.199c0.4,0.399,1.002,0.399,1.363,0l0.719-0.72
		c0.396-0.401,0.396-1.002,0-1.36l-2.881-2.881c-0.398-0.4-1-0.4-1.359,0l-0.723,0.719c-0.396,0.399-0.396,1,0,1.358l0.162,0.162
		l-0.764,0.763c-2.119-1.644-4.602-2.765-7.359-3.203V5.255h1.279c0.52,0,0.961-0.438,0.961-0.959V1.454
		c0-0.521-0.441-0.959-0.961-0.959h-7.684c-0.518,0-0.959,0.438-0.959,0.959v2.842c0,0.521,0.441,0.959,0.959,0.959h1.279v1.201
		C8.699,7.657,2.818,14.339,2.818,22.382c0,8.884,7.24,16.123,16.123,16.123c8.883,0,16.125-7.239,16.125-16.123
		C35.105,18.499,33.711,14.938,31.428,12.14 M18.983,35.704c-7.359,0-13.361-6.002-13.361-13.365c0-7.36,6.002-13.362,13.361-13.362
		c7.361,0,13.363,6.002,13.363,13.362C32.346,29.702,26.346,35.704,18.983,35.704"/>
	<path fill="#006837" d="M18.544,12.856h0.84c0.121,0,0.198-0.078,0.198-0.197v-2.403c0-0.119-0.077-0.198-0.198-0.198h-0.84
		c-0.119,0-0.201,0.079-0.201,0.198v2.403C18.343,12.778,18.425,12.856,18.544,12.856"/>
	<path fill="#006837" d="M14.942,13.778l0.76-0.32c0.082-0.041,0.16-0.16,0.121-0.241l-0.92-2.201
		c-0.041-0.079-0.16-0.157-0.238-0.116l-0.764,0.317c-0.08,0.04-0.16,0.161-0.119,0.241l0.92,2.201
		C14.743,13.737,14.821,13.817,14.942,13.778"/>
	<path fill="#006837" d="M11.702,15.978c0.08,0.08,0.199,0.08,0.279,0l0.6-0.601c0.082-0.08,0.082-0.198,0-0.278l-1.68-1.683
		c-0.078-0.078-0.199-0.078-0.281,0l-0.601,0.601c-0.077,0.08-0.077,0.201,0,0.28L11.702,15.978z"/>
	<path fill="#006837" d="M7.581,18.341l2.201,0.92c0.078,0.039,0.199,0,0.237-0.12l0.32-0.763c0.041-0.078,0-0.197-0.117-0.238
		l-2.203-0.922c-0.079-0.039-0.198,0-0.239,0.121l-0.317,0.762C7.421,18.181,7.501,18.3,7.581,18.341"/>
	<path fill="#006837" d="M9.501,22.82v-0.842c0-0.119-0.08-0.198-0.201-0.198H6.904c-0.121,0-0.201,0.079-0.201,0.198v0.842
		c0,0.121,0.08,0.199,0.201,0.199H9.3C9.421,22.98,9.501,22.9,9.501,22.82"/>
	<path fill="#006837" d="M10.382,26.382l-0.316-0.762c-0.041-0.078-0.16-0.158-0.242-0.119l-2.201,0.92
		c-0.08,0.039-0.158,0.16-0.119,0.24l0.32,0.762c0.041,0.078,0.162,0.16,0.24,0.119l2.197-0.92
		C10.382,26.622,10.421,26.501,10.382,26.382"/>
	<path fill="#006837" d="M12.019,28.78c-0.077-0.08-0.196-0.08-0.276,0l-1.683,1.684c-0.079,0.078-0.079,0.199,0,0.279l0.603,0.6
		c0.08,0.078,0.201,0.078,0.277,0l1.684-1.68c0.08-0.08,0.08-0.201,0-0.281L12.019,28.78z"/>
	<path fill="#006837" d="M15.782,31.307l-0.763-0.32c-0.077-0.039-0.198,0-0.237,0.119l-0.92,2.201
		c-0.041,0.077,0,0.196,0.119,0.235l0.762,0.319c0.078,0.044,0.199,0,0.24-0.12l0.918-2.197
		C15.901,31.421,15.862,31.343,15.782,31.307"/>
	<path fill="#006837" d="M19.423,31.825h-0.841c-0.12,0-0.198,0.077-0.198,0.198v2.398c0,0.121,0.078,0.201,0.198,0.201h0.841
		c0.121,0,0.2-0.08,0.2-0.201v-2.398C19.624,31.902,19.544,31.825,19.423,31.825"/>
	<path fill="#006837" d="M23.303,31.063c-0.039-0.078-0.158-0.157-0.238-0.117l-0.762,0.318c-0.08,0.041-0.16,0.156-0.119,0.238
		l0.922,2.201c0.039,0.08,0.158,0.158,0.236,0.119l0.764-0.32c0.08-0.039,0.158-0.16,0.119-0.238L23.303,31.063z"/>
	<path fill="#006837" d="M26.266,28.741c-0.082-0.078-0.201-0.078-0.281,0l-0.6,0.602c-0.08,0.078-0.08,0.199,0,0.279l1.68,1.685
		c0.082,0.075,0.199,0.075,0.281,0l0.602-0.604c0.076-0.08,0.076-0.201,0-0.277L26.266,28.741z"/>
	<path fill="#006837" d="M30.387,26.382l-2.199-0.92c-0.08-0.041-0.199,0-0.238,0.121l-0.32,0.758c-0.041,0.08,0,0.201,0.117,0.24
		l2.203,0.92c0.08,0.041,0.197,0,0.238-0.119l0.32-0.76C30.547,26.542,30.469,26.421,30.387,26.382"/>
	<path fill="#006837" d="M31.066,21.702h-2.398c-0.119,0-0.201,0.078-0.201,0.198v0.839c0,0.12,0.082,0.198,0.201,0.198h2.398
		c0.119,0,0.199-0.078,0.199-0.198V21.9C31.266,21.78,31.146,21.702,31.066,21.702"/>
	<path fill="#006837" d="M27.586,18.3l0.318,0.761c0.041,0.08,0.16,0.157,0.242,0.119l2.201-0.921
		c0.078-0.039,0.158-0.158,0.119-0.24l-0.32-0.76c-0.041-0.08-0.162-0.16-0.242-0.121l-2.201,0.922
		C27.586,18.101,27.547,18.22,27.586,18.3"/>
	<path fill="#006837" d="M25.943,15.899c0.08,0.078,0.201,0.078,0.281,0l1.68-1.683c0.08-0.08,0.08-0.2,0-0.278l-0.6-0.601
		c-0.08-0.08-0.201-0.08-0.281,0l-1.68,1.683c-0.08,0.078-0.08,0.198,0,0.276L25.943,15.899z"/>
	<path fill="#006837" d="M22.184,13.417l0.76,0.319c0.08,0.041,0.201,0,0.24-0.118l0.92-2.199c0.041-0.082,0-0.201-0.121-0.242
		l-0.76-0.319c-0.078-0.039-0.199,0-0.238,0.12l-0.922,2.201C22.063,13.259,22.102,13.378,22.184,13.417"/>
	<path fill="#006837" d="M24.387,16.339c-0.08-0.08-0.199-0.08-0.279,0l-3.883,3.88c-0.36-0.238-0.801-0.359-1.28-0.359
		c-1.398,0-2.521,1.123-2.521,2.522c0,1.398,1.121,2.521,2.521,2.521c1.401,0,2.522-1.121,2.522-2.521
		c0-0.479-0.121-0.922-0.357-1.278l3.881-3.886c0.08-0.08,0.08-0.199,0-0.279L24.387,16.339z"/>
</g>
</svg>
