<?xml version="1.0" encoding="utf-8"?>
<!-- Generator: Adobe Illustrator 14.0.0, SVG Export Plug-In . SVG Version: 6.00 Build 43363)  -->
<!DOCTYPE svg PUBLIC "-//W3C//DTD SVG 1.1//EN" "http://www.w3.org/Graphics/SVG/1.1/DTD/svg11.dtd">
<svg version="1.1" id="Capa_1" xmlns="http://www.w3.org/2000/svg" xmlns:xlink="http://www.w3.org/1999/xlink" x="0px" y="0px"
	 width="26px" height="26px" viewBox="0 0 26 26" enable-background="new 0 0 26 26" xml:space="preserve">
<g>
	<g>
		<path fill="#0371B3" d="M10.084,7.034"/>
	</g>
	<g>
		<path fill="#0371B3" d="M10.084,7.034"/>
	</g>
	<g>
		<path fill="#0371B3" d="M10.491,6.745"/>
	</g>
	<g>
		<path fill="#0371B3" d="M20.582,15.888c-0.233,0-0.45-0.146-0.53-0.381c-0.101-0.291,0.058-0.611,0.351-0.71
			c0.353-0.12,0.617-0.322,0.922-0.561c0.306-0.236,0.653-0.506,1.11-0.682c0.629-0.238,1.303-0.252,2.159-0.266
			c0.183-0.004,0.375-0.008,0.578-0.012c0.007,0,0.012,0,0.017,0c0.303,0,0.552,0.24,0.562,0.545
			c0.009,0.309-0.235,0.566-0.545,0.578c-0.209,0.006-0.406,0.008-0.593,0.01c-0.774,0.014-1.335,0.023-1.779,0.194
			c-0.303,0.113-0.544,0.303-0.822,0.517c-0.337,0.261-0.718,0.556-1.248,0.735C20.703,15.878,20.641,15.888,20.582,15.888z"/>
	</g>
	<g>
		<path fill="#0371B3" d="M9.551,14.526c-0.497,0-1.004-0.177-1.453-0.521c-0.221-0.17-0.285-0.475-0.15-0.717
			c0.531-0.963,0.362-2.002,0.238-2.762C8.1,9.992,8.031,9.568,8.211,9.226c0.311-0.586,1.051-1.102,1.906-1.697
			c0.205-0.143,0.417-0.291,0.627-0.442c0.35-0.251,0.64-0.509,0.921-0.758c0.528-0.47,0.986-0.874,1.579-0.983
			c1.463-0.273,4.487,0.262,7.36,1.301c0.465,0.103,1.251-0.271,2.244-0.742c0.253-0.121,0.516-0.245,0.799-0.375
			c0.278-0.129,0.614-0.006,0.742,0.275c0.13,0.281,0.007,0.614-0.274,0.743c-0.277,0.126-0.535,0.25-0.785,0.369
			c-1.26,0.599-2.171,1.03-3.028,0.81c-0.018-0.004-0.033-0.01-0.052-0.016c-3.022-1.098-5.71-1.466-6.799-1.264
			c-0.289,0.054-0.62,0.349-1.041,0.723c-0.289,0.254-0.614,0.543-1.009,0.828c-0.218,0.156-0.434,0.309-0.642,0.453
			C10.103,8.909,9.424,9.381,9.22,9.724c-0.011,0.11,0.037,0.405,0.073,0.625c0.123,0.758,0.302,1.852-0.131,2.981
			c0.203,0.078,0.452,0.113,0.715,0.02c0.61-0.225,1.112-1.077,1.415-2.407c0.02-0.157,0.113-0.362,0.438-0.484
			c0.052-0.02,0.126-0.046,0.214-0.077c0.171-0.062,0.397-0.14,0.626-0.217c0.453-0.155,0.906-0.308,0.906-0.308
			c0.292-0.099,0.61,0.059,0.708,0.352c0.099,0.294-0.06,0.611-0.354,0.712c-0.56,0.188-1.171,0.397-1.504,0.517
			c-0.512,2.008-1.397,2.723-2.066,2.967C10.031,14.486,9.792,14.526,9.551,14.526z M9.223,9.706L9.223,9.706z"/>
	</g>
	<g>
		<path fill="#0371B3" d="M14.53,22.726c-0.184,0-0.367-0.035-0.542-0.104l-2.625-1.025c-0.289-0.111-0.43-0.438-0.318-0.725
			c0.113-0.288,0.438-0.432,0.727-0.32l2.627,1.026c0.108,0.043,0.229,0.03,0.326-0.031c0.153-0.099,0.166-0.251,0.165-0.312
			c-0.002-0.062-0.023-0.213-0.184-0.301l-1.353-0.783c-0.269-0.152-0.359-0.496-0.205-0.764c0.151-0.27,0.496-0.359,0.763-0.207
			l2.005,1.148c0.206,0.113,0.464,0.098,0.65-0.055c0.149-0.117,0.232-0.295,0.224-0.485s-0.104-0.36-0.266-0.468l-2.169-1.438
			c-0.258-0.172-0.329-0.52-0.157-0.777c0.17-0.258,0.519-0.328,0.776-0.158l2.655,1.757c0.262,0.171,0.606,0.131,0.82-0.097
			c0.133-0.139,0.193-0.316,0.176-0.506c-0.019-0.189-0.112-0.354-0.268-0.463l-3.215-2.309c-0.252-0.18-0.311-0.529-0.13-0.779
			c0.182-0.255,0.531-0.312,0.781-0.132l3.313,2.376c0.33,0.236,0.782,0.169,1.028-0.15c0.123-0.162,0.176-0.359,0.146-0.562
			c-0.028-0.202-0.135-0.378-0.298-0.498l-6.656-4.746c-0.253-0.179-0.312-0.528-0.131-0.782c0.179-0.252,0.529-0.311,0.781-0.131
			l6.664,4.748c0.415,0.305,0.681,0.745,0.752,1.248c0.072,0.504-0.06,1.001-0.367,1.403c-0.325,0.425-0.791,0.672-1.28,0.726
			c0.03,0.489-0.144,0.971-0.48,1.329c-0.362,0.382-0.862,0.567-1.358,0.55c-0.03,0.479-0.26,0.918-0.646,1.225
			c-0.369,0.291-0.829,0.412-1.275,0.355c-0.072,0.399-0.305,0.752-0.655,0.979C15.091,22.646,14.811,22.726,14.53,22.726z"/>
	</g>
	<g>
		<path fill="#0371B3" d="M3.705,16.394c-0.231,0-0.449-0.145-0.529-0.375c-0.373-1.066-1.305-1.938-2.556-2.39
			c-0.291-0.104-0.442-0.426-0.338-0.717c0.105-0.291,0.427-0.442,0.717-0.338c1.57,0.566,2.75,1.688,3.234,3.073
			c0.103,0.293-0.052,0.613-0.343,0.717C3.829,16.384,3.767,16.394,3.705,16.394z"/>
	</g>
	<g>
		<path fill="#0371B3" d="M7.328,7.822c-1.097,0-2.424-0.68-3.896-1.497c-0.271-0.15-0.367-0.492-0.218-0.763
			c0.15-0.271,0.491-0.367,0.764-0.217c1.354,0.754,2.87,1.539,3.658,1.316c2.603-0.736,4.412-0.484,4.488-0.473
			c0.308,0.045,0.519,0.33,0.474,0.637c-0.044,0.306-0.329,0.518-0.635,0.474l0,0c-0.017-0.002-1.668-0.224-4.023,0.442
			C7.745,7.795,7.541,7.822,7.328,7.822z"/>
	</g>
	<g>
		<path fill="#0371B3" d="M5.872,20.22c-0.422,0-0.836-0.141-1.174-0.404c-0.421-0.326-0.688-0.818-0.732-1.351
			c-0.044-0.532,0.139-1.06,0.499-1.454c0.016-0.017,0.032-0.033,0.05-0.048l1.603-1.354c0.542-0.563,1.426-0.655,2.074-0.215
			c0.699,0.479,0.911,1.426,0.479,2.155c-0.005,0.009-0.01,0.019-0.017,0.026l-1.144,1.718c-0.281,0.465-0.747,0.791-1.281,0.894
			C6.113,20.207,5.992,20.22,5.872,20.22z M5.271,17.794c-0.138,0.161-0.203,0.364-0.187,0.577c0.019,0.224,0.126,0.422,0.304,0.56
			l0,0c0.183,0.143,0.407,0.196,0.634,0.152s0.416-0.178,0.533-0.376c0.005-0.009,0.011-0.019,0.017-0.026l1.141-1.713
			c0.124-0.222,0.06-0.504-0.151-0.648c-0.201-0.137-0.479-0.104-0.644,0.076c-0.016,0.017-0.031,0.031-0.051,0.047L5.271,17.794z"
			/>
	</g>
	<g>
		<path fill="#0371B3" d="M8.113,21.739c-0.242,0-0.484-0.049-0.716-0.145c-0.506-0.205-0.896-0.623-1.07-1.144
			c-0.175-0.517-0.114-1.086,0.163-1.558c0.006-0.008,0.012-0.02,0.018-0.027l1.071-1.592c0.232-0.383,0.601-0.653,1.037-0.758
			c0.443-0.104,0.898-0.025,1.282,0.221c0.653,0.421,0.93,1.258,0.651,1.986l-0.675,1.795C9.692,21,9.331,21.376,8.862,21.581
			C8.62,21.687,8.366,21.739,8.113,21.739z M7.448,19.479c-0.107,0.189-0.128,0.408-0.059,0.617
			c0.071,0.213,0.225,0.377,0.433,0.463c0.192,0.08,0.403,0.078,0.593-0.006c0.19-0.082,0.336-0.236,0.41-0.429l0.674-1.795
			c0.091-0.237,0.002-0.511-0.211-0.646l0,0c-0.125-0.078-0.271-0.104-0.415-0.07c-0.144,0.033-0.265,0.123-0.34,0.248
			c-0.005,0.011-0.011,0.021-0.018,0.029L7.448,19.479z"/>
	</g>
	<g>
		<path fill="#0371B3" d="M10.531,22.349c-0.213,0-0.427-0.043-0.629-0.125c-0.837-0.338-1.255-1.301-0.936-2.145l0.238-0.648
			c0.316-0.828,1.219-1.271,2.06-1.013l0,0c0.441,0.136,0.813,0.451,1.015,0.868c0.203,0.416,0.223,0.902,0.057,1.336l-0.245,0.65
			c-0.164,0.426-0.48,0.758-0.896,0.936C10.982,22.3,10.755,22.349,10.531,22.349z M10.775,19.466c-0.225,0-0.436,0.137-0.519,0.355
			l-0.236,0.65c-0.108,0.285,0.029,0.604,0.305,0.713c0.138,0.057,0.289,0.056,0.425-0.006c0.138-0.06,0.242-0.166,0.295-0.306
			l0.244-0.651c0.06-0.147,0.051-0.306-0.017-0.445c-0.068-0.139-0.187-0.239-0.335-0.286l0,0
			C10.882,19.474,10.827,19.466,10.775,19.466z"/>
	</g>
	<g>
		<path fill="#0371B3" d="M4.04,18.413c-0.025,0-0.054-0.001-0.079-0.002c-0.494-0.023-0.935-0.271-1.214-0.68
			c-0.466-0.68-0.322-1.611,0.33-2.119l0.572-0.443c0.64-0.501,1.547-0.4,2.064,0.225l0,0c0.458,0.556,0.455,1.358-0.01,1.91
			l-0.466,0.553C4.934,18.213,4.502,18.413,4.04,18.413z M4.564,15.974c-0.079,0-0.159,0.026-0.228,0.08l-0.571,0.444
			c-0.186,0.144-0.226,0.409-0.094,0.603c0.08,0.113,0.205,0.185,0.345,0.192c0.14,0.009,0.271-0.051,0.359-0.157l0.469-0.555
			c0.114-0.135,0.114-0.335,0.002-0.473l0,0C4.775,16.019,4.669,15.974,4.564,15.974z"/>
	</g>
	<g>
		<path fill="#0371B3" d="M22.742,13.91"/>
	</g>
</g>
</svg>
