<?xml version="1.0" encoding="utf-8"?>
<!-- Generator: Adobe Illustrator 14.0.0, SVG Export Plug-In . SVG Version: 6.00 Build 43363)  -->
<!DOCTYPE svg PUBLIC "-//W3C//DTD SVG 1.1//EN" "http://www.w3.org/Graphics/SVG/1.1/DTD/svg11.dtd">
<svg version="1.1" id="Capa_1" xmlns="http://www.w3.org/2000/svg" xmlns:xlink="http://www.w3.org/1999/xlink" x="0px" y="0px"
	 width="64px" height="64px" viewBox="0 0 64 64" enable-background="new 0 0 64 64" xml:space="preserve">
<g>
	<path fill="#F9690E" d="M31.72,63.564c10.918,0,19.741-9.03,19.741-20.021V20.021C51.462,8.96,42.639,0,31.72,0
		C20.8,0,11.981,8.96,11.981,20.021v23.452C11.98,54.604,20.8,63.564,31.72,63.564z M16.178,20.021
		c0-8.75,7.001-15.821,15.542-15.821c8.539,0,15.542,7.141,15.542,15.821v23.452c0,8.752-7.003,15.82-15.542,15.82
		c-8.541,0-15.542-7-15.542-15.751V20.021L16.178,20.021z"/>
	<path fill="#F9690E" d="M31.72,23.451c1.189,0,2.102-0.91,2.102-2.1v-6.02c0-1.191-0.911-2.101-2.102-2.101
		c-1.191,0-2.101,0.91-2.101,2.101v6.02C29.62,22.542,30.529,23.451,31.72,23.451z"/>
</g>
</svg>
