<?xml version="1.0" encoding="utf-8"?>
<!-- Generator: Adobe Illustrator 14.0.0, SVG Export Plug-In . SVG Version: 6.00 Build 43363)  -->
<!DOCTYPE svg PUBLIC "-//W3C//DTD SVG 1.1//EN" "http://www.w3.org/Graphics/SVG/1.1/DTD/svg11.dtd">
<svg version="1.1" id="Capa_1" xmlns="http://www.w3.org/2000/svg" xmlns:xlink="http://www.w3.org/1999/xlink" x="0px" y="0px"
	 width="25px" height="24px" viewBox="0 0 25 24" enable-background="new 0 0 25 24" xml:space="preserve">
<path fill="#787878" d="M9.81,14.123c-0.416-0.426-1.098-0.436-1.525-0.02l-1.346,1.311c-0.027,0.043-0.1,0.107-0.182,0.18
	c0.254-4.098,3.293-7.461,7.408-8.088c3.178-0.484,6.359,0.809,8.303,3.373c0.213,0.281,0.563,0.422,0.91,0.369
	c0.156-0.023,0.307-0.088,0.434-0.184c0.281-0.213,0.422-0.561,0.369-0.91c-0.023-0.156-0.088-0.307-0.184-0.434
	c-2.369-3.127-6.248-4.701-10.121-4.111c-5.057,0.771-8.793,4.932-9.049,9.982c-0.027-0.029-0.051-0.057-0.063-0.078l-1.436-1.475
	c-0.416-0.424-1.098-0.434-1.525-0.02c-0.426,0.416-0.434,1.098-0.02,1.525l3.199,3.281c0.217,0.223,0.508,0.332,0.799,0.324
	c0.262-0.006,0.521-0.107,0.725-0.305l3.281-3.199C10.216,15.232,10.226,14.549,9.81,14.123z M5.817,17.035
	c0.014,0,0.027,0,0.039-0.002C5.845,17.049,5.831,17.049,5.817,17.035z"/>
</svg>
