<?xml version="1.0" encoding="utf-8"?>
<!-- Generator: Adobe Illustrator 14.0.0, SVG Export Plug-In . SVG Version: 6.00 Build 43363)  -->
<!DOCTYPE svg PUBLIC "-//W3C//DTD SVG 1.1//EN" "http://www.w3.org/Graphics/SVG/1.1/DTD/svg11.dtd">
<svg version="1.1" id="Capa_1" xmlns="http://www.w3.org/2000/svg" xmlns:xlink="http://www.w3.org/1999/xlink" x="0px" y="0px"
	 width="156px" height="40px" viewBox="0 0 156 40" enable-background="new 0 0 156 40" xml:space="preserve">
<g>
	<g enable-background="new    ">
		<path d="M64.741,35.656h-0.825l0.137-0.717c0.08-0.416,0.205-0.711,0.375-0.883c0.171-0.172,0.393-0.262,0.666-0.268l-0.08,0.416
			c-0.137,0.036-0.242,0.097-0.316,0.182c-0.074,0.086-0.13,0.221-0.168,0.402h0.375L64.741,35.656z M66.113,35.656h-0.823
			l0.134-0.717c0.08-0.416,0.206-0.711,0.377-0.883c0.171-0.172,0.394-0.262,0.667-0.268l-0.08,0.416
			c-0.137,0.036-0.242,0.097-0.316,0.182c-0.074,0.086-0.131,0.221-0.171,0.402h0.376L66.113,35.656z"/>
		<path d="M67.214,33.842h0.856l-0.472,2.494l-0.117,0.615c-0.008,0.052-0.011,0.102-0.011,0.146c0,0.182,0.06,0.332,0.181,0.45
			c0.12,0.118,0.295,0.177,0.525,0.177c0.207,0,0.377-0.043,0.512-0.129c0.135-0.085,0.239-0.213,0.313-0.382
			c0.074-0.169,0.149-0.456,0.225-0.862l0.478-2.51h0.856l-0.475,2.514c-0.101,0.528-0.216,0.933-0.347,1.213
			c-0.131,0.279-0.329,0.508-0.595,0.683c-0.266,0.176-0.602,0.263-1.008,0.263c-0.485,0-0.857-0.131-1.115-0.393
			c-0.258-0.262-0.387-0.6-0.387-1.011c0-0.085,0.007-0.179,0.02-0.278c0.007-0.067,0.041-0.258,0.1-0.57L67.214,33.842z"/>
		<path d="M71.188,35.107h0.774l-0.08,0.434c0.194-0.184,0.375-0.315,0.542-0.394c0.168-0.079,0.345-0.118,0.531-0.118
			c0.249,0,0.444,0.078,0.587,0.235c0.144,0.157,0.215,0.364,0.215,0.624c0,0.117-0.031,0.338-0.094,0.664l-0.356,1.883h-0.816
			l0.358-1.889c0.053-0.282,0.08-0.451,0.08-0.505c0-0.114-0.031-0.205-0.092-0.271c-0.062-0.066-0.147-0.1-0.258-0.1
			c-0.119,0-0.252,0.056-0.398,0.166c-0.146,0.111-0.261,0.258-0.344,0.439c-0.061,0.129-0.129,0.394-0.205,0.793l-0.259,1.365
			h-0.817L71.188,35.107z"/>
		<path d="M74.933,38.436h-0.817l0.874-4.594h0.816l-0.313,1.637c0.184-0.159,0.356-0.273,0.515-0.344
			c0.16-0.07,0.33-0.105,0.512-0.105c0.245,0,0.438,0.078,0.581,0.232c0.143,0.154,0.214,0.357,0.214,0.607
			c0,0.135-0.027,0.341-0.08,0.621l-0.37,1.945h-0.817l0.378-1.982c0.04-0.216,0.06-0.354,0.06-0.414
			c0-0.111-0.031-0.199-0.094-0.267s-0.148-0.101-0.256-0.101c-0.137,0-0.268,0.053-0.393,0.156
			c-0.163,0.139-0.287,0.308-0.373,0.508c-0.048,0.111-0.11,0.371-0.188,0.781L74.933,38.436z"/>
		<path d="M78.818,36.051l-0.797-0.074c0.091-0.297,0.25-0.529,0.477-0.696s0.527-0.251,0.901-0.251
			c0.389,0,0.676,0.086,0.862,0.259c0.186,0.173,0.278,0.383,0.278,0.632c0,0.1-0.008,0.207-0.023,0.319
			c-0.017,0.112-0.072,0.409-0.17,0.89c-0.08,0.397-0.119,0.676-0.119,0.834c0,0.143,0.022,0.3,0.068,0.473H79.5
			c-0.031-0.121-0.052-0.246-0.059-0.375c-0.12,0.146-0.258,0.258-0.413,0.336s-0.312,0.117-0.47,0.117
			c-0.25,0-0.457-0.09-0.621-0.271c-0.163-0.181-0.245-0.413-0.245-0.697c0-0.317,0.09-0.571,0.269-0.761
			c0.179-0.19,0.5-0.306,0.96-0.346c0.39-0.035,0.649-0.078,0.78-0.128c0.033-0.126,0.051-0.226,0.051-0.301
			c0-0.097-0.035-0.177-0.105-0.241s-0.174-0.098-0.313-0.098c-0.146,0-0.262,0.033-0.346,0.1
			C78.905,35.837,78.848,35.93,78.818,36.051z M79.595,36.885c-0.05,0.015-0.114,0.028-0.196,0.041
			c-0.41,0.055-0.678,0.134-0.803,0.238c-0.09,0.074-0.134,0.176-0.134,0.304c0,0.104,0.034,0.192,0.103,0.265
			s0.158,0.108,0.27,0.108c0.124,0,0.24-0.033,0.35-0.099c0.109-0.066,0.19-0.15,0.244-0.254c0.055-0.104,0.103-0.266,0.145-0.484
			L79.595,36.885z"/>
		<path d="M83.132,35.107H83.9l-0.076,0.404c0.299-0.321,0.614-0.482,0.944-0.482c0.228,0,0.403,0.053,0.526,0.157
			s0.202,0.249,0.236,0.433c0.104-0.168,0.254-0.307,0.449-0.42s0.398-0.17,0.609-0.17c0.241,0,0.429,0.071,0.563,0.213
			c0.135,0.143,0.202,0.33,0.202,0.564c0,0.115-0.026,0.313-0.08,0.596l-0.387,2.033h-0.816l0.387-2.033
			c0.047-0.255,0.071-0.398,0.071-0.433c0-0.092-0.025-0.165-0.075-0.218c-0.051-0.053-0.126-0.08-0.227-0.08
			c-0.203,0-0.385,0.118-0.543,0.354c-0.116,0.169-0.215,0.469-0.297,0.899l-0.287,1.51h-0.816l0.381-2.012
			c0.043-0.231,0.065-0.382,0.065-0.451c0-0.088-0.026-0.16-0.081-0.216c-0.055-0.057-0.129-0.085-0.224-0.085
			c-0.089,0-0.181,0.029-0.276,0.088c-0.094,0.059-0.178,0.139-0.248,0.241c-0.072,0.103-0.133,0.234-0.184,0.396
			c-0.023,0.074-0.061,0.245-0.111,0.51l-0.291,1.529H82.5L83.132,35.107z"/>
		<path d="M88.861,36.051l-0.797-0.074c0.091-0.297,0.25-0.529,0.477-0.696s0.527-0.251,0.9-0.251c0.389,0,0.677,0.086,0.863,0.259
			c0.186,0.173,0.278,0.383,0.278,0.632c0,0.1-0.009,0.207-0.024,0.319s-0.072,0.409-0.17,0.89
			c-0.079,0.397-0.119,0.676-0.119,0.834c0,0.143,0.023,0.3,0.068,0.473h-0.794c-0.032-0.121-0.052-0.246-0.06-0.375
			c-0.119,0.146-0.258,0.258-0.412,0.336c-0.156,0.078-0.313,0.117-0.471,0.117c-0.25,0-0.457-0.09-0.62-0.271
			s-0.245-0.413-0.245-0.697c0-0.317,0.09-0.571,0.27-0.761c0.18-0.19,0.5-0.306,0.961-0.346c0.389-0.035,0.648-0.078,0.779-0.128
			c0.034-0.126,0.051-0.226,0.051-0.301c0-0.097-0.035-0.177-0.105-0.241c-0.069-0.064-0.174-0.098-0.313-0.098
			c-0.146,0-0.262,0.033-0.346,0.1C88.949,35.837,88.892,35.93,88.861,36.051z M89.639,36.885c-0.05,0.015-0.115,0.028-0.197,0.041
			c-0.41,0.055-0.678,0.134-0.803,0.238c-0.089,0.074-0.133,0.176-0.133,0.304c0,0.104,0.033,0.192,0.102,0.265
			s0.158,0.108,0.271,0.108c0.124,0,0.239-0.033,0.349-0.099c0.109-0.066,0.191-0.15,0.245-0.254s0.103-0.266,0.144-0.484
			L89.639,36.885z"/>
		<path d="M91.594,35.107h0.773l-0.08,0.434c0.194-0.184,0.375-0.315,0.543-0.394c0.168-0.079,0.345-0.118,0.531-0.118
			c0.248,0,0.443,0.078,0.587,0.235s0.215,0.364,0.215,0.624c0,0.117-0.031,0.338-0.094,0.664l-0.356,1.883h-0.816l0.359-1.889
			c0.053-0.282,0.079-0.451,0.079-0.505c0-0.114-0.03-0.205-0.093-0.271c-0.061-0.066-0.146-0.1-0.258-0.1
			c-0.119,0-0.252,0.056-0.398,0.166c-0.146,0.111-0.26,0.258-0.344,0.439c-0.061,0.129-0.129,0.394-0.205,0.793l-0.259,1.365
			h-0.817L91.594,35.107z"/>
		<path d="M97.453,37.051h-2.049c-0.002,0.035-0.004,0.063-0.004,0.082c0,0.221,0.059,0.4,0.173,0.535
			c0.114,0.137,0.255,0.204,0.42,0.204c0.271,0,0.482-0.155,0.634-0.464l0.732,0.135c-0.143,0.324-0.333,0.566-0.57,0.729
			c-0.238,0.162-0.506,0.242-0.802,0.242c-0.406,0-0.736-0.141-0.99-0.424c-0.255-0.283-0.382-0.658-0.382-1.123
			c0-0.456,0.115-0.861,0.345-1.217c0.313-0.48,0.76-0.721,1.341-0.721c0.369,0,0.664,0.127,0.882,0.378
			c0.218,0.252,0.327,0.604,0.327,1.058C97.51,36.682,97.49,36.877,97.453,37.051z M96.764,36.502
			c0.002-0.039,0.004-0.069,0.004-0.09c0-0.247-0.051-0.432-0.151-0.555s-0.235-0.186-0.404-0.186s-0.319,0.07-0.454,0.211
			c-0.133,0.139-0.225,0.346-0.271,0.619H96.764z"/>
		<path d="M98.384,35.107h0.817l-0.633,3.328h-0.816L98.384,35.107z M98.623,33.842h0.816l-0.153,0.814h-0.817L98.623,33.842z"/>
		<path d="M99.957,35.107h0.764l-0.123,0.646c0.285-0.482,0.593-0.725,0.925-0.725c0.118,0,0.244,0.033,0.379,0.098l-0.313,0.736
			c-0.074-0.029-0.152-0.044-0.236-0.044c-0.141,0-0.283,0.059-0.428,0.176c-0.146,0.116-0.259,0.272-0.34,0.468
			c-0.082,0.195-0.162,0.506-0.242,0.93l-0.199,1.043h-0.816L99.957,35.107z"/>
		<path d="M102.793,36.051l-0.797-0.074c0.09-0.297,0.249-0.529,0.477-0.696c0.227-0.167,0.526-0.251,0.9-0.251
			c0.389,0,0.676,0.086,0.862,0.259c0.186,0.173,0.278,0.383,0.278,0.632c0,0.1-0.008,0.207-0.023,0.319
			c-0.017,0.112-0.072,0.409-0.17,0.89c-0.08,0.397-0.119,0.676-0.119,0.834c0,0.143,0.022,0.3,0.068,0.473h-0.795
			c-0.031-0.121-0.052-0.246-0.059-0.375c-0.12,0.146-0.258,0.258-0.413,0.336s-0.312,0.117-0.47,0.117
			c-0.25,0-0.457-0.09-0.621-0.271c-0.162-0.181-0.244-0.413-0.244-0.697c0-0.317,0.09-0.571,0.27-0.761
			c0.179-0.19,0.499-0.306,0.96-0.346c0.39-0.035,0.649-0.078,0.78-0.128c0.033-0.126,0.051-0.226,0.051-0.301
			c0-0.097-0.035-0.177-0.105-0.241s-0.174-0.098-0.313-0.098c-0.146,0-0.262,0.033-0.346,0.1
			C102.88,35.837,102.822,35.93,102.793,36.051z M103.569,36.885c-0.05,0.015-0.114,0.028-0.196,0.041
			c-0.41,0.055-0.678,0.134-0.803,0.238c-0.09,0.074-0.134,0.176-0.134,0.304c0,0.104,0.034,0.192,0.103,0.265
			s0.158,0.108,0.27,0.108c0.124,0,0.24-0.033,0.35-0.099c0.109-0.066,0.19-0.15,0.244-0.254c0.055-0.104,0.103-0.266,0.145-0.484
			L103.569,36.885z"/>
		<path d="M109.293,38.436h-0.775l0.068-0.359c-0.147,0.156-0.293,0.269-0.436,0.336c-0.145,0.068-0.306,0.102-0.486,0.102
			c-0.313,0-0.566-0.117-0.761-0.352c-0.194-0.235-0.292-0.582-0.292-1.042c0-0.532,0.137-1.015,0.41-1.444
			c0.273-0.431,0.635-0.646,1.084-0.646c0.406,0,0.711,0.178,0.914,0.533l0.326-1.721h0.817L109.293,38.436z M107.405,37.082
			c0,0.238,0.055,0.424,0.164,0.559c0.108,0.133,0.243,0.2,0.402,0.2c0.147,0,0.286-0.056,0.414-0.168s0.23-0.282,0.308-0.513
			c0.076-0.229,0.115-0.449,0.115-0.66c0-0.24-0.059-0.436-0.176-0.584c-0.118-0.148-0.254-0.222-0.408-0.222
			c-0.238,0-0.436,0.146-0.588,0.438C107.482,36.426,107.405,36.742,107.405,37.082z"/>
		<path d="M113.004,37.051h-2.05c-0.002,0.035-0.003,0.063-0.003,0.082c0,0.221,0.058,0.4,0.172,0.535
			c0.115,0.137,0.256,0.204,0.42,0.204c0.271,0,0.482-0.155,0.635-0.464l0.731,0.135c-0.142,0.324-0.333,0.566-0.57,0.729
			c-0.238,0.162-0.505,0.242-0.802,0.242c-0.406,0-0.736-0.141-0.99-0.424s-0.381-0.658-0.381-1.123
			c0-0.456,0.115-0.861,0.344-1.217c0.313-0.48,0.76-0.721,1.341-0.721c0.37,0,0.664,0.127,0.882,0.378
			c0.219,0.252,0.328,0.604,0.328,1.058C113.061,36.682,113.041,36.877,113.004,37.051z M112.314,36.502
			c0.002-0.039,0.003-0.069,0.003-0.09c0-0.247-0.05-0.432-0.151-0.555c-0.1-0.123-0.234-0.186-0.404-0.186
			c-0.168,0-0.319,0.07-0.453,0.211c-0.134,0.139-0.225,0.346-0.271,0.619H112.314z"/>
		<path d="M117.027,35.107l-0.125,0.658h-0.578l-0.506,2.67h-0.817l0.507-2.67h-0.455l0.125-0.658h0.455l0.065-0.341
			c0.054-0.28,0.104-0.47,0.151-0.567c0.064-0.133,0.16-0.24,0.289-0.318c0.127-0.078,0.295-0.117,0.502-0.117
			c0.25,0,0.514,0.051,0.791,0.15l-0.16,0.643c-0.195-0.073-0.354-0.109-0.475-0.109c-0.093,0-0.162,0.032-0.208,0.097
			c-0.03,0.042-0.062,0.151-0.094,0.329l-0.046,0.234H117.027z"/>
		<path d="M118.016,36.051l-0.797-0.074c0.09-0.297,0.249-0.529,0.477-0.696c0.227-0.167,0.526-0.251,0.9-0.251
			c0.389,0,0.676,0.086,0.862,0.259c0.186,0.173,0.278,0.383,0.278,0.632c0,0.1-0.008,0.207-0.023,0.319
			c-0.017,0.112-0.072,0.409-0.17,0.89c-0.08,0.397-0.119,0.676-0.119,0.834c0,0.143,0.022,0.3,0.068,0.473h-0.795
			c-0.031-0.121-0.052-0.246-0.059-0.375c-0.12,0.146-0.258,0.258-0.413,0.336s-0.312,0.117-0.47,0.117
			c-0.25,0-0.457-0.09-0.621-0.271c-0.162-0.181-0.244-0.413-0.244-0.697c0-0.317,0.09-0.571,0.27-0.761
			c0.179-0.19,0.499-0.306,0.96-0.346c0.39-0.035,0.649-0.078,0.78-0.128c0.033-0.126,0.051-0.226,0.051-0.301
			c0-0.097-0.035-0.177-0.105-0.241s-0.174-0.098-0.313-0.098c-0.146,0-0.262,0.033-0.346,0.1
			C118.103,35.837,118.045,35.93,118.016,36.051z M118.792,36.885c-0.05,0.015-0.114,0.028-0.196,0.041
			c-0.41,0.055-0.678,0.134-0.803,0.238c-0.09,0.074-0.134,0.176-0.134,0.304c0,0.104,0.034,0.192,0.103,0.265
			s0.158,0.108,0.27,0.108c0.124,0,0.24-0.033,0.35-0.099c0.109-0.066,0.19-0.15,0.244-0.254c0.055-0.104,0.103-0.266,0.145-0.484
			L118.792,36.885z"/>
		<path d="M122.153,37.183l0.794,0.142c-0.131,0.389-0.324,0.684-0.58,0.887c-0.257,0.202-0.554,0.303-0.892,0.303
			c-0.386,0-0.69-0.125-0.916-0.379c-0.226-0.252-0.339-0.6-0.339-1.043c0-0.361,0.068-0.703,0.205-1.025
			c0.137-0.321,0.342-0.574,0.617-0.76c0.275-0.185,0.577-0.277,0.905-0.277c0.356,0,0.642,0.104,0.854,0.308
			c0.213,0.204,0.332,0.474,0.358,0.809l-0.776,0.091c-0.019-0.186-0.071-0.322-0.155-0.41s-0.195-0.132-0.332-0.132
			c-0.157,0-0.305,0.064-0.44,0.194c-0.137,0.129-0.241,0.323-0.315,0.581c-0.072,0.258-0.109,0.5-0.109,0.726
			c0,0.196,0.044,0.348,0.131,0.454c0.088,0.106,0.197,0.159,0.328,0.159s0.257-0.051,0.379-0.156
			C121.99,37.549,122.085,37.392,122.153,37.183z"/>
		<path d="M126.289,37.051h-2.05c-0.002,0.035-0.003,0.063-0.003,0.082c0,0.221,0.058,0.4,0.172,0.535
			c0.115,0.137,0.256,0.204,0.42,0.204c0.271,0,0.482-0.155,0.635-0.464l0.731,0.135c-0.142,0.324-0.333,0.566-0.57,0.729
			c-0.238,0.162-0.505,0.242-0.802,0.242c-0.406,0-0.736-0.141-0.99-0.424s-0.381-0.658-0.381-1.123
			c0-0.456,0.115-0.861,0.344-1.217c0.313-0.48,0.76-0.721,1.341-0.721c0.37,0,0.664,0.127,0.882,0.378
			c0.219,0.252,0.328,0.604,0.328,1.058C126.346,36.682,126.326,36.877,126.289,37.051z M125.6,36.502
			c0.002-0.039,0.003-0.069,0.003-0.09c0-0.247-0.05-0.432-0.151-0.555c-0.1-0.123-0.234-0.186-0.404-0.186
			c-0.168,0-0.319,0.07-0.453,0.211c-0.134,0.139-0.225,0.346-0.271,0.619H125.6z"/>
		<path d="M127.174,35.107h0.763l-0.122,0.646c0.284-0.482,0.592-0.725,0.924-0.725c0.118,0,0.244,0.033,0.379,0.098l-0.313,0.736
			c-0.074-0.029-0.152-0.044-0.236-0.044c-0.141,0-0.283,0.059-0.429,0.176c-0.146,0.116-0.259,0.272-0.34,0.468
			s-0.162,0.506-0.242,0.93l-0.199,1.043h-0.816L127.174,35.107z"/>
		<path d="M130.48,38.436l0.871-4.594h3.094l-0.146,0.768h-2.234l-0.199,1.044h2.16l-0.146,0.768h-2.16l-0.262,1.247h2.428
			l-0.148,0.768H130.48z"/>
		<path d="M134.988,35.107h0.816l-0.373,1.972c-0.045,0.236-0.067,0.384-0.067,0.442c0,0.096,0.032,0.178,0.097,0.247
			s0.146,0.104,0.248,0.104c0.071,0,0.143-0.015,0.213-0.046c0.07-0.029,0.143-0.076,0.217-0.138s0.14-0.132,0.199-0.212
			c0.059-0.078,0.113-0.184,0.164-0.313c0.037-0.096,0.075-0.253,0.117-0.471l0.302-1.586h0.817l-0.633,3.328h-0.762l0.084-0.451
			c-0.333,0.354-0.697,0.529-1.09,0.529c-0.248,0-0.443-0.078-0.586-0.234s-0.213-0.367-0.213-0.63c0-0.114,0.031-0.344,0.096-0.687
			L134.988,35.107z"/>
		<path d="M138.51,35.107h0.762l-0.122,0.646c0.284-0.482,0.593-0.725,0.925-0.725c0.117,0,0.244,0.033,0.379,0.098l-0.313,0.736
			c-0.073-0.029-0.152-0.044-0.235-0.044c-0.141,0-0.283,0.059-0.43,0.176c-0.145,0.116-0.258,0.272-0.34,0.468
			c-0.081,0.195-0.162,0.506-0.242,0.93l-0.199,1.043h-0.816L138.51,35.107z"/>
		<path d="M140.311,37.055c0-0.617,0.158-1.108,0.474-1.475c0.315-0.367,0.731-0.551,1.245-0.551c0.445,0,0.794,0.136,1.045,0.406
			c0.25,0.271,0.375,0.635,0.375,1.092c0,0.539-0.156,1.006-0.469,1.398c-0.313,0.393-0.732,0.588-1.258,0.588
			c-0.285,0-0.537-0.063-0.758-0.188c-0.22-0.125-0.385-0.303-0.492-0.533C140.364,37.564,140.311,37.317,140.311,37.055z
			 M142.639,36.412c0-0.213-0.057-0.385-0.17-0.513s-0.258-0.192-0.437-0.192c-0.177,0-0.333,0.06-0.47,0.18
			s-0.242,0.295-0.318,0.523s-0.114,0.439-0.114,0.631c0,0.238,0.06,0.428,0.177,0.568c0.117,0.139,0.266,0.209,0.443,0.209
			c0.225,0,0.412-0.105,0.564-0.316C142.53,37.203,142.639,36.84,142.639,36.412z"/>
		<path d="M144.357,35.107h0.773l-0.064,0.342c0.164-0.15,0.318-0.258,0.463-0.322s0.299-0.098,0.465-0.098
			c0.316,0,0.57,0.121,0.764,0.361c0.192,0.24,0.289,0.598,0.289,1.074c0,0.6-0.166,1.106-0.498,1.52
			c-0.285,0.354-0.621,0.529-1.011,0.529c-0.4,0-0.702-0.178-0.907-0.535l-0.328,1.727h-0.816L144.357,35.107z M144.85,37.017
			c0,0.259,0.057,0.46,0.172,0.603c0.115,0.144,0.25,0.215,0.406,0.215c0.135,0,0.264-0.053,0.389-0.161
			c0.126-0.107,0.23-0.286,0.313-0.536c0.082-0.249,0.123-0.48,0.123-0.693c0-0.249-0.054-0.439-0.162-0.572
			c-0.107-0.133-0.245-0.199-0.412-0.199c-0.156,0-0.297,0.062-0.426,0.184c-0.128,0.122-0.227,0.302-0.297,0.539
			S144.85,36.839,144.85,37.017z"/>
		<path d="M148.465,36.051l-0.797-0.074c0.09-0.297,0.249-0.529,0.477-0.696c0.227-0.167,0.526-0.251,0.9-0.251
			c0.389,0,0.676,0.086,0.862,0.259c0.186,0.173,0.278,0.383,0.278,0.632c0,0.1-0.008,0.207-0.023,0.319
			c-0.017,0.112-0.072,0.409-0.17,0.89c-0.08,0.397-0.119,0.676-0.119,0.834c0,0.143,0.022,0.3,0.068,0.473h-0.795
			c-0.031-0.121-0.052-0.246-0.059-0.375c-0.12,0.146-0.258,0.258-0.413,0.336s-0.312,0.117-0.47,0.117
			c-0.25,0-0.457-0.09-0.621-0.271c-0.162-0.181-0.244-0.413-0.244-0.697c0-0.317,0.09-0.571,0.27-0.761
			c0.179-0.19,0.499-0.306,0.96-0.346c0.39-0.035,0.649-0.078,0.78-0.128c0.033-0.126,0.051-0.226,0.051-0.301
			c0-0.097-0.035-0.177-0.105-0.241s-0.174-0.098-0.313-0.098c-0.146,0-0.262,0.033-0.346,0.1
			C148.552,35.837,148.494,35.93,148.465,36.051z M149.241,36.885c-0.05,0.015-0.114,0.028-0.196,0.041
			c-0.41,0.055-0.678,0.134-0.803,0.238c-0.09,0.074-0.134,0.176-0.134,0.304c0,0.104,0.034,0.192,0.103,0.265
			s0.158,0.108,0.27,0.108c0.124,0,0.24-0.033,0.35-0.099c0.109-0.066,0.19-0.15,0.244-0.254c0.055-0.104,0.103-0.266,0.145-0.484
			L149.241,36.885z"/>
		<path d="M151.424,33.842h0.822l-0.137,0.718c-0.077,0.416-0.202,0.71-0.373,0.882c-0.172,0.173-0.395,0.262-0.668,0.269
			l0.08-0.417c0.137-0.033,0.242-0.094,0.315-0.18c0.074-0.087,0.13-0.221,0.168-0.4h-0.376L151.424,33.842z M152.796,33.842h0.825
			l-0.137,0.718c-0.08,0.416-0.205,0.71-0.377,0.882c-0.172,0.173-0.393,0.262-0.664,0.269l0.076-0.417
			c0.137-0.033,0.242-0.094,0.317-0.18c0.075-0.087,0.132-0.221,0.169-0.4h-0.375L152.796,33.842z"/>
	</g>
	<g>
		<g enable-background="new    ">
			<path d="M64.71,16.769v-4.594h3.481v0.777h-2.456v1.087h2.12v0.777h-2.12v1.952H64.71z"/>
			<path d="M68.829,14.5c0-0.468,0.078-0.861,0.232-1.178c0.115-0.234,0.273-0.444,0.473-0.63c0.2-0.186,0.418-0.324,0.656-0.414
				c0.316-0.121,0.681-0.182,1.095-0.182c0.748,0,1.347,0.21,1.796,0.63c0.449,0.42,0.673,1.004,0.673,1.752
				c0,0.742-0.223,1.322-0.668,1.741s-1.042,0.628-1.787,0.628c-0.755,0-1.355-0.208-1.801-0.625
				C69.052,15.806,68.829,15.231,68.829,14.5z M69.885,14.469c0,0.521,0.133,0.915,0.398,1.183c0.265,0.269,0.603,0.403,1.011,0.403
				s0.744-0.133,1.006-0.399c0.262-0.267,0.393-0.666,0.393-1.199c0-0.526-0.128-0.919-0.383-1.178
				c-0.255-0.259-0.594-0.389-1.017-0.389c-0.423,0-0.763,0.131-1.022,0.393C70.015,13.545,69.885,13.94,69.885,14.469z"/>
			<path d="M74.564,16.769v-4.594h0.998l2.078,3.068v-3.068h0.953v4.594h-1.029l-2.047-2.996v2.996H74.564z"/>
			<path d="M79.674,12.175h1.873c0.423,0,0.745,0.029,0.967,0.087c0.298,0.08,0.553,0.221,0.766,0.423
				c0.212,0.203,0.373,0.451,0.484,0.744s0.166,0.655,0.166,1.086c0,0.378-0.052,0.704-0.155,0.978
				c-0.128,0.334-0.309,0.605-0.544,0.812c-0.178,0.157-0.418,0.279-0.721,0.367c-0.227,0.065-0.529,0.097-0.907,0.097h-1.929
				V12.175z M80.699,12.952v3.043h0.765c0.286,0,0.493-0.015,0.62-0.044c0.166-0.038,0.305-0.101,0.414-0.191
				s0.199-0.238,0.268-0.444c0.07-0.206,0.104-0.486,0.104-0.841c0-0.355-0.034-0.627-0.104-0.818
				c-0.068-0.19-0.166-0.338-0.291-0.445c-0.124-0.106-0.282-0.179-0.474-0.216c-0.144-0.029-0.424-0.044-0.842-0.044H80.699z"/>
			<path d="M84.592,14.5c0-0.468,0.077-0.861,0.232-1.178c0.115-0.234,0.272-0.444,0.473-0.63c0.199-0.186,0.418-0.324,0.656-0.414
				c0.316-0.121,0.681-0.182,1.094-0.182c0.748,0,1.348,0.21,1.797,0.63c0.448,0.42,0.673,1.004,0.673,1.752
				c0,0.742-0.223,1.322-0.669,1.741c-0.445,0.419-1.041,0.628-1.787,0.628c-0.754,0-1.355-0.208-1.801-0.625
				C84.814,15.806,84.592,15.231,84.592,14.5z M85.648,14.469c0,0.521,0.133,0.915,0.398,1.183c0.265,0.269,0.602,0.403,1.011,0.403
				s0.744-0.133,1.007-0.399c0.262-0.267,0.393-0.666,0.393-1.199c0-0.526-0.128-0.919-0.383-1.178
				c-0.256-0.259-0.594-0.389-1.017-0.389s-0.763,0.131-1.022,0.393C85.777,13.545,85.648,13.94,85.648,14.469z"/>
			<path d="M92.287,16.769v-4.594h3.766v0.777h-2.74v1.019h2.549v0.774h-2.549v1.25h2.837v0.774H92.287z"/>
			<path d="M97.012,12.175h1.025v2.488c0,0.395,0.013,0.651,0.038,0.768c0.044,0.188,0.148,0.339,0.313,0.453
				s0.391,0.171,0.678,0.171c0.291,0,0.51-0.054,0.658-0.162c0.147-0.107,0.236-0.24,0.266-0.396
				c0.031-0.156,0.045-0.417,0.045-0.78v-2.541h1.025v2.413c0,0.552-0.027,0.941-0.082,1.169c-0.057,0.228-0.158,0.42-0.307,0.577
				c-0.149,0.157-0.349,0.282-0.598,0.375c-0.25,0.093-0.575,0.139-0.977,0.139c-0.485,0-0.854-0.05-1.104-0.152
				c-0.25-0.101-0.449-0.233-0.594-0.395c-0.146-0.162-0.242-0.332-0.288-0.509c-0.067-0.263-0.101-0.652-0.101-1.166V12.175z"/>
			<path d="M102.145,16.769v-4.594h2.158c0.543,0,0.938,0.041,1.184,0.124c0.245,0.083,0.441,0.229,0.59,0.44
				s0.222,0.452,0.222,0.724c0,0.345-0.112,0.629-0.336,0.854s-0.559,0.366-1.005,0.425c0.223,0.117,0.405,0.246,0.549,0.385
				c0.145,0.14,0.34,0.389,0.584,0.746l0.62,0.896h-1.226l-0.742-1c-0.263-0.357-0.443-0.583-0.539-0.675
				c-0.098-0.093-0.201-0.157-0.309-0.191c-0.109-0.034-0.281-0.052-0.517-0.052h-0.208v1.918H102.145z M103.17,14.118h0.759
				c0.491,0,0.799-0.019,0.921-0.057c0.123-0.038,0.219-0.102,0.288-0.194c0.069-0.092,0.104-0.207,0.104-0.345
				c0-0.154-0.047-0.279-0.138-0.375c-0.091-0.095-0.22-0.155-0.386-0.18c-0.084-0.01-0.332-0.016-0.748-0.016h-0.801V14.118z"/>
			<path d="M107.057,14.5c0-0.468,0.078-0.861,0.232-1.178c0.115-0.234,0.273-0.444,0.473-0.63c0.199-0.186,0.418-0.324,0.656-0.414
				c0.316-0.121,0.682-0.182,1.095-0.182c0.748,0,1.347,0.21,1.796,0.63s0.674,1.004,0.674,1.752c0,0.742-0.223,1.322-0.669,1.741
				s-1.042,0.628-1.787,0.628c-0.755,0-1.355-0.208-1.802-0.625C107.279,15.806,107.057,15.231,107.057,14.5z M108.113,14.469
				c0,0.521,0.133,0.915,0.398,1.183s0.603,0.403,1.012,0.403c0.408,0,0.744-0.133,1.006-0.399c0.262-0.267,0.393-0.666,0.393-1.199
				c0-0.526-0.127-0.919-0.383-1.178c-0.255-0.259-0.594-0.389-1.016-0.389c-0.424,0-0.764,0.131-1.022,0.393
				S108.113,13.94,108.113,14.469z"/>
			<path d="M112.782,16.769v-4.594h1.646c0.623,0,1.029,0.023,1.219,0.069c0.291,0.069,0.535,0.219,0.73,0.45
				c0.197,0.231,0.295,0.529,0.295,0.895c0,0.282-0.057,0.519-0.17,0.711s-0.257,0.343-0.432,0.453
				c-0.174,0.11-0.352,0.183-0.531,0.218c-0.244,0.044-0.6,0.066-1.063,0.066h-0.669v1.733H112.782z M113.808,12.952v1.304h0.562
				c0.403,0,0.674-0.024,0.811-0.072c0.136-0.048,0.242-0.123,0.32-0.226c0.076-0.102,0.115-0.221,0.115-0.357
				c0-0.167-0.055-0.305-0.162-0.414c-0.109-0.109-0.246-0.177-0.412-0.204c-0.123-0.021-0.369-0.031-0.738-0.031H113.808z"/>
			<path d="M117.514,16.769v-4.594h3.765v0.777h-2.739v1.019h2.549v0.774h-2.549v1.25h2.836v0.774H117.514z"/>
			<path d="M122.037,14.5c0-0.468,0.077-0.861,0.232-1.178c0.115-0.234,0.272-0.444,0.473-0.63c0.199-0.186,0.418-0.324,0.656-0.414
				c0.316-0.121,0.681-0.182,1.094-0.182c0.748,0,1.348,0.21,1.797,0.63c0.448,0.42,0.673,1.004,0.673,1.752
				c0,0.742-0.223,1.322-0.669,1.741c-0.445,0.419-1.041,0.628-1.787,0.628c-0.754,0-1.355-0.208-1.801-0.625
				C122.26,15.806,122.037,15.231,122.037,14.5z M123.094,14.469c0,0.521,0.133,0.915,0.398,1.183
				c0.265,0.269,0.602,0.403,1.011,0.403s0.744-0.133,1.007-0.399c0.262-0.267,0.393-0.666,0.393-1.199
				c0-0.526-0.128-0.919-0.383-1.178c-0.256-0.259-0.594-0.389-1.017-0.389s-0.763,0.131-1.022,0.393
				C123.223,13.545,123.094,13.94,123.094,14.469z"/>
			<path d="M129.729,12.175h1.874c0.422,0,0.744,0.029,0.966,0.087c0.298,0.08,0.554,0.221,0.766,0.423s0.374,0.451,0.485,0.744
				c0.11,0.293,0.166,0.655,0.166,1.086c0,0.378-0.053,0.704-0.156,0.978c-0.127,0.334-0.309,0.605-0.543,0.812
				c-0.178,0.157-0.418,0.279-0.721,0.367c-0.227,0.065-0.529,0.097-0.908,0.097h-1.929V12.175z M130.755,12.952v3.043h0.765
				c0.287,0,0.494-0.015,0.621-0.044c0.166-0.038,0.304-0.101,0.414-0.191c0.109-0.09,0.198-0.238,0.268-0.444
				c0.069-0.206,0.104-0.486,0.104-0.841c0-0.355-0.034-0.627-0.104-0.818c-0.069-0.19-0.166-0.338-0.291-0.445
				s-0.283-0.179-0.475-0.216c-0.143-0.029-0.424-0.044-0.842-0.044H130.755z"/>
			<path d="M134.855,16.769v-4.594h3.766v0.777h-2.74v1.019h2.549v0.774h-2.549v1.25h2.836v0.774H134.855z"/>
		</g>
		<g enable-background="new    ">
			<path d="M64.7,18.95h1.874c0.423,0,0.745,0.029,0.966,0.087c0.298,0.08,0.553,0.221,0.766,0.423s0.374,0.451,0.485,0.744
				s0.167,0.655,0.167,1.086c0,0.377-0.052,0.703-0.156,0.977c-0.127,0.335-0.309,0.605-0.544,0.813
				c-0.178,0.156-0.418,0.278-0.721,0.366c-0.226,0.065-0.529,0.097-0.907,0.097H64.7V18.95z M65.726,19.727v3.043h0.765
				c0.286,0,0.493-0.015,0.62-0.044c0.166-0.038,0.304-0.101,0.414-0.19c0.109-0.09,0.199-0.238,0.268-0.444
				s0.104-0.485,0.104-0.841s-0.035-0.628-0.104-0.818c-0.069-0.19-0.166-0.338-0.291-0.445c-0.125-0.106-0.283-0.179-0.474-0.216
				c-0.144-0.029-0.424-0.044-0.842-0.044H65.726z"/>
			<path d="M69.826,23.543V18.95h3.765v0.777h-2.74v1.019H73.4v0.774h-2.549v1.25h2.836v0.773H69.826z"/>
			<path d="M74.298,22.049l0.998-0.088c0.06,0.303,0.182,0.525,0.365,0.668c0.184,0.142,0.431,0.213,0.743,0.213
				c0.33,0,0.579-0.063,0.746-0.189c0.167-0.127,0.251-0.274,0.251-0.443c0-0.109-0.035-0.201-0.106-0.277
				c-0.07-0.076-0.193-0.143-0.369-0.199c-0.12-0.037-0.394-0.104-0.821-0.201c-0.55-0.123-0.936-0.274-1.157-0.454
				c-0.312-0.253-0.467-0.561-0.467-0.924c0-0.234,0.073-0.453,0.22-0.656c0.147-0.204,0.358-0.359,0.634-0.465
				c0.276-0.107,0.609-0.16,1-0.16c0.637,0,1.117,0.126,1.439,0.379c0.322,0.252,0.491,0.59,0.507,1.012l-1.025,0.041
				c-0.044-0.236-0.138-0.406-0.282-0.509c-0.145-0.104-0.361-0.155-0.649-0.155c-0.298,0-0.531,0.055-0.7,0.166
				c-0.109,0.071-0.163,0.166-0.163,0.285c0,0.108,0.051,0.202,0.152,0.279c0.129,0.098,0.443,0.201,0.942,0.307
				c0.499,0.107,0.868,0.217,1.106,0.331c0.239,0.114,0.426,0.27,0.561,0.467c0.135,0.197,0.203,0.441,0.203,0.731
				c0,0.264-0.081,0.51-0.242,0.74c-0.162,0.229-0.39,0.4-0.686,0.512c-0.295,0.111-0.664,0.168-1.105,0.168
				c-0.642,0-1.135-0.135-1.479-0.402C74.57,22.953,74.365,22.563,74.298,22.049z"/>
			<path d="M79.289,23.543V18.95h3.766v0.777h-2.74v1.019h2.549v0.774h-2.549v1.25h2.836v0.773H79.289z"/>
			<path d="M84.03,23.543V18.95h0.997l2.078,3.068V18.95h0.953v4.593h-1.029l-2.047-2.995v2.995H84.03z"/>
			<path d="M90.438,23.543l-1.815-4.593h1.112l1.285,3.4l1.243-3.4h1.088l-1.818,4.593H90.438z"/>
			<path d="M93.666,21.275c0-0.469,0.078-0.861,0.232-1.179c0.115-0.234,0.273-0.444,0.473-0.63
				c0.199-0.186,0.418-0.324,0.656-0.414c0.316-0.121,0.682-0.182,1.095-0.182c0.748,0,1.347,0.21,1.796,0.63
				s0.674,1.004,0.674,1.752c0,0.741-0.223,1.321-0.669,1.741c-0.446,0.418-1.042,0.627-1.787,0.627
				c-0.755,0-1.355-0.207-1.802-0.625C93.889,22.58,93.666,22.006,93.666,21.275z M94.723,21.243c0,0.521,0.133,0.915,0.398,1.183
				c0.266,0.27,0.603,0.403,1.012,0.403c0.408,0,0.744-0.134,1.006-0.399c0.262-0.267,0.393-0.666,0.393-1.199
				c0-0.525-0.127-0.919-0.383-1.178c-0.255-0.259-0.594-0.389-1.016-0.389c-0.424,0-0.764,0.131-1.022,0.393
				S94.723,20.715,94.723,21.243z"/>
			<path d="M99.42,23.543v-4.556h1.024v3.782h2.55v0.773H99.42z"/>
			<path d="M104.494,23.543l-1.815-4.593h1.112l1.285,3.4l1.242-3.4h1.088l-1.818,4.593H104.494z"/>
			<path d="M107.93,23.543V18.95h3.766v0.777h-2.74v1.019h2.549v0.774h-2.549v1.25h2.836v0.773H107.93z"/>
			<path d="M112.646,23.543V18.95h1.535l0.921,3.133l0.911-3.133h1.537v4.593h-0.952v-3.616l-1.008,3.616h-0.987l-1.004-3.616v3.616
				H112.646z"/>
			<path d="M118.57,23.543V18.95h3.765v0.777h-2.739v1.019h2.549v0.774h-2.549v1.25h2.836v0.773H118.57z"/>
			<path d="M123.311,23.543V18.95h0.998l2.078,3.068V18.95h0.953v4.593h-1.029l-2.047-2.995v2.995H123.311z"/>
			<path d="M129.566,23.543v-3.816h-1.506V18.95h4.035v0.777h-1.504v3.816H129.566z"/>
			<path d="M132.42,21.275c0-0.469,0.078-0.861,0.232-1.179c0.115-0.234,0.273-0.444,0.473-0.63c0.2-0.186,0.419-0.324,0.656-0.414
				c0.316-0.121,0.682-0.182,1.096-0.182c0.748,0,1.346,0.21,1.795,0.63s0.674,1.004,0.674,1.752c0,0.741-0.223,1.321-0.668,1.741
				c-0.446,0.418-1.042,0.627-1.787,0.627c-0.756,0-1.355-0.207-1.802-0.625C132.644,22.58,132.42,22.006,132.42,21.275z
				 M133.477,21.243c0,0.521,0.133,0.915,0.398,1.183c0.266,0.27,0.604,0.403,1.012,0.403s0.744-0.134,1.006-0.399
				c0.262-0.267,0.394-0.666,0.394-1.199c0-0.525-0.128-0.919-0.383-1.178c-0.255-0.259-0.595-0.389-1.017-0.389
				c-0.423,0-0.764,0.131-1.021,0.393C133.606,20.319,133.477,20.715,133.477,21.243z"/>
		</g>
		<g enable-background="new    ">
			<path d="M64.707,30.316v-4.594h2.158c0.543,0,0.937,0.041,1.183,0.124c0.246,0.083,0.442,0.229,0.59,0.44
				s0.222,0.452,0.222,0.724c0,0.345-0.112,0.63-0.336,0.854s-0.559,0.365-1.004,0.424c0.222,0.117,0.405,0.246,0.549,0.386
				c0.145,0.14,0.339,0.389,0.584,0.746l0.62,0.896h-1.226l-0.741-0.999c-0.263-0.357-0.443-0.583-0.54-0.675
				c-0.097-0.094-0.2-0.157-0.309-0.191c-0.108-0.035-0.28-0.053-0.516-0.053h-0.208v1.918H64.707z M65.732,27.666h0.758
				c0.492,0,0.799-0.02,0.921-0.057s0.218-0.102,0.288-0.194c0.069-0.092,0.104-0.206,0.104-0.345c0-0.154-0.046-0.279-0.137-0.375
				c-0.091-0.094-0.22-0.154-0.386-0.18c-0.083-0.01-0.332-0.016-0.748-0.016h-0.8V27.666z"/>
			<path d="M69.826,30.316v-4.594h3.765V26.5h-2.74v1.019H73.4v0.774h-2.549v1.25h2.836v0.773H69.826z"/>
			<path d="M74.042,30.316l1.735-2.396l-1.573-2.197h1.199l1.018,1.477l0.998-1.477h1.188l-1.579,2.231l1.734,2.362h-1.236
				L76.4,28.729l-1.129,1.588H74.042z"/>
			<path d="M79.258,30.316v-4.594h1.025v4.594H79.258z"/>
			<path d="M81.052,28.049c0-0.469,0.077-0.861,0.232-1.179c0.115-0.234,0.272-0.444,0.473-0.63s0.419-0.324,0.656-0.414
				c0.316-0.121,0.681-0.182,1.095-0.182c0.748,0,1.347,0.21,1.796,0.63c0.448,0.42,0.673,1.004,0.673,1.752
				c0,0.741-0.223,1.321-0.668,1.741c-0.445,0.418-1.041,0.627-1.787,0.627c-0.755,0-1.355-0.207-1.801-0.625
				C81.275,29.354,81.052,28.779,81.052,28.049z M82.108,28.017c0,0.521,0.133,0.915,0.398,1.183
				c0.265,0.27,0.603,0.403,1.011,0.403c0.409,0,0.744-0.134,1.007-0.399c0.262-0.267,0.394-0.666,0.394-1.199
				c0-0.525-0.129-0.919-0.383-1.178c-0.256-0.26-0.595-0.389-1.018-0.389c-0.422,0-0.763,0.131-1.021,0.393
				C82.238,27.093,82.108,27.488,82.108,28.017z"/>
			<path d="M86.787,30.316v-4.594h0.998l2.078,3.068v-3.068h0.953v4.594h-1.029l-2.047-2.995v2.995H86.787z"/>
			<path d="M96.479,30.316h-1.115l-0.443-1.043h-2.029l-0.42,1.043h-1.087l1.978-4.594h1.084L96.479,30.316z M94.592,28.5
				l-0.7-1.705L93.205,28.5H94.592z"/>
			<path d="M97.051,30.316v-4.556h1.024v3.782h2.55v0.773H97.051z"/>
		</g>
	</g>
	<g enable-background="new    ">
		<path d="M64.726,1.967h1.084v2.908c0,0.461,0.014,0.761,0.041,0.897c0.046,0.22,0.157,0.396,0.332,0.529
			c0.174,0.133,0.413,0.199,0.716,0.199c0.308,0,0.54-0.063,0.696-0.188s0.25-0.28,0.282-0.463c0.032-0.184,0.048-0.487,0.048-0.912
			V1.967h1.084v2.82c0,0.645-0.029,1.1-0.088,1.366c-0.059,0.266-0.167,0.49-0.324,0.674c-0.157,0.183-0.368,0.329-0.632,0.438
			s-0.607,0.163-1.032,0.163c-0.513,0-0.902-0.06-1.167-0.178c-0.265-0.118-0.474-0.272-0.628-0.462
			c-0.153-0.188-0.255-0.387-0.304-0.595c-0.071-0.308-0.106-0.762-0.106-1.362V1.967z"/>
		<path d="M70.16,7.336V1.967h1.055l2.197,3.586V1.967h1.007v5.369h-1.087l-2.165-3.501v3.501H70.16z"/>
		<path d="M75.533,7.336V1.967h1.084v5.369H75.533z"/>
		<path d="M77.43,4.685c0-0.547,0.082-1.006,0.245-1.377c0.122-0.273,0.289-0.519,0.5-0.736c0.211-0.217,0.442-0.378,0.694-0.483
			c0.334-0.142,0.72-0.212,1.156-0.212c0.791,0,1.424,0.245,1.899,0.735c0.475,0.491,0.712,1.174,0.712,2.048
			c0,0.866-0.235,1.545-0.707,2.034c-0.471,0.489-1.101,0.734-1.889,0.734c-0.799,0-1.434-0.244-1.905-0.73
			C77.665,6.21,77.43,5.54,77.43,4.685z M78.547,4.649c0,0.607,0.14,1.068,0.421,1.382c0.28,0.313,0.637,0.471,1.069,0.471
			c0.432,0,0.787-0.155,1.063-0.467c0.277-0.312,0.416-0.778,0.416-1.401c0-0.615-0.136-1.073-0.405-1.377
			c-0.27-0.302-0.628-0.453-1.074-0.453c-0.447,0-0.807,0.152-1.08,0.459S78.547,4.031,78.547,4.649z M79.367,1.661l0.505-1.096
			h1.153l-1.007,1.096H79.367z"/>
		<path d="M83.494,7.336V1.967h1.055l2.197,3.586V1.967h1.007v5.369h-1.087l-2.165-3.501v3.501H83.494z"/>
		<path d="M90.983,7.336V1.967h3.98v0.908h-2.896v1.19h2.695v0.905h-2.695v1.461h2.999v0.904H90.983z"/>
		<path d="M95.979,1.967h1.084v2.908c0,0.461,0.014,0.761,0.04,0.897c0.046,0.22,0.157,0.396,0.331,0.529
			c0.175,0.133,0.414,0.199,0.717,0.199c0.307,0,0.539-0.063,0.695-0.188s0.25-0.28,0.282-0.463
			c0.031-0.184,0.048-0.487,0.048-0.912V1.967h1.084v2.82c0,0.645-0.029,1.1-0.088,1.366c-0.059,0.266-0.167,0.49-0.324,0.674
			c-0.158,0.183-0.368,0.329-0.632,0.438s-0.608,0.163-1.033,0.163c-0.513,0-0.901-0.06-1.166-0.178s-0.475-0.272-0.628-0.462
			c-0.154-0.188-0.256-0.387-0.305-0.595c-0.07-0.308-0.105-0.762-0.105-1.362V1.967z"/>
		<path d="M101.406,7.336V1.967h2.281c0.573,0,0.99,0.049,1.25,0.146c0.26,0.096,0.469,0.268,0.625,0.515
			c0.156,0.246,0.234,0.528,0.234,0.846c0,0.402-0.119,0.735-0.355,0.998c-0.236,0.262-0.591,0.428-1.063,0.496
			c0.234,0.137,0.428,0.287,0.581,0.45c0.152,0.164,0.358,0.454,0.617,0.872l0.655,1.047h-1.297l-0.783-1.168
			c-0.278-0.418-0.469-0.681-0.571-0.789c-0.103-0.109-0.212-0.184-0.326-0.224s-0.296-0.061-0.546-0.061h-0.219v2.241H101.406z
			 M102.49,4.239h0.802c0.52,0,0.845-0.022,0.974-0.066s0.23-0.119,0.305-0.227c0.072-0.107,0.109-0.242,0.109-0.403
			c0-0.181-0.049-0.326-0.145-0.438c-0.097-0.111-0.232-0.182-0.408-0.211c-0.088-0.012-0.352-0.019-0.791-0.019h-0.846V4.239z"/>
		<path d="M106.599,4.685c0-0.547,0.081-1.006,0.245-1.377c0.122-0.273,0.289-0.519,0.5-0.736c0.211-0.217,0.442-0.378,0.693-0.483
			c0.335-0.142,0.721-0.212,1.158-0.212c0.791,0,1.424,0.245,1.898,0.735c0.475,0.491,0.712,1.174,0.712,2.048
			c0,0.866-0.235,1.545-0.706,2.034c-0.472,0.489-1.102,0.734-1.891,0.734c-0.798,0-1.433-0.244-1.904-0.73
			C106.834,6.21,106.599,5.54,106.599,4.685z M107.715,4.649c0,0.607,0.141,1.068,0.422,1.382c0.28,0.313,0.637,0.471,1.069,0.471
			c0.432,0,0.786-0.155,1.063-0.467s0.416-0.778,0.416-1.401c0-0.615-0.135-1.073-0.404-1.377c-0.271-0.302-0.629-0.453-1.075-0.453
			c-0.447,0-0.808,0.152-1.081,0.459S107.715,4.031,107.715,4.649z"/>
		<path d="M112.652,7.336V1.967h1.739c0.659,0,1.089,0.027,1.289,0.081c0.308,0.081,0.565,0.256,0.772,0.525
			s0.312,0.618,0.312,1.046c0,0.329-0.06,0.606-0.18,0.831s-0.271,0.401-0.456,0.529c-0.184,0.128-0.371,0.213-0.562,0.255
			c-0.259,0.051-0.634,0.076-1.124,0.076h-0.707v2.025H112.652z M113.736,2.875v1.523h0.593c0.427,0,0.713-0.027,0.857-0.084
			c0.144-0.056,0.257-0.144,0.339-0.264c0.082-0.119,0.122-0.259,0.122-0.417c0-0.195-0.058-0.356-0.172-0.483
			s-0.26-0.206-0.436-0.238c-0.13-0.024-0.39-0.037-0.78-0.037H113.736z"/>
		<path d="M117.654,7.336V1.967h3.98v0.908h-2.896v1.19h2.695v0.905h-2.695v1.461h2.999v0.904H117.654z"/>
		<path d="M127.498,7.336h-1.179l-0.469-1.22h-2.146l-0.442,1.22h-1.15l2.091-5.369h1.146L127.498,7.336z M125.502,5.212
			l-0.739-1.992l-0.726,1.992H125.502z"/>
	</g>
</g>
<g>
	<rect y="0.135" fill="#004C99" width="59.5" height="40.011"/>
	<polygon fill="#FFD300" points="18.373,11.248 18.872,12.783 20.486,12.783 19.181,13.732 19.68,15.267 18.373,14.319 
		17.067,15.267 17.566,13.732 16.26,12.783 17.875,12.783 	"/>
	<polygon fill="#FFD300" points="23.041,6.498 23.54,8.034 25.154,8.034 23.848,8.982 24.347,10.517 23.041,9.568 21.734,10.517 
		22.234,8.982 20.928,8.034 22.541,8.034 	"/>
	<polygon fill="#FFD300" points="29.69,4.706 30.188,6.242 31.804,6.242 30.497,7.19 30.995,8.726 29.69,7.777 28.384,8.726 
		28.882,7.19 27.577,6.242 29.19,6.242 	"/>
	<polygon fill="#FFD300" points="36.263,6.506 36.761,8.042 38.376,8.042 37.069,8.991 37.569,10.526 36.263,9.577 34.956,10.526 
		35.456,8.991 34.149,8.042 35.764,8.042 	"/>
	<polygon fill="#FFD300" points="41.104,11.347 41.603,12.882 43.217,12.882 41.911,13.831 42.41,15.367 41.104,14.418 
		39.798,15.367 40.297,13.831 38.991,12.882 40.605,12.882 	"/>
	<polygon fill="#FFD300" points="42.896,17.994 43.396,19.53 45.01,19.53 43.704,20.478 44.202,22.014 42.896,21.064 41.591,22.014 
		42.089,20.478 40.782,19.53 42.397,19.53 	"/>
	<polygon fill="#FFD300" points="41.097,24.664 41.596,26.199 43.21,26.199 41.904,27.148 42.403,28.686 41.097,27.734 
		39.79,28.686 40.289,27.148 38.983,26.199 40.598,26.199 	"/>
	<polygon fill="#FFD300" points="36.257,29.473 36.756,31.008 38.37,31.008 37.063,31.954 37.563,33.494 36.257,32.544 
		34.95,33.494 35.45,31.954 34.144,31.008 35.758,31.008 	"/>
	<polygon fill="#FFD300" points="29.706,31.23 30.204,32.768 31.819,32.768 30.513,33.718 31.012,35.253 29.706,34.305 
		28.399,35.253 28.899,33.718 27.593,32.768 29.206,32.768 	"/>
	<polygon fill="#FFD300" points="23.057,29.438 23.556,30.973 25.171,30.973 23.864,31.921 24.363,33.457 23.057,32.509 
		21.751,33.457 22.25,31.921 20.943,30.973 22.559,30.973 	"/>
	<polygon fill="#FFD300" points="18.314,24.631 18.813,26.167 20.428,26.167 19.121,27.115 19.621,28.65 18.314,27.7 17.008,28.65 
		17.508,27.115 16.201,26.167 17.814,26.167 	"/>
	<polygon fill="#FFD300" points="16.498,17.872 17.002,19.423 18.633,19.423 17.313,20.38 17.816,21.932 16.498,20.973 
		15.179,21.932 15.683,20.38 14.363,19.423 15.994,19.423 	"/>
</g>
<g id="Capa_2">
</g>
</svg>
