<?xml version="1.0" encoding="utf-8"?>
<!-- Generator: Adobe Illustrator 14.0.0, SVG Export Plug-In . SVG Version: 6.00 Build 43363)  -->
<!DOCTYPE svg PUBLIC "-//W3C//DTD SVG 1.1//EN" "http://www.w3.org/Graphics/SVG/1.1/DTD/svg11.dtd">
<svg version="1.1" id="Capa_1" xmlns="http://www.w3.org/2000/svg" xmlns:xlink="http://www.w3.org/1999/xlink" x="0px" y="0px"
	 width="92px" height="31px" viewBox="0 0 92 31" enable-background="new 0 0 92 31" xml:space="preserve">
<g>
	<g>
		<path fill="#FFFFFF" d="M50.991,18.775h2.229V0.7h-2.229V18.775z M57.419,18.775h2.229V6.468h-2.229V18.775z M68.634,17.039
			c-2.727,0-3.512-1.904-3.512-4.308c0-2.792,1.212-4.627,3.685-4.627c0.965,0,1.88,0.225,2.65,0.517l0.249-1.956
			c-0.871-0.245-1.833-0.395-2.802-0.395c-4.108,0-6.137,2.8-6.137,6.761c0,4.533,2.449,5.917,5.392,5.917
			c1.438,0,2.751-0.32,3.572-0.646l-0.177-1.932C70.767,16.79,69.672,17.039,68.634,17.039z M74.625,18.775h2.226V6.468h-2.226
			V18.775z M46.268,10.715c0.861-0.394,1.388-1.187,1.388-2.055c0-0.663-0.662-1.672-1.763-2.033
			c-0.969-0.315-3.416-0.289-3.416-0.289h-0.938c-1.735,0-2.576-0.745-2.576-1.936c0-0.043,0-0.084,0.004-0.132
			c0,0-1.954,1.623-1.987,1.756c0.509,1.391,1.867,2.17,3.938,2.17h2.279c1.483,0,2.105,0.263,2.105,0.961
			c0,0.398-0.247,0.793-0.795,1.018c-0.419-0.074-1.044-0.152-1.557-0.152c-3.52,0-5.346,1.933-5.346,4.578
			c0,1.043,0.394,1.91,1.034,2.406h-2.08v1.758h4.185c0.646,0.149,1.215,0.218,1.933,0.218c3.443,0,5.396-2.153,5.396-4.748
			C48.072,12.675,47.481,11.411,46.268,10.715z M42.779,17.329c-1.887,0-2.976-1.07-2.976-2.878c0-1.802,1.19-2.817,3.046-2.817
			c1.935,0,3.047,0.989,3.047,2.817C45.896,16.113,44.736,17.329,42.779,17.329z M89.416,10.715
			c0.866-0.394,1.386-1.187,1.386-2.055c0-0.663-0.668-1.672-1.765-2.033c-0.97-0.315-3.41-0.289-3.41-0.289h-0.944
			c-1.733,0-2.578-0.745-2.578-1.936c0-0.043,0-0.084,0.009-0.132c0,0-1.95,1.623-1.984,1.756c0.5,1.391,1.864,2.17,3.937,2.17
			h2.277c1.483,0,2.105,0.263,2.105,0.961c0,0.398-0.251,0.793-0.795,1.018c-0.42-0.074-1.035-0.152-1.563-0.152
			c-3.514,0-5.34,1.933-5.34,4.578c0,1.043,0.395,1.91,1.035,2.406h-2.082v1.758h4.187c0.641,0.149,1.212,0.218,1.936,0.218
			c3.436,0,5.394-2.153,5.394-4.748C91.219,12.675,90.629,11.411,89.416,10.715z M85.923,17.329c-1.889,0-2.975-1.07-2.975-2.878
			c0-1.802,1.186-2.817,3.045-2.817c1.933,0,3.05,0.989,3.05,2.817C89.043,16.113,87.873,17.329,85.923,17.329z M27.65,6.248
			c-3.442,0-5.395,2.15-5.395,4.751c0,1.558,0.589,2.822,1.802,3.516c-0.864,0.397-1.384,1.193-1.384,2.058
			c0,0.658,0.309,1.205,0.814,1.573c0.215,0.124,0.54,0.299,0.951,0.46c-1.249,2.033-2.515,3.677-3.771,4.997v0.034
			c-0.678,0.693-1.35,1.294-2.019,1.822c-0.156,0.13-0.308,0.242-0.471,0.359c-0.01,0.008-0.022,0.02-0.035,0.034
			c-0.613,0.441-1.22,0.816-1.813,1.13c-0.046,0.027-0.098,0.045-0.143,0.068c-0.089,0.05-0.176,0.09-0.263,0.132
			c-1.68,0.81-3.295,1.139-4.76,1.099v-0.006c-4.371-0.031-7.755-1.17-10.385-2.987v2.632c2.744,1.457,6.09,2.343,10.193,2.369
			l-0.003,0.006c4.308,0.13,9.688-2.474,14.844-10.269c0.494-0.68,0.96-1.124,2.035-1.124h0.939c1.735,0,2.576,0.733,2.576,1.928
			c0,0.043,0,0.091-0.003,0.131c0,0,1.944-1.622,1.986-1.757c-0.507-1.391-1.87-2.163-3.94-2.163h-2.282
			c-1.482,0-2.098-0.277-2.098-0.965c0-0.398,0.244-0.796,0.79-1.019c0.421,0.077,1.037,0.151,1.559,0.151
			c3.516,0,5.352-1.931,5.352-4.576c0-1.049-0.397-1.909-1.042-2.401h2.082V6.471h-4.188C28.932,6.322,28.37,6.248,27.65,6.248z
			 M30.525,10.775c0,1.809-1.188,2.825-3.046,2.825c-1.938,0-3.047-0.987-3.047-2.825c0-1.659,1.167-2.866,3.121-2.866
			C29.433,7.909,30.525,8.968,30.525,10.775z"/>
	</g>
</g>
</svg>
