<?xml version="1.0" encoding="utf-8"?>
<!-- Generator: Adobe Illustrator 14.0.0, SVG Export Plug-In . SVG Version: 6.00 Build 43363)  -->
<!DOCTYPE svg PUBLIC "-//W3C//DTD SVG 1.1//EN" "http://www.w3.org/Graphics/SVG/1.1/DTD/svg11.dtd">
<svg version="1.1" id="Layer_1" xmlns="http://www.w3.org/2000/svg" xmlns:xlink="http://www.w3.org/1999/xlink" x="0px" y="0px"
	 width="31px" height="31px" viewBox="0 0 31 31" enable-background="new 0 0 31 31" xml:space="preserve">
<g>
	<path fill="#FFFFFF" d="M15.473,0.5c4.195,0,7.77,1.465,10.713,4.393c1.41,1.41,2.482,3.023,3.215,4.836s1.1,3.736,1.1,5.772
		c0,2.053-0.363,3.975-1.085,5.77s-1.79,3.381-3.2,4.756c-1.465,1.445-3.123,2.555-4.982,3.32c-1.855,0.768-3.776,1.152-5.758,1.152
		c-1.982,0-3.881-0.379-5.693-1.139c-1.813-0.758-3.438-1.855-4.875-3.295c-1.438-1.438-2.531-3.059-3.281-4.861
		C0.874,19.4,0.5,17.5,0.5,15.5c0-1.982,0.379-3.889,1.138-5.721C2.398,7.95,3.5,6.311,4.947,4.866
		C7.801,1.957,11.311,0.5,15.473,0.5z M15.525,3.206c-3.43,0-6.313,1.199-8.652,3.59c-1.18,1.197-2.086,2.541-2.72,4.032
		c-0.636,1.491-0.951,3.049-0.951,4.675c0,1.605,0.315,3.156,0.951,4.644c0.635,1.494,1.54,2.826,2.72,3.994
		c1.18,1.17,2.51,2.063,3.991,2.678c1.481,0.617,3.036,0.924,4.661,0.924c1.604,0,3.162-0.311,4.674-0.936
		c1.511-0.625,2.869-1.527,4.085-2.705c2.34-2.285,3.508-5.152,3.508-8.599c0-1.66-0.302-3.232-0.909-4.714
		c-0.605-1.482-1.49-2.804-2.65-3.964C21.818,4.412,18.917,3.206,15.525,3.206z M15.337,13.01l-2.009,1.045
		c-0.214-0.445-0.479-0.76-0.79-0.938c-0.313-0.178-0.604-0.27-0.872-0.27c-1.338,0-2.008,0.885-2.008,2.652
		c0,0.802,0.169,1.445,0.509,1.927c0.339,0.482,0.841,0.725,1.499,0.725c0.878,0,1.492-0.43,1.85-1.285l1.849,0.938
		c-0.394,0.732-0.938,1.309-1.634,1.727c-0.694,0.422-1.465,0.631-2.305,0.631c-1.34,0-2.421-0.41-3.242-1.23
		c-0.82-0.822-1.23-1.965-1.23-3.429c0-1.428,0.415-2.561,1.246-3.4c0.83-0.84,1.88-1.26,3.146-1.26
		C13.203,10.84,14.534,11.565,15.337,13.01z M23.989,13.01l-1.981,1.045c-0.215-0.445-0.479-0.76-0.791-0.938
		c-0.313-0.178-0.613-0.27-0.896-0.27c-1.34,0-2.012,0.885-2.012,2.652c0,0.802,0.17,1.445,0.512,1.927
		c0.338,0.482,0.837,0.725,1.5,0.725c0.873,0,1.49-0.43,1.848-1.285l1.875,0.938c-0.41,0.732-0.964,1.309-1.658,1.727
		c-0.697,0.422-1.457,0.631-2.279,0.631c-1.356,0-2.441-0.41-3.25-1.23c-0.815-0.822-1.223-1.965-1.223-3.429
		c0-1.428,0.416-2.561,1.246-3.4c0.829-0.84,1.879-1.26,3.146-1.26C21.883,10.84,23.205,11.565,23.989,13.01z"/>
</g>
</svg>
