<?xml version="1.0" encoding="utf-8"?>
<!-- Generator: Adobe Illustrator 14.0.0, SVG Export Plug-In . SVG Version: 6.00 Build 43363)  -->
<!DOCTYPE svg PUBLIC "-//W3C//DTD SVG 1.1//EN" "http://www.w3.org/Graphics/SVG/1.1/DTD/svg11.dtd">
<svg version="1.1" id="Capa_1" xmlns="http://www.w3.org/2000/svg" xmlns:xlink="http://www.w3.org/1999/xlink" x="0px" y="0px"
	 width="170.402px" height="54.369px" viewBox="0 0 170.402 54.369" enable-background="new 0 0 170.402 54.369"
	 xml:space="preserve">
<g>
	<g>
		<path fill="#FFFFFF" d="M108.693,7.956c-0.486-0.048-1.047-0.073-1.678-0.073h-1.719v9.192c0,0.828,0.049,1.655,0.146,2.481
			c0.164,0.879,0.365,1.576,0.668,2.42h-3.938c0.303-0.847,0.506-1.546,0.672-2.427c0.098-0.825,0.143-1.649,0.143-2.475V7.883
			h-1.715c-0.633,0-1.193,0.025-1.68,0.073c-0.721,0.065-1.387,0.332-2.047,0.613V5.691h13.193v2.878
			C110.08,8.288,109.416,8.021,108.693,7.956L108.693,7.956z"/>
		<path fill="#FFFFFF" d="M95.195,10.593v8.55c0,0.339,0.023,0.773,0.072,1.308c0.059,0.593,0.168,0.972,0.377,1.526h-2.666
			c-0.332-0.688-0.818-1.4-1.264-2.021L84.34,9.825v7.252c0,0.829,0.047,1.653,0.145,2.481c0.166,0.877,0.369,1.578,0.672,2.419
			h-3.939c0.303-0.845,0.506-1.545,0.67-2.427c0.098-0.825,0.145-1.647,0.145-2.474v-8.55c0-0.341-0.023-0.775-0.072-1.31
			c-0.059-0.593-0.17-0.974-0.379-1.526h2.816c0.334,0.693,0.816,1.396,1.264,2.023l7.227,9.955v-7.077
			c0-0.829-0.047-1.654-0.146-2.481c-0.164-0.878-0.367-1.578-0.668-2.42h3.938c-0.303,0.844-0.506,1.546-0.67,2.428
			C95.242,8.942,95.195,9.767,95.195,10.593L95.195,10.593z"/>
		<path fill="#FFFFFF" d="M66.643,10.589c0-0.827-0.047-1.651-0.145-2.478c-0.166-0.879-0.367-1.578-0.67-2.42h3.939
			c-0.303,0.844-0.506,1.546-0.67,2.428c-0.1,0.823-0.145,1.646-0.145,2.47v1.506v4.091c0,2.063,1.672,3.734,3.736,3.734
			c2.063,0,3.734-1.672,3.734-3.734v-4.091v-1.506c0-0.827-0.049-1.651-0.146-2.478c-0.166-0.879-0.367-1.578-0.67-2.42h3.939
			c-0.303,0.844-0.506,1.546-0.67,2.428c-0.1,0.823-0.145,1.646-0.145,2.47v1.506v4.091c0,3.338-2.707,6.043-6.043,6.043
			c-3.34,0-6.045-2.705-6.045-6.043v-4.091L66.643,10.589L66.643,10.589z"/>
		<path fill="#FFFFFF" d="M50.301,5.691h3.883c0.07,0.307,0.141,0.615,0.225,0.918c0.119,0.361,0.262,0.688,0.799,1.542
			c0.492,0.745,1.867,2.691,2.336,3.355l2.15-3.356c0.32-0.483,0.527-0.857,0.631-1.124c0.168-0.425,0.236-0.89,0.307-1.335h3.582
			c-0.555,0.66-1.068,1.334-1.531,2.063c0,0-2.945,4.54-3.73,5.747l4.355,6.428c0.799,1.078,1.754,2.047,1.754,2.047h-4.402
			c0.094-0.782,0.113-1.228-0.35-1.961c-0.037-0.074-2.768-4.461-2.768-4.461l-2.068,2.933c-0.777,1.229-1.25,2.06-1.6,3.489
			l-3.752,0.001c1.291-1.358,2.396-2.898,3.412-4.47l2.633-3.924l-3.223-4.576C51.682,7.165,50.301,5.691,50.301,5.691L50.301,5.691
			z"/>
		<path fill="#FFFFFF" d="M120.84,7.897c-0.393-0.122-1.057-0.228-1.717-0.23c-1.689-0.007-2.979,0.466-4.066,1.413
			c-0.984,0.855-1.584,2.054-1.623,3.752h7.406V7.897L120.84,7.897z M123.537,21.822l0.061,0.155h-3.209
			c0.209-0.556,0.318-0.937,0.379-1.529c0.049-0.533,0.07-0.97,0.07-1.31l0.002-4.118h-7.408v2.702v1.449
			c0.025,0.945,0.104,1.868,0.227,2.806h-3.35c0.305-0.846,0.506-1.548,0.672-2.431c0.098-0.825,0.145-1.647,0.145-2.475V15.45
			v-0.549v-1.851c0-2.204,0.678-4.023,2.043-5.439c1.416-1.415,3.314-2.174,5.766-2.174c0.602,0,1.076,0.019,1.695,0.084
			c0.844,0.074,1.68,0.189,2.518,0.31l-0.002,13.308c0,0.34,0.025,0.776,0.074,1.31C123.27,20.951,123.361,21.352,123.537,21.822
			L123.537,21.822z"/>
		<path fill="#FFFFFF" d="M167.645,30.064c-0.393-0.12-1.057-0.228-1.715-0.229c-1.691-0.007-2.98,0.465-4.068,1.412
			c-0.984,0.855-1.582,2.053-1.625,3.752h7.408V30.064L167.645,30.064z M170.344,43.99l0.059,0.154h-3.209
			c0.209-0.554,0.318-0.936,0.379-1.527c0.049-0.535,0.07-0.971,0.07-1.311l0.002-4.119h-7.408v2.703v1.448
			c0.025,0.946,0.105,1.866,0.229,2.805l-3.352,0.001c0.305-0.844,0.506-1.548,0.672-2.429c0.098-0.825,0.145-1.649,0.145-2.476
			v-1.621v-0.55v-1.85c0-2.204,0.68-4.024,2.043-5.44c1.416-1.416,3.314-2.174,5.766-2.174c0.602,0,1.076,0.02,1.695,0.085
			c0.842,0.075,1.68,0.188,2.518,0.31v13.307c0,0.34,0.023,0.775,0.072,1.311C170.072,43.118,170.166,43.521,170.344,43.99
			L170.344,43.99z"/>
		<path fill="#FFFFFF" d="M154.186,32.762v6.482c0,0.828,0.047,1.654,0.145,2.479c0.166,0.88,0.367,1.581,0.67,2.423h-3.938
			c0.303-0.846,0.506-1.547,0.672-2.43c0.096-0.824,0.145-1.647,0.145-2.473v-6.482c0-0.828-0.051-1.653-0.148-2.48
			c-0.162-0.878-0.365-1.58-0.668-2.422H155c-0.303,0.845-0.506,1.548-0.67,2.43C154.232,31.114,154.186,31.936,154.186,32.762
			L154.186,32.762z"/>
		<path fill="#FFFFFF" d="M131.033,32.76v6.482c0,0.828,0.047,1.655,0.145,2.481c0.164,0.879,0.367,1.579,0.67,2.421h-3.939
			c0.305-0.846,0.508-1.546,0.672-2.429c0.1-0.823,0.145-1.646,0.145-2.474V32.76c0-0.827-0.045-1.652-0.146-2.48
			c-0.162-0.879-0.365-1.579-0.67-2.421h3.939c-0.303,0.846-0.506,1.548-0.67,2.429C131.078,31.113,131.033,31.936,131.033,32.76
			L131.033,32.76z"/>
		<path fill="#FFFFFF" d="M119.484,32.76l-0.002,9.095h1.711c0.83,0,1.654-0.047,2.482-0.146c0.877-0.165,1.58-0.367,2.422-0.669
			l-0.004,3.104h-9.734c0.305-0.846,0.506-1.545,0.67-2.428c0.1-0.823,0.145-1.646,0.145-2.474V32.76
			c0-0.83-0.047-1.655-0.145-2.481c-0.166-0.88-0.369-1.579-0.67-2.421h3.938c-0.303,0.844-0.504,1.546-0.67,2.429
			C119.529,31.109,119.484,31.934,119.484,32.76L119.484,32.76z"/>
		<path fill="#FFFFFF" d="M110.824,30.066c-0.393-0.122-1.055-0.229-1.715-0.23c-1.691-0.006-2.98,0.466-4.068,1.413
			c-0.984,0.856-1.584,2.055-1.625,3.752h7.408V30.066L110.824,30.066z M113.523,43.992l0.061,0.151h-3.209
			c0.207-0.555,0.318-0.934,0.377-1.526c0.049-0.535,0.072-0.97,0.072-1.311v-4.117h-7.408v2.701v1.451
			c0.025,0.945,0.107,1.863,0.229,2.802h-3.35c0.303-0.846,0.506-1.545,0.67-2.428c0.098-0.823,0.145-1.647,0.145-2.474v-1.623
			V37.07V35.22c0-2.204,0.68-4.023,2.045-5.439c1.416-1.415,3.314-2.175,5.764-2.175c0.604,0,1.076,0.02,1.695,0.085
			c0.842,0.075,1.682,0.188,2.518,0.31v13.309c0,0.339,0.023,0.773,0.072,1.309C113.254,43.12,113.348,43.521,113.523,43.992
			L113.523,43.992z"/>
		<path fill="#FFFFFF" d="M91.814,34.774c0.938,0.123,1.857,0.2,2.805,0.227h1.447h2.617v1.315c0,5.292-3.746,8.083-7.652,8.083
			c-4.521-0.091-8.193-3.8-8.248-8.388c0.061-5.059,4.49-9.041,9.615-8.321c2.063,0.289,3.785,1.261,5.176,2.795l-1.293,2.69
			c-1.195-1.93-2.889-3.188-5.248-3.188c-3.252,0-5.904,2.675-5.955,6.008c0.051,3.35,2.703,6.023,5.955,6.023
			c2.865,0,5.033-1.814,5.293-4.829H95.98h-0.441c-0.633,0-1.193,0.024-1.68,0.073c-0.721,0.064-1.387,0.33-2.045,0.612V34.774
			L91.814,34.774z"/>
		<path fill="#FFFFFF" d="M73.896,34.547v3.098c-0.553-0.209-0.936-0.318-1.527-0.379c-0.467-0.042-0.855-0.065-1.174-0.07H68.17
			v4.648h4.066c0.574-0.004,1.084-0.027,1.533-0.073c0.721-0.063,1.387-0.33,2.045-0.611v2.985H65.053
			c0.303-0.846,0.506-1.546,0.67-2.426c0.098-0.825,0.146-1.649,0.146-2.475V32.76c0-0.828-0.049-1.653-0.146-2.481
			c-0.164-0.878-0.367-1.578-0.67-2.42l10.762,0.001v2.99c-0.658-0.281-1.324-0.547-2.045-0.611
			c-0.486-0.049-1.047-0.074-1.68-0.074h-3.92v4.832h2.891c0.34,0,0.773-0.022,1.309-0.072
			C73.193,34.854,73.896,34.547,73.896,34.547L73.896,34.547z"/>
		<path fill="#FFFFFF" d="M53.416,41.84h1.914c3.051,0.01,5.516-2.598,5.516-5.836c0-3.24-2.465-5.848-5.484-5.848l-1.945-0.001
			V41.84L53.416,41.84z M50.971,41.714c0.098-0.825,0.145-1.647,0.145-2.472V32.76c0-0.828-0.047-1.653-0.146-2.48
			c-0.164-0.879-0.367-1.578-0.67-2.42h5.033c4.334,0.004,7.809,3.655,7.809,8.145c0,4.487-3.475,8.14-7.777,8.14l-0.164-0.002h-4.9
			C50.604,43.297,50.805,42.596,50.971,41.714L50.971,41.714z"/>
		<path fill="#FFFFFF" d="M142.084,42.019c2.357,0,4.053-1.258,5.246-3.189l1.293,2.692c-1.393,1.534-3.113,2.506-5.176,2.795
			c-5.123,0.719-9.555-3.264-9.617-8.306c0.063-5.06,4.492-9.042,9.617-8.321c2.063,0.289,3.785,1.26,5.176,2.795l-1.293,2.691
			c-1.193-1.932-2.889-3.188-5.246-3.188c-3.254,0-5.906,2.675-5.957,6.008C136.178,39.344,138.83,42.019,142.084,42.019
			L142.084,42.019z"/>
	</g>
	<g>
		<polygon fill-rule="evenodd" clip-rule="evenodd" fill="#FFFFFF" points="0,0 41.354,0 41.354,54.369 0,54.369 0,0 		"/>
		<polygon fill-rule="evenodd" clip-rule="evenodd" fill="#2499D1" points="1.152,1.154 40.201,1.154 40.201,53.219 1.152,53.219 
			1.152,1.154 		"/>
		<g>
			<polygon fill-rule="evenodd" clip-rule="evenodd" fill="#FFFFFF" points="15.508,12.459 15.656,13.277 25.697,13.277 
				25.846,12.459 15.508,12.459 			"/>
			<path fill-rule="evenodd" clip-rule="evenodd" fill="#FFFFFF" d="M15.209,11.641h1.041l-1.486-2.082
				c-0.197-0.397-0.299-0.72-0.299-0.967c0-0.445,0.15-0.819,0.447-1.115c0.346-0.348,0.77-0.521,1.264-0.521
				c0.299,0,0.496,0.024,0.598,0.074c-0.15,0.396-0.225,0.769-0.225,1.117c0,0.494,0.1,0.915,0.299,1.264l1.264,2.23h0.965
				L17.59,9.038c-0.148-0.299-0.223-0.596-0.223-0.892c0-0.448,0.146-0.818,0.445-1.117c0.346-0.348,0.744-0.52,1.189-0.52
				c0.547,0,0.967,0.198,1.266,0.594v4.537h0.816V7.104c0.299-0.396,0.721-0.594,1.266-0.594c0.445,0,0.818,0.172,1.117,0.52
				c0.346,0.299,0.52,0.669,0.52,1.117c0,0.296-0.074,0.593-0.223,0.892l-1.488,2.603h0.969l1.264-2.23
				c0.197-0.349,0.297-0.77,0.297-1.264c0-0.349-0.074-0.721-0.225-1.117c0.15-0.05,0.348-0.074,0.596-0.074
				c0.498,0,0.893,0.174,1.189,0.521c0.348,0.296,0.521,0.67,0.521,1.115c0,0.247-0.098,0.569-0.297,0.967l-1.488,2.082h1.043
				l1.113-1.636c0.299-0.348,0.447-0.819,0.447-1.413c0-0.694-0.248-1.264-0.744-1.711c-0.494-0.496-1.09-0.744-1.785-0.744
				c-0.396,0-0.768,0.075-1.115,0.223c-0.445-0.445-1.016-0.668-1.711-0.668c-0.693,0-1.24,0.198-1.637,0.594
				c-0.496-0.396-1.066-0.594-1.711-0.594c-0.693,0-1.264,0.223-1.709,0.668c-0.398-0.147-0.77-0.223-1.117-0.223
				c-0.693,0-1.289,0.248-1.785,0.744c-0.494,0.447-0.742,1.017-0.742,1.711c0,0.594,0.148,1.065,0.445,1.413L15.209,11.641
				L15.209,11.641z"/>
			<polygon fill-rule="evenodd" clip-rule="evenodd" fill="#FFFFFF" points="21.656,19.348 21.656,21.307 19.697,21.307 
				19.697,19.348 17.738,19.348 17.738,17.39 19.697,17.39 19.697,15.432 21.656,15.432 21.656,17.39 23.615,17.39 23.615,19.348 
				21.656,19.348 			"/>
			<path fill-rule="evenodd" clip-rule="evenodd" fill="#FFFFFF" d="M17.441,26.223c0-1.787,1.449-3.236,3.234-3.236
				c1.789,0,3.236,1.449,3.236,3.236c0,1.785-1.447,3.234-3.236,3.234C18.891,29.457,17.441,28.008,17.441,26.223L17.441,26.223z"/>
			<path fill-rule="evenodd" clip-rule="evenodd" fill="#FFFFFF" d="M14.168,30.756c0,1.586,0.496,2.975,1.488,4.165
				c0.992,1.189,2.232,1.935,3.719,2.231c0.1,0.496,0.148,0.867,0.148,1.116c0.199,1.834-0.049,3.569-0.742,5.204
				c-0.645,1.638-1.611,3.025-2.9,4.166c-0.051,0-0.076,0.051-0.076,0.148c0,0.149,0.076,0.225,0.223,0.225h9.299
				c0.148,0,0.223-0.075,0.223-0.225c0-0.098-0.025-0.148-0.074-0.148c-1.289-1.141-2.281-2.528-2.977-4.166
				c-0.645-1.635-0.867-3.37-0.668-5.204c0-0.249,0.049-0.62,0.148-1.116c1.488-0.297,2.727-1.042,3.719-2.231
				c0.992-1.19,1.488-2.579,1.488-4.165v-0.223c0-0.099-0.074-0.148-0.225-0.148H14.393c-0.15,0-0.225,0.05-0.225,0.148V30.756
				L14.168,30.756z"/>
			<polygon fill-rule="evenodd" clip-rule="evenodd" fill="#FFFFFF" points="33.025,42.188 33.025,44.146 31.066,44.146 
				31.066,42.188 29.107,42.188 29.107,40.229 31.066,40.229 31.066,38.271 33.025,38.271 33.025,40.229 34.982,40.229 
				34.982,42.188 33.025,42.188 			"/>
			<polygon fill-rule="evenodd" clip-rule="evenodd" fill="#FFFFFF" points="33.025,30.808 33.025,32.766 31.066,32.766 
				31.066,30.808 29.107,30.808 29.107,28.85 31.066,28.85 31.066,26.892 33.025,26.892 33.025,28.85 34.982,28.85 34.982,30.808 
				33.025,30.808 			"/>
			<polygon fill-rule="evenodd" clip-rule="evenodd" fill="#FFFFFF" points="33.025,19.354 33.025,21.313 31.066,21.313 
				31.066,19.354 29.107,19.354 29.107,17.396 31.066,17.396 31.066,15.438 33.025,15.438 33.025,17.396 34.982,17.396 
				34.982,19.354 33.025,19.354 			"/>
			<polygon fill-rule="evenodd" clip-rule="evenodd" fill="#FFFFFF" points="10.27,42.188 10.27,44.146 8.311,44.146 8.311,42.188 
				6.354,42.188 6.354,40.229 8.311,40.229 8.311,38.271 10.27,38.271 10.27,40.229 12.227,40.229 12.227,42.188 10.27,42.188 			
				"/>
			<polygon fill-rule="evenodd" clip-rule="evenodd" fill="#FFFFFF" points="10.27,30.808 10.27,32.766 8.311,32.766 8.311,30.808 
				6.354,30.808 6.354,28.85 8.311,28.85 8.311,26.892 10.27,26.892 10.27,28.85 12.227,28.85 12.227,30.808 10.27,30.808 			"/>
			<polygon fill-rule="evenodd" clip-rule="evenodd" fill="#FFFFFF" points="10.27,19.354 10.27,21.313 8.311,21.313 8.311,19.354 
				6.354,19.354 6.354,17.396 8.311,17.396 8.311,15.438 10.27,15.438 10.27,17.396 12.227,17.396 12.227,19.354 10.27,19.354 			
				"/>
		</g>
		<polygon fill-rule="evenodd" clip-rule="evenodd" fill="#FFFFFF" points="20.344,3.756 20.344,4.277 19.82,4.277 19.82,4.872 
			20.344,4.872 20.344,5.393 21.012,5.393 21.012,4.872 21.531,4.872 21.531,4.277 21.012,4.277 21.012,3.756 20.344,3.756 		"/>
	</g>
</g>
</svg>
