<?xml version="1.0" encoding="utf-8"?>
<!-- Generator: Adobe Illustrator 14.0.0, SVG Export Plug-In . SVG Version: 6.00 Build 43363)  -->
<!DOCTYPE svg PUBLIC "-//W3C//DTD SVG 1.1//EN" "http://www.w3.org/Graphics/SVG/1.1/DTD/svg11.dtd">
<svg version="1.1" id="Capa_1" xmlns="http://www.w3.org/2000/svg" xmlns:xlink="http://www.w3.org/1999/xlink" x="0px" y="0px"
	 width="212px" height="24px" viewBox="0 0 212 24" enable-background="new 0 0 212 24" xml:space="preserve">
<g>
	<path fill="#FFFFFF" d="M1.325,21.372c0.049-0.591,0.328-1.079,0.841-1.464c1.632,1.104,3.231,1.656,4.8,1.656
		c1.136,0,2.031-0.24,2.688-0.721c0.656-0.479,0.984-1.135,0.984-1.967c0-1.232-0.849-2.225-2.544-2.977l-2.808-1.225
		c-2.16-0.928-3.24-2.271-3.24-4.031c0-0.607,0.128-1.184,0.384-1.729C2.686,8.373,3.042,7.9,3.498,7.5
		c0.456-0.399,1.004-0.716,1.644-0.947c0.64-0.232,1.352-0.349,2.136-0.349c1.552,0,3.136,0.384,4.752,1.152
		c0,0.624-0.248,1.136-0.743,1.536c-0.784-0.4-1.509-0.688-2.173-0.864C8.449,7.853,7.838,7.764,7.277,7.764
		c-0.512,0-0.972,0.072-1.38,0.217s-0.76,0.332-1.056,0.564C4.545,8.776,4.317,9.049,4.157,9.36s-0.239,0.636-0.239,0.972
		c0,0.705,0.204,1.252,0.611,1.645c0.408,0.393,0.98,0.74,1.717,1.044l2.712,1.176c2.384,1.04,3.575,2.488,3.575,4.344
		c0,1.392-0.472,2.513-1.416,3.36c-0.943,0.848-2.408,1.271-4.392,1.271C4.773,23.172,2.974,22.572,1.325,21.372z"/>
	<path fill="#FFFFFF" d="M17.862,20.408l-0.024,0.916c0.544-0.031,1.04-0.048,1.488-0.048h6.576c0,0.336-0.017,0.592-0.049,0.769
		c-0.111,0.56-0.504,0.84-1.176,0.84h-7.56c-0.32,0-0.572-0.108-0.756-0.324c-0.185-0.217-0.276-0.508-0.276-0.877V6.637
		l0.144-0.145h9.265c0.031,0.191,0.048,0.443,0.048,0.756s-0.04,0.588-0.12,0.828h-7.584l0.024,1.488v4.248l1.439-0.024h4.968
		c0.049,0.284,0.072,0.548,0.072,0.792s-0.023,0.5-0.072,0.768h-4.968c-0.608,0-1.088-0.008-1.439-0.023V20.408z"/>
	<path fill="#FFFFFF" d="M38.646,21.756c-0.224,0.192-0.496,0.365-0.815,0.517c-0.32,0.151-0.66,0.28-1.021,0.384
		c-0.36,0.104-0.72,0.184-1.08,0.24c-0.359,0.056-0.676,0.084-0.948,0.084c-0.287,0-0.848-0.008-1.68-0.024s-1.952-0.04-3.36-0.071
		l-0.144-0.145V6.637l0.144-0.145c1.393-0.048,3.017-0.072,4.872-0.072c1.248,0,2.288,0.217,3.12,0.648s1.5,1.02,2.004,1.764
		s0.86,1.625,1.068,2.641s0.313,2.1,0.313,3.252c0,0.8-0.036,1.539-0.108,2.22s-0.204,1.308-0.396,1.884
		c-0.191,0.576-0.447,1.108-0.768,1.596C39.525,20.912,39.126,21.356,38.646,21.756z M31.422,21.444l3.168,0.024
		c0.912,0,1.664-0.181,2.256-0.543c0.592-0.36,1.06-0.838,1.404-1.432c0.344-0.595,0.584-1.262,0.72-2s0.204-1.477,0.204-2.216
		c0-1.075-0.057-2.063-0.168-2.962c-0.112-0.899-0.345-1.674-0.696-2.324s-0.84-1.156-1.464-1.518S35.47,7.932,34.59,7.932
		l-3.168-0.023V21.444z"/>
	<path fill="#FFFFFF" d="M46.686,20.408l-0.024,0.916c0.544-0.031,1.04-0.048,1.488-0.048h6.576c0,0.336-0.017,0.592-0.049,0.769
		c-0.111,0.56-0.504,0.84-1.176,0.84h-7.56c-0.32,0-0.572-0.108-0.756-0.324c-0.185-0.217-0.276-0.508-0.276-0.877V6.637
		l0.144-0.145h9.265c0.031,0.191,0.048,0.443,0.048,0.756s-0.04,0.588-0.12,0.828h-7.584l0.024,1.488v4.248l1.439-0.024h4.968
		c0.049,0.284,0.072,0.548,0.072,0.792s-0.023,0.5-0.072,0.768h-4.968c-0.608,0-1.088-0.008-1.439-0.023V20.408z"/>
	<path fill="#FFFFFF" d="M66.484,18.78l-0.024,1.487l1.681-0.047h5.88c0,0.512-0.024,0.904-0.072,1.176
		c-0.177,1.023-0.864,1.535-2.064,1.535h-6.743c-0.576,0-1.028-0.171-1.356-0.516c-0.328-0.344-0.492-0.812-0.492-1.404V6.66
		l0.168-0.168h10.008c0.08,0.4,0.12,0.828,0.12,1.284S73.5,8.709,73.324,9.204H66.46l0.024,1.656v2.472l1.56-0.023h4.057
		c0.128,0.368,0.191,0.808,0.191,1.32c0,0.512-0.063,0.951-0.191,1.319h-5.616V18.78z"/>
	<path fill="#FFFFFF" d="M82.396,20.148h4.465c0,0.48-0.032,0.888-0.097,1.224c-0.176,1.04-0.872,1.56-2.088,1.56h-5.832
		c-0.576,0-1.032-0.171-1.368-0.516c-0.336-0.344-0.504-0.812-0.504-1.404V6.516l0.168-0.168h1.2c0.64,0,1.112,0.165,1.416,0.492
		c0.304,0.328,0.456,0.853,0.456,1.572v11.832C80.899,20.181,81.628,20.148,82.396,20.148z"/>
	<path fill="#FFFFFF" d="M92.572,18.78l-0.024,1.487l1.681-0.047h5.88c0,0.512-0.024,0.904-0.072,1.176
		c-0.177,1.023-0.864,1.535-2.064,1.535h-6.743c-0.576,0-1.028-0.171-1.356-0.516c-0.328-0.344-0.492-0.812-0.492-1.404V6.66
		l0.168-0.168h10.008c0.08,0.4,0.12,0.828,0.12,1.284s-0.088,0.933-0.264,1.428h-6.864l0.024,1.656v2.472l1.56-0.023h4.057
		c0.128,0.368,0.191,0.808,0.191,1.32c0,0.512-0.063,0.951-0.191,1.319h-5.616V18.78z"/>
	<path fill="#FFFFFF" d="M111.604,12.612v-0.24c0-0.528-0.057-1.012-0.168-1.452c-0.113-0.439-0.289-0.824-0.529-1.152
		c-0.24-0.327-0.547-0.583-0.924-0.768c-0.375-0.184-0.828-0.275-1.355-0.275c-1.167,0-2.015,0.523-2.544,1.572
		c-0.527,1.047-0.791,2.636-0.791,4.764c0,1.695,0.324,3.012,0.973,3.947c0.646,0.937,1.531,1.404,2.65,1.404
		c0.592,0,1.236-0.14,1.934-0.42c0.695-0.279,1.443-0.724,2.244-1.332c0.336,0.225,0.654,0.536,0.959,0.936
		c0.305,0.4,0.496,0.785,0.576,1.152c-0.352,0.353-0.764,0.676-1.236,0.973c-0.473,0.296-0.98,0.556-1.523,0.779
		c-0.545,0.225-1.113,0.4-1.705,0.528s-1.184,0.192-1.775,0.192c-1.183,0-2.183-0.229-3-0.685s-1.484-1.071-2.003-1.848
		c-0.521-0.776-0.896-1.677-1.128-2.7c-0.232-1.023-0.349-2.104-0.349-3.24c0-1.439,0.176-2.699,0.528-3.779
		c0.352-1.08,0.828-1.977,1.428-2.688c0.6-0.712,1.303-1.248,2.111-1.608c0.809-0.359,1.668-0.539,2.58-0.539
		c0.943,0,1.797,0.128,2.557,0.383c0.76,0.257,1.404,0.605,1.932,1.045s0.936,0.951,1.225,1.535
		c0.287,0.585,0.432,1.213,0.432,1.885c0,1.199-0.609,1.8-1.824,1.8c-0.176,0-0.369-0.013-0.576-0.036
		C112.09,12.721,111.859,12.676,111.604,12.612z"/>
	<path fill="#FFFFFF" d="M123.1,10.932v11.953c-0.465,0.08-1.006,0.119-1.621,0.119s-1.156-0.039-1.619-0.119V10.932l0.023-1.775
		l-1.465,0.023h-2.664c-0.08-0.398-0.119-0.848-0.119-1.344s0.039-0.943,0.119-1.344h11.473c0.111,0.4,0.168,0.836,0.168,1.309
		c0,0.472-0.137,0.82-0.408,1.043c-0.271,0.225-0.711,0.336-1.32,0.336h-1.127l-1.465-0.023L123.1,10.932z"/>
	<path fill="#FFFFFF" d="M140.74,11.436c0,0.529-0.076,1.029-0.229,1.5c-0.152,0.473-0.365,0.896-0.637,1.273
		c-0.271,0.375-0.588,0.703-0.947,0.983c-0.361,0.28-0.756,0.491-1.188,0.636c0.414,0.145,0.764,0.393,1.043,0.744
		s0.523,0.809,0.732,1.368l0.887,2.424c0.145,0.399,0.305,0.744,0.48,1.032c0.176,0.287,0.393,0.527,0.648,0.72
		c-0.209,0.288-0.508,0.521-0.898,0.696s-0.832,0.264-1.324,0.264c-0.477,0-0.857-0.145-1.143-0.432
		c-0.287-0.288-0.549-0.776-0.787-1.465l-1.014-2.855c-0.209-0.561-0.473-0.988-0.795-1.284s-0.805-0.444-1.447-0.444h-1.473v6.289
		c-0.223,0.031-0.471,0.06-0.742,0.084c-0.273,0.023-0.568,0.035-0.889,0.035c-0.592,0-1.113-0.039-1.561-0.119V6.612l0.168-0.144
		c1.297-0.032,2.396-0.057,3.301-0.072c0.902-0.016,1.627-0.024,2.172-0.024c1.729,0,3.1,0.433,4.115,1.296
		C140.23,8.532,140.74,9.789,140.74,11.436z M132.65,8.82V14.1c0.832-0.047,1.568-0.071,2.209-0.071
		c1.711,0,2.568-0.864,2.568-2.593c0-1.727-0.857-2.592-2.568-2.592c-0.496,0-0.924,0-1.283,0
		C133.215,8.844,132.906,8.836,132.65,8.82z"/>
	<path fill="#FFFFFF" d="M145.299,21.756c-1.713-1.472-2.568-3.823-2.568-7.056c0-1.36,0.156-2.567,0.469-3.624
		c0.313-1.056,0.768-1.947,1.367-2.676c0.602-0.729,1.328-1.284,2.186-1.668c0.855-0.385,1.836-0.576,2.939-0.576
		c1.088,0,2.061,0.191,2.916,0.576c0.855,0.384,1.58,0.939,2.172,1.668s1.043,1.624,1.355,2.688
		c0.313,1.064,0.469,2.269,0.469,3.612c0,1.345-0.156,2.544-0.469,3.601c-0.313,1.056-0.764,1.947-1.355,2.676
		s-1.316,1.283-2.172,1.668c-0.855,0.384-1.828,0.576-2.916,0.576C147.947,23.221,146.482,22.732,145.299,21.756z M153.219,14.7
		c0-4.016-1.184-6.024-3.551-6.024c-2.369,0-3.553,2.009-3.553,6.024c0,4,1.184,6,3.553,6C152.035,20.7,153.219,18.7,153.219,14.7z
		 M146.955,3.877l5.111-3.097c0.289,0.224,0.568,0.572,0.84,1.044c0.273,0.473,0.424,0.932,0.457,1.38l-5.496,2.208
		c-0.225-0.128-0.424-0.344-0.6-0.648C147.092,4.461,146.986,4.164,146.955,3.877z"/>
	<path fill="#FFFFFF" d="M171.963,6.348l0.168,0.168v16.32c-0.496,0.112-1.121,0.168-1.871,0.168c-0.754,0-1.408-0.039-1.969-0.119
		l-4.416-9.289c-0.641-1.407-1.121-2.527-1.439-3.359l-0.098,0.023c0.178,2.256,0.266,4.433,0.266,6.528v6.097
		c-0.449,0.08-0.957,0.119-1.525,0.119s-1.059-0.039-1.475-0.119V6.54c0.463-0.111,1.07-0.168,1.824-0.168
		c0.752,0,1.406,0.04,1.967,0.12l4.369,9.288l1.559,3.552l0.072-0.023c-0.16-2.32-0.24-4.512-0.24-6.576V8.34
		c0-0.72,0.137-1.231,0.408-1.535c0.271-0.305,0.729-0.457,1.369-0.457H171.963z"/>
	<path fill="#FFFFFF" d="M176.188,22.885V6.492c0.402-0.08,0.93-0.12,1.582-0.12c0.654,0,1.205,0.04,1.656,0.12v16.393
		c-0.451,0.08-1.002,0.119-1.656,0.119C177.117,23.004,176.59,22.965,176.188,22.885z"/>
	<path fill="#FFFFFF" d="M192.17,12.612v-0.24c0-0.528-0.057-1.012-0.168-1.452c-0.111-0.439-0.287-0.824-0.527-1.152
		c-0.24-0.327-0.549-0.583-0.924-0.768c-0.377-0.184-0.828-0.275-1.357-0.275c-1.168,0-2.016,0.523-2.543,1.572
		c-0.527,1.047-0.793,2.636-0.793,4.764c0,1.695,0.324,3.012,0.973,3.947c0.648,0.937,1.531,1.404,2.652,1.404
		c0.592,0,1.236-0.14,1.932-0.42c0.695-0.279,1.443-0.724,2.244-1.332c0.336,0.225,0.656,0.536,0.961,0.936
		c0.303,0.4,0.494,0.785,0.574,1.152c-0.352,0.353-0.764,0.676-1.234,0.973c-0.473,0.296-0.98,0.556-1.525,0.779
		c-0.543,0.225-1.111,0.4-1.703,0.528s-1.184,0.192-1.775,0.192c-1.186,0-2.186-0.229-3-0.685c-0.816-0.456-1.484-1.071-2.004-1.848
		c-0.521-0.776-0.896-1.677-1.129-2.7s-0.348-2.104-0.348-3.24c0-1.439,0.176-2.699,0.527-3.779s0.828-1.977,1.428-2.688
		c0.602-0.712,1.305-1.248,2.113-1.608c0.807-0.359,1.668-0.539,2.58-0.539c0.943,0,1.795,0.128,2.555,0.383
		c0.76,0.257,1.404,0.605,1.932,1.045c0.529,0.439,0.938,0.951,1.225,1.535c0.289,0.585,0.432,1.213,0.432,1.885
		c0,1.199-0.607,1.8-1.824,1.8c-0.176,0-0.367-0.013-0.574-0.036C192.658,12.721,192.426,12.676,192.17,12.612z"/>
	<path fill="#FFFFFF" d="M206.234,19.164l-1.176,0.024h-3.359l-1.178-0.024l-1.127,3.744c-0.336,0.08-0.813,0.12-1.428,0.12
		c-0.617,0-1.117-0.072-1.5-0.216l-0.121-0.168l5.354-16.152c0.59-0.08,1.23-0.12,1.92-0.12c0.688,0,1.287,0.048,1.799,0.144
		l5.256,16.152c-0.463,0.271-1.02,0.408-1.668,0.408s-1.111-0.12-1.393-0.359c-0.279-0.24-0.516-0.696-0.707-1.369L206.234,19.164z
		 M201.314,16.62l1.08-0.024h2.064l1.008,0.024l-0.721-2.448c-0.545-1.824-0.977-3.375-1.295-4.656h-0.145
		c-0.145,0.689-0.496,2.041-1.057,4.057L201.314,16.62z"/>
</g>
</svg>
