<?xml version="1.0" encoding="utf-8"?>
<!-- Generator: Adobe Illustrator 14.0.0, SVG Export Plug-In . SVG Version: 6.00 Build 43363)  -->
<!DOCTYPE svg PUBLIC "-//W3C//DTD SVG 1.1//EN" "http://www.w3.org/Graphics/SVG/1.1/DTD/svg11.dtd">
<svg version="1.1" id="Capa_1" xmlns="http://www.w3.org/2000/svg" xmlns:xlink="http://www.w3.org/1999/xlink" x="0px" y="0px"
	 width="115px" height="115px" viewBox="0 0 115 115" enable-background="new 0 0 115 115" xml:space="preserve">
<g>
	<circle fill="#F9690E" cx="57.5" cy="57.501" r="56.509"/>
	<path fill="#BB4F0A" d="M83.376,22.271l-9.131,13.874c-1.063-2.186-2.418-4.146-4.063-5.881c-2.334-2.465-5.188-4.365-8.561-5.707
		c-3.371-1.34-7.262-2.01-11.672-2.01c-4.324,0-8.172,0.822-11.543,2.465c-3.373,1.643-6.225,3.955-8.561,6.938
		C28.3,33.925,13.056,55.35,2.572,70.829c5.992,24.776,28.311,43.179,54.928,43.179c0.418,0,0.836-0.006,1.254-0.014l30.988-43.151
		l-4.918-6.594l4.918-5.42L83.376,22.271z M53.39,77.466c-4.844,0-8.234-1.36-10.18-4.085c-1.946-2.724-3.049-6.463-3.309-11.22
		L57.18,62.07l-0.82,1.246l4.533,13.109C58.229,77.105,55.722,77.466,53.39,77.466z M61.364,50.043L39.772,50.23
		c0.52-10.201,4.213-15.49,10.957-15.49c3.121,0,6.654,1.752,8.041,3.76c1.729,2.51,2.595,5.838,2.595,9.988V50.043z M73.645,77.091
		c-0.056-0.11-0.109-0.221-0.166-0.329l1.399-1.545L73.645,77.091z"/>
	<path fill="#FFFFFF" d="M75.761,61.852H39.964c0.26,4.756,1.361,8.494,3.307,11.219c1.947,2.724,5.338,4.084,10.182,4.084
		c5.014,0,10.766-1.469,17.25-4.408c2.506,2.594,4.105,6.009,4.799,10.245c-6.92,4.928-15.221,7.393-24.902,7.393
		c-9.166,0-16.104-2.831-20.816-8.493c-4.712-5.662-7.068-14.072-7.068-25.227c0-5.188,0.604-9.877,1.816-14.072
		c1.209-4.193,2.982-7.781,5.316-10.766c2.336-2.982,5.188-5.295,8.561-6.938c3.371-1.643,7.219-2.465,11.543-2.465
		c4.41,0,8.301,0.671,11.672,2.01c3.373,1.342,6.228,3.242,8.562,5.707c2.334,2.465,4.086,5.383,5.252,8.754
		c1.168,3.373,1.752,7.049,1.752,11.025c0,2.162-0.129,4.215-0.39,6.16C76.54,58.023,76.189,59.95,75.761,61.852z M50.729,34.614
		c-6.744,0-10.377,5.103-10.896,15.305h21.531v-1.557c0-4.15-0.865-7.479-2.595-9.986C57.04,35.868,54.36,34.614,50.729,34.614z"/>
	<path fill="#FFFFFF" d="M82.034,63.755c0.975-0.631,2.338-0.948,4.092-0.948c0.778,0,1.474,0.062,2.082,0.184
		c0.606,0.121,1.121,0.268,1.535,0.438c0.411,0.172,0.717,0.584,0.911,1.242c0.195,0.658,0.294,1.498,0.294,2.52
		c0,0.977-0.099,1.779-0.294,2.412c-0.194,0.633-0.5,1.047-0.911,1.242c-0.414,0.193-0.929,0.352-1.535,0.475
		c-0.608,0.121-1.304,0.183-2.082,0.183c-0.729,0-1.39-0.049-1.974-0.146c-0.584-0.099-1.108-0.246-1.569-0.438
		c-0.465-0.192-0.778-0.608-0.951-1.242c-0.17-0.633-0.254-1.461-0.254-2.483C81.378,65.582,81.598,64.438,82.034,63.755z
		 M83.204,56.669l-0.877-34.045c1.946-1.462,4.627-2.191,8.037-2.191l0.51,0.511L89.048,56.67c-0.391,0.146-0.853,0.244-1.387,0.293
		c-0.537,0.049-1.072,0.072-1.609,0.072c-0.534,0-1.047-0.023-1.532-0.072C84.033,56.914,83.593,56.815,83.204,56.669z"/>
</g>
</svg>
