<?xml version="1.0" encoding="utf-8"?>
<!-- Generator: Adobe Illustrator 14.0.0, SVG Export Plug-In . SVG Version: 6.00 Build 43363)  -->
<!DOCTYPE svg PUBLIC "-//W3C//DTD SVG 1.1//EN" "http://www.w3.org/Graphics/SVG/1.1/DTD/svg11.dtd">
<svg version="1.1" id="Capa_1" xmlns="http://www.w3.org/2000/svg" xmlns:xlink="http://www.w3.org/1999/xlink" x="0px" y="0px"
	 width="91.023px" height="76.969px" viewBox="0 0 91.023 76.969" enable-background="new 0 0 91.023 76.969" xml:space="preserve">
<g>
	<path fill="#FFFFFF" d="M69.775,34.855c-7.56,0-13.688,6.133-13.688,13.691c0,7.556,6.131,13.687,13.688,13.687
		c7.562,0,13.688-6.131,13.688-13.687C83.465,40.988,77.336,34.855,69.775,34.855z M68.053,55.41l0.627-3.23h2.375l0.629,3.23
		H68.053z M71.055,50.336h-2.377l-1.261-10.098h4.897L71.055,50.336z"/>
	<path fill="#FFFFFF" d="M55.154,55.486H12.198l20.15-18.066l9.399,7.844c0.465,0.371,1.176,0.377,1.651-0.008l9.393-7.836
		l3.11,2.787c0.453-0.75,0.97-1.461,1.533-2.129l-2.619-2.346L74.948,18.97v14.24c0.916,0.311,1.798,0.697,2.634,1.158V16.834
		c0-1.156-0.942-2.098-2.103-2.098H9.661c-1.158,0-2.103,0.941-2.103,2.098v39.184c0,1.154,0.942,2.1,2.103,2.1h47.065
		C56.123,57.293,55.596,56.412,55.154,55.486z M72.789,17.365L42.571,42.541L12.352,17.365H72.789z M10.192,18.971l20.131,16.762
		L10.192,53.771V18.971z"/>
</g>
</svg>
