<?xml version="1.0" encoding="utf-8"?>
<!-- Generator: Adobe Illustrator 14.0.0, SVG Export Plug-In . SVG Version: 6.00 Build 43363)  -->
<!DOCTYPE svg PUBLIC "-//W3C//DTD SVG 1.1//EN" "http://www.w3.org/Graphics/SVG/1.1/DTD/svg11.dtd">
<svg version="1.1" id="Capa_1" xmlns="http://www.w3.org/2000/svg" xmlns:xlink="http://www.w3.org/1999/xlink" x="0px" y="0px"
	 width="91.023px" height="76.969px" viewBox="0 0 91.023 76.969" enable-background="new 0 0 91.023 76.969" xml:space="preserve">
<g>
	<path fill="#616061" d="M60.93,6.494c-11.208,0-20.333,9.125-20.338,20.338c0,11.211,9.124,20.333,20.338,20.333
		s20.336-9.122,20.336-20.333C81.266,15.619,72.144,6.494,60.93,6.494z M60.93,24.785h-2.903l4.352-4.353
		c0.399-0.399,0.599-0.923,0.599-1.447c0-0.522-0.198-1.045-0.599-1.441c-0.799-0.798-2.09-0.798-2.887,0l-7.805,7.813
		c-0.025,0.021-0.047,0.043-0.066,0.067c0,0,0,0.002-0.004,0.002c0,0-0.004,0.006-0.004,0.004c0,0.003-0.004-0.002-0.004,0.007
		c-0.002,0-0.002,0-0.002,0c0,0.002-0.002,0.004-0.004,0.004c0,0,0.004-0.002-0.004,0.006c-0.001,0.002-0.001,0.002-0.004,0.003
		c-0.146,0.158-0.254,0.332-0.343,0.517c-0.03,0.068-0.049,0.143-0.073,0.216c-0.026,0.079-0.066,0.157-0.084,0.242
		c-0.005,0.007-0.006,0.017-0.006,0.023c-0.002,0.001-0.002,0.003-0.002,0.005s0,0.005-0.002,0.006c0,0.004,0,0.006,0,0.007
		c0,0,0,0,0,0.002c0,0-0.002,0.002-0.002,0.004v0.003c0,0.003,0,0.005,0,0.005c0,0.002-0.002,0.003-0.002,0.003
		c0,0.004,0,0.004,0,0.004c0,0.002,0,0.004,0,0.004c0,0.002,0,0.002,0,0.002c-0.001,0.002-0.001,0.004-0.001,0.006
		c0,0.001,0,0.003,0,0.005c-0.002,0.002-0.002,0.005-0.002,0.008c0,0.002,0,0.004,0,0.005c-0.002,0.002-0.002,0.004-0.002,0.006
		s0,0.003,0,0.006c0,0.002-0.002,0.004-0.002,0.007c0,0.002,0,0.004,0,0.006c0,0.001,0,0.003-0.002,0.006c0,0,0,0,0,0.002
		c0,0,0,0.002,0,0.003c0,0,0,0,0,0.002c0,0,0,0.004,0,0.005c0,0,0,0-0.002,0.002c0,0,0,0.003,0,0.005c0,0,0,0,0,0.002
		c0,0,0,0.001,0,0.003v0.002c0,0.002-0.004,0.002-0.004,0.003v0.002c0,0.002,0,0.002,0,0.007v0.001c0,0.002,0,0.002,0,0.004
		c0,0-0.004,0-0.002,0.005v0.002c0,0.003,0,0.005,0,0.005c0,0.001,0,0.001,0,0.001c0,0.004,0,0.006,0,0.006
		c-0.002,0.001-0.002,0.001-0.002,0.001c0,0.002,0,0.004,0,0.004c0,0.002,0,0.002,0,0.002c0,0.003,0,0.004,0,0.004
		c0,0.002,0,0.002,0,0.004v0.002c-0.002,0.001-0.002,0.001-0.002,0.003v0.004c0,0.003,0,0.003,0,0.004c0,0,0,0.002,0,0.004
		c0,0,0,0,0,0.002c0,0,0,0.001,0,0.003c0,0,0-0.002-0.002,0.006v0.004c0,0.002,0,0.002,0,0.004v0.001c0,0.002,0,0.002,0,0.004v0.002
		c0,0.003-0.002,0.006-0.002,0.006c0,0.002,0,0.002,0,0.004c0,0,0,0.001,0,0.005c0,0,0,0,0,0.002c0,0,0,0.002,0,0.003v0.003
		c0,0.002,0,0.002,0,0.004v0.001c0,0.002,0,0.002-0.001,0.004v0.002c0,0.003,0,0.003,0,0.005v0.003c0,0.002,0,0.002,0,0.003v0.002
		c0,0.002,0,0.002,0,0.004v0.002c0,0.001,0,0.003,0,0.003c0,0.003,0,0.003,0,0.003c0,0.002,0,0.005,0,0.005
		c-0.002,0.002-0.002,0.002-0.002,0.002c0,0.002,0,0.004,0,0.004c0,0.001,0,0.001,0,0.001c0,0.002,0,0.004,0,0.004
		c0,0.003,0,0.003,0,0.005c0,0,0,0.001,0,0.003c0,0,0,0,0,0.004c0,0,0,0.001,0,0.003c0,0,0,0,0,0.002c0,0,0,0.003,0,0.005
		c0,0,0,0,0,0.001c0,0,0,0.002,0,0.004c0,0,0,0,0,0.002c0,0,0,0.001,0,0.003v0.002c0,0.005-0.001,0.005-0.001,0.006v0.002
		c0,0.002,0,0.002,0,0.004v0.001c0,0.002,0,0.002,0,0.004v0.002c0,0.003,0,0.004,0,0.004c0,0.004,0,0.004,0,0.004
		c0,0.002,0,0.003,0,0.003c0,0.002,0,0.002,0,0.002c0,0.002,0,0.004,0,0.004c0,0.003,0,0.003,0,0.003c0,0.001,0,0.001,0,0.001
		c0,0.007-0.006,0.015-0.006,0.021c0,0.005,0.006,0.011,0.006,0.021v0.001c0,0.002,0,0.002,0,0.004v0.002c0,0.001,0,0.001,0,0.004
		v0.002c0,0.002,0,0.004,0,0.004c0,0.003,0,0.003,0,0.003c0,0.002,0,0.004,0,0.004c0,0.001,0,0.001,0,0.001c0,0.003,0,0.005,0,0.007
		s0,0.003,0,0.005s0,0.005,0,0.007c0,0.003,0,0.005,0,0.007c0,0.001,0.001,0.003,0.001,0.005s0,0.003,0,0.005
		c0,0.003,0,0.007,0,0.008c0,0.002,0,0.004,0,0.006c0,0,0,0,0,0.001c0,0,0,0.002,0,0.004c0,0,0,0.003,0,0.006v0.002
		c0,0.005,0,0.007,0,0.007c0,0.002,0,0.005,0,0.005c0,0.002,0.003,0,0.002,0.007c0,0.002,0,0.003,0,0.005c0,0.004,0,0.007,0,0.008
		c0,0.002,0,0.004,0,0.006c0,0.001,0,0.003,0,0.005c0.001,0.002,0.001,0.005,0.001,0.006c0,0.004,0,0.006,0,0.007
		c0,0.002,0,0.004,0,0.006c0,0.004,0,0.008,0.002,0.011c0,0.004,0,0.006,0,0.008c0,0,0,0,0,0.001c0,0,0,0.003,0,0.005v0.002
		c0,0.001,0,0.003,0,0.005c0.002,0.002,0.002,0.004,0.002,0.008c0,0.007,0.002,0.014,0.002,0.023c0.018,0.144,0.069,0.28,0.116,0.42
		c0.019,0.057,0.021,0.118,0.046,0.171c0.094,0.214,0.219,0.417,0.389,0.595c0.002,0,0.002,0.002,0.006,0.005
		c0.002,0.002,0.004,0.002,0.004,0.004c0.001,0.002,0.003,0.004,0.004,0.005c0,0,0.003,0.002,0.004,0.005
		c0.002,0.002,0.002,0.002,0.005,0.003c0.002,0.002,0.004,0.004,0.004,0.004c0,0.002,0.004,0.002,0.004,0.002
		s0.002,0.003,0.004,0.005c0.002,0.003,0.002,0.003,0.004,0.005c0,0,0,0,0,0.001c0,0,0,0,0.002,0l7.846,7.831
		c0.396,0.398,0.92,0.597,1.441,0.597c0.521,0,1.046-0.198,1.445-0.6c0.396-0.398,0.596-0.921,0.596-1.443s-0.199-1.045-0.601-1.444
		l-4.36-4.352h2.909c5.5,0,10.38,3.317,12.507,8.326C70.453,40.807,65.956,43.1,60.93,43.1c-8.962,0-16.256-7.291-16.256-16.251
		c0.005-8.964,7.297-16.255,16.256-16.255c8.961,0,16.253,7.291,16.253,16.255c0,2.213-0.449,4.323-1.253,6.25
		C72.742,27.996,67.121,24.785,60.93,24.785z"/>
	<path fill="#616061" d="M78.933,41.133c-0.771,0.969-1.654,1.9-2.626,2.775l-0.156,0.141v16.877L60.963,49.925l-0.271-0.09
		c-3.076-0.03-6.051-0.658-8.845-1.862l-0.245-0.105l-3.541,2.566c-1.207,0.881-2.913,0.881-4.124,0L15.836,30.063v-0.328
		c0-0.538,0.438-0.976,0.979-0.976h21.2l-0.056-0.864c-0.022-0.354-0.049-0.706-0.049-1.063c0-0.354,0.025-0.7,0.049-1.048
		l0.056-0.859h-21.2c-2.653,0-4.813,2.158-4.813,4.811v36.37c0,2.651,2.158,4.813,4.813,4.813h58.361
		c2.104,0,3.941-1.359,4.597-3.523V40.077L78.933,41.133z M14.894,32.962L35.46,47.863L14.894,62.768V32.962z M76.151,66.116
		c0,0.536-0.438,0.974-0.977,0.974H16.813c-0.539,0-0.979-0.438-0.979-0.974V65.67L37.09,50.23l4.546,3.33
		c2.527,1.84,6.116,1.844,8.641,0l4.549-3.33l21.327,15.431L76.151,66.116L76.151,66.116z"/>
</g>
</svg>
