<?xml version="1.0" encoding="utf-8"?>
<!-- Generator: Adobe Illustrator 14.0.0, SVG Export Plug-In . SVG Version: 6.00 Build 43363)  -->
<!DOCTYPE svg PUBLIC "-//W3C//DTD SVG 1.1//EN" "http://www.w3.org/Graphics/SVG/1.1/DTD/svg11.dtd">
<svg version="1.1" id="Capa_1" xmlns="http://www.w3.org/2000/svg" xmlns:xlink="http://www.w3.org/1999/xlink" x="0px" y="0px"
	 width="91.023px" height="76.969px" viewBox="0 0 91.023 76.969" enable-background="new 0 0 91.023 76.969" xml:space="preserve">
<g>
	<path fill="#FFFFFF" d="M71.887,13.964H43.574L29.418,38.484l14.156,24.521h28.313l14.157-24.521L71.887,13.964z M49.896,43.932
		c-0.285,0.688-0.684,1.281-1.193,1.779c-0.512,0.5-1.125,0.889-1.843,1.166c-0.718,0.279-1.509,0.418-2.372,0.418
		c-0.413,0-0.953-0.049-1.621-0.147c-0.668-0.098-1.326-0.339-1.975-0.724s-1.209-0.966-1.681-1.744
		c-0.472-0.777-0.707-1.844-0.707-3.203h3.331l-0.03,0.024c0,0.229,0.024,0.521,0.074,0.872c0.048,0.352,0.157,0.688,0.323,1.006
		c0.168,0.319,0.418,0.594,0.752,0.822c0.334,0.229,0.785,0.344,1.355,0.344c0.688,0,1.282-0.232,1.783-0.699
		c0.502-0.467,0.752-1.191,0.752-2.173c0-0.589-0.128-1.052-0.383-1.388c-0.256-0.334-0.574-0.584-0.959-0.748
		c-0.383-0.164-0.795-0.262-1.236-0.295c-0.443-0.033-0.86-0.049-1.254-0.049v-2.455h0.531c0.255,0,0.549-0.016,0.885-0.049
		c0.333-0.033,0.647-0.127,0.942-0.283c0.295-0.155,0.546-0.388,0.751-0.699c0.207-0.311,0.311-0.753,0.311-1.326
		c0-0.164-0.025-0.372-0.074-0.626s-0.152-0.5-0.31-0.737s-0.378-0.442-0.663-0.614s-0.663-0.258-1.135-0.258
		c-0.57,0-1.012,0.119-1.326,0.356c-0.314,0.237-0.545,0.516-0.692,0.835c-0.147,0.319-0.231,0.638-0.251,0.958
		s-0.029,0.552-0.029,0.699H38.8c0-0.818,0.112-1.571,0.339-2.258c0.226-0.688,0.574-1.277,1.046-1.768
		c0.472-0.491,1.062-0.875,1.769-1.154c0.707-0.278,1.552-0.417,2.535-0.417c0.569,0,1.168,0.082,1.797,0.245
		c0.629,0.164,1.204,0.434,1.725,0.81c0.521,0.377,0.947,0.876,1.281,1.498s0.502,1.391,0.502,2.308c0,0.884-0.221,1.6-0.663,2.148
		c-0.442,0.549-0.909,0.938-1.399,1.167v0.049c0.156,0.049,0.378,0.147,0.662,0.294c0.285,0.147,0.57,0.377,0.855,0.688
		c0.285,0.311,0.535,0.716,0.751,1.215s0.324,1.116,0.324,1.854C50.323,42.491,50.18,43.244,49.896,43.932z M63.468,43.539
		c-0.275,0.785-0.658,1.457-1.149,2.013c-0.491,0.557-1.086,0.986-1.783,1.289s-1.459,0.454-2.283,0.454
		c-1.297,0-2.35-0.254-3.154-0.762c-0.807-0.506-1.439-1.17-1.9-1.988c-0.463-0.818-0.771-1.755-0.929-2.811
		c-0.157-1.057-0.235-2.124-0.235-3.204c0-0.556,0.019-1.166,0.059-1.829c0.039-0.663,0.133-1.333,0.279-2.013
		c0.148-0.679,0.359-1.334,0.635-1.964c0.274-0.63,0.648-1.195,1.119-1.694c0.472-0.499,1.057-0.896,1.754-1.19
		c0.697-0.295,1.547-0.442,2.549-0.442c0.178,0,0.418,0.021,0.723,0.062c0.305,0.041,0.629,0.102,0.973,0.184
		c0.344,0.082,0.678,0.197,1.002,0.344c0.324,0.147,0.594,0.327,0.811,0.54c0.235,0.229,0.432,0.446,0.589,0.65
		s0.3,0.426,0.429,0.663c0.127,0.237,0.234,0.512,0.322,0.822c0.09,0.311,0.173,0.696,0.252,1.154h-3.36
		c-0.059-0.491-0.245-0.892-0.56-1.203c-0.314-0.311-0.787-0.466-1.415-0.466c-0.55,0-1.002,0.144-1.355,0.43
		c-0.354,0.287-0.634,0.663-0.84,1.129c-0.206,0.467-0.359,0.986-0.457,1.56c-0.099,0.573-0.157,1.138-0.177,1.694l0.029,0.049
		c0.118-0.164,0.26-0.332,0.428-0.503c0.166-0.172,0.378-0.327,0.633-0.466c0.256-0.139,0.561-0.254,0.914-0.344
		s0.766-0.135,1.238-0.135c0.884,0,1.66,0.16,2.328,0.479c0.668,0.319,1.218,0.732,1.65,1.24c0.432,0.507,0.756,1.08,0.973,1.718
		c0.217,0.639,0.324,1.285,0.324,1.939C63.881,41.886,63.742,42.753,63.468,43.539z M75.978,45.061
		c-0.461,0.639-1.096,1.171-1.9,1.596c-0.807,0.426-1.838,0.639-3.095,0.639c-0.668,0-1.331-0.103-1.989-0.307
		c-0.658-0.205-1.248-0.52-1.768-0.945c-0.521-0.426-0.949-0.957-1.283-1.596s-0.521-1.399-0.561-2.283h3.39
		c0.079,0.721,0.31,1.297,0.693,1.73c0.383,0.434,0.947,0.65,1.694,0.65c0.826,0,1.459-0.311,1.9-0.933
		c0.443-0.622,0.664-1.399,0.664-2.333c0-0.393-0.045-0.773-0.133-1.141c-0.088-0.369-0.236-0.699-0.442-0.994
		c-0.206-0.295-0.466-0.532-0.78-0.712c-0.315-0.18-0.698-0.27-1.15-0.27c-0.117,0-0.27,0.008-0.457,0.024
		c-0.187,0.017-0.387,0.062-0.604,0.135c-0.217,0.074-0.433,0.193-0.648,0.356c-0.217,0.164-0.403,0.401-0.561,0.711l-3.035-0.121
		l1.209-9.576h9.4v2.873h-6.984l-0.59,3.805c0.314-0.229,0.697-0.45,1.15-0.663c0.451-0.213,1.09-0.319,1.916-0.319
		c0.568,0,1.163,0.106,1.782,0.319s1.179,0.548,1.681,1.006c0.5,0.458,0.912,1.043,1.237,1.755c0.324,0.712,0.486,1.567,0.486,2.565
		c0,0.589-0.089,1.249-0.265,1.977C76.76,43.739,76.44,44.422,75.978,45.061z"/>
	<path fill="#FFFFFF" d="M59.651,38.948c-0.246-0.229-0.516-0.393-0.811-0.491c-0.294-0.098-0.57-0.147-0.825-0.147
		c-0.314,0-0.629,0.054-0.943,0.16c-0.314,0.107-0.595,0.279-0.84,0.516c-0.246,0.238-0.441,0.549-0.59,0.934
		c-0.146,0.385-0.221,0.846-0.221,1.387c0,0.949,0.24,1.727,0.723,2.332c0.48,0.605,1.135,0.908,1.959,0.908
		c0.629,0,1.184-0.258,1.666-0.773c0.48-0.516,0.723-1.361,0.723-2.541c0-0.557-0.08-1.018-0.236-1.387
		C60.097,39.476,59.896,39.178,59.651,38.948z"/>
	<polygon fill="#FFFFFF" points="22.052,57.602 11.014,38.484 22.052,19.367 29.525,19.367 32.645,13.964 25.172,13.964 
		19.541,13.964 19.135,13.964 4.978,38.484 19.135,63.005 19.922,63.005 25.172,63.005 41.378,63.005 38.258,57.602 	"/>
</g>
</svg>
