<?xml version="1.0" encoding="utf-8"?>
<!-- Generator: Adobe Illustrator 14.0.0, SVG Export Plug-In . SVG Version: 6.00 Build 43363)  -->
<!DOCTYPE svg PUBLIC "-//W3C//DTD SVG 1.1//EN" "http://www.w3.org/Graphics/SVG/1.1/DTD/svg11.dtd">
<svg version="1.1" id="Capa_1" xmlns="http://www.w3.org/2000/svg" xmlns:xlink="http://www.w3.org/1999/xlink" x="0px" y="0px"
	 width="91.023px" height="76.969px" viewBox="0 0 91.023 76.969" enable-background="new 0 0 91.023 76.969" xml:space="preserve">
<g>
	<path fill="#FFFFFF" d="M61.475,44.695c-0.171,0-0.337-0.022-0.495-0.068l-31.908-8.826c-0.462-0.127-0.848-0.428-1.085-0.847
		c-0.236-0.419-0.296-0.905-0.166-1.369c0.258-0.93,1.272-1.512,2.213-1.25l31.919,8.83c0.955,0.269,1.517,1.259,1.254,2.212
		C62.992,44.152,62.28,44.695,61.475,44.695L61.475,44.695z"/>
</g>
<g>
	<path fill="#FFFFFF" d="M61.472,44.693c-0.162,0-0.323-0.021-0.479-0.064L29.074,35.8c-0.457-0.123-0.845-0.422-1.082-0.84
		c-0.239-0.419-0.301-0.905-0.173-1.37c0.257-0.931,1.275-1.51,2.209-1.257l31.923,8.829c0.464,0.128,0.849,0.43,1.086,0.849
		c0.235,0.419,0.295,0.905,0.165,1.368C62.989,44.15,62.277,44.693,61.472,44.693L61.472,44.693z"/>
</g>
<g>
	<path fill="#FFFFFF" d="M66.617,54.126c-3.359,0-6.101,2.74-6.101,6.106c0,3.365,2.74,6.098,6.101,6.098
		c3.364,0,6.098-2.732,6.098-6.098C72.715,56.866,69.982,54.126,66.617,54.126z M66.617,63.277c-1.677,0-3.048-1.362-3.048-3.045
		c0-1.685,1.371-3.053,3.048-3.053c1.683,0,3.053,1.368,3.053,3.053C69.67,61.915,68.3,63.277,66.617,63.277z"/>
	<path fill="#FFFFFF" d="M80.34,58.705h-1.623c-0.283-2.227-1.162-4.26-2.473-5.949l1.161-1.152c0.597-0.597,0.597-1.558,0-2.152
		c-0.393-0.393-0.942-0.501-1.445-0.376V33.146c0-0.992-0.807-1.8-1.797-1.8H68.3l4.446-14.983c0.139-0.464,0.082-0.971-0.149-1.38
		c-0.232-0.422-0.631-0.737-1.095-0.865L26.074,1.551c-0.926-0.264-1.938,0.304-2.207,1.215l-7.021,23.487h-5.891
		c-0.992,0-1.8,0.807-1.8,1.798v38.354c0,0.99,0.808,1.798,1.8,1.798h44.737c0.499,0,0.95-0.205,1.276-0.533
		c0.007,0.008,0.011,0.019,0.018,0.024l-1.152,1.162c-0.597,0.597-0.597,1.563,0,2.16c0.298,0.297,0.685,0.445,1.079,0.445
		c0.387,0,0.772-0.148,1.071-0.445l1.162-1.162c1.683,1.311,3.724,2.188,5.941,2.473v1.63c0,0.842,0.686,1.526,1.526,1.526
		s1.525-0.686,1.525-1.526v-1.63c2.219-0.283,4.26-1.162,5.941-2.473l1.162,1.162c0.299,0.297,0.686,0.445,1.071,0.445
		c0.396,0,0.783-0.148,1.081-0.445c0.597-0.597,0.597-1.563,0-2.16l-1.154-1.162c1.311-1.683,2.188-3.715,2.466-5.941h1.63
		c0.85,0,1.526-0.676,1.526-1.52C81.864,59.391,81.189,58.705,80.34,58.705z M26.808,5.482l41.97,11.612l-4.229,14.251H43.115
		l-6.971-4.778c-0.301-0.206-0.651-0.314-1.018-0.314H20.599L26.808,5.482z M12.753,64.604V29.848h21.818l6.971,4.779
		c0.302,0.206,0.651,0.315,1.016,0.315h29.807v14.32c0,0.088,0.015,0.174,0.026,0.258c-1.294-0.701-2.72-1.191-4.248-1.381V46.5
		c0-0.834-0.686-1.52-1.52-1.52c-0.849,0-1.533,0.686-1.533,1.52v1.639c-2.219,0.275-4.251,1.153-5.941,2.465l-1.153-1.153
		c-0.597-0.597-1.558-0.597-2.152,0c-0.603,0.596-0.603,1.557,0,2.151l1.154,1.153c-1.312,1.69-2.197,3.724-2.465,5.942h-1.64
		c-0.85,0-1.524,0.685-1.524,1.533c0,0.834,0.676,1.52,1.524,1.52h1.632c0.123,0.997,0.385,1.947,0.733,2.854H12.753L12.753,64.604z
		 M66.617,69.376c-5.043,0-9.152-4.095-9.152-9.144s4.109-9.152,9.152-9.152c5.049,0,9.149,4.104,9.149,9.152
		C75.767,65.279,71.666,69.376,66.617,69.376z"/>
</g>
</svg>
