<?xml version="1.0" encoding="utf-8"?>
<!-- Generator: Adobe Illustrator 14.0.0, SVG Export Plug-In . SVG Version: 6.00 Build 43363)  -->
<!DOCTYPE svg PUBLIC "-//W3C//DTD SVG 1.1//EN" "http://www.w3.org/Graphics/SVG/1.1/DTD/svg11.dtd">
<svg version="1.1" id="Capa_1" xmlns="http://www.w3.org/2000/svg" xmlns:xlink="http://www.w3.org/1999/xlink" x="0px" y="0px"
	 width="91.023px" height="76.969px" viewBox="0 0 91.023 76.969" enable-background="new 0 0 91.023 76.969" xml:space="preserve">
<g>
	<path fill="#616061" d="M65.834,31.235V17.25c0-2.145-1.776-3.92-3.922-3.92h-4.706V11.76c0-1.274-1.076-2.352-2.351-2.352h-3.384
		c-0.23-1.188-0.625-2.333-1.371-3.261c-1.069-1.328-2.742-2.229-4.656-2.229h-6.273c-1.914,0-3.584,0.9-4.658,2.229
		c-0.744,0.926-1.143,2.073-1.371,3.261H29.76c-1.276,0-2.351,1.077-2.351,2.352v1.569h-4.706c-2.146,0-3.922,1.775-3.922,3.92
		v45.485c0,2.145,1.776,3.92,3.922,3.92h20.724c3.904,3.945,9.314,6.395,15.29,6.395c11.869,0,21.525-9.654,21.525-21.521
		C80.242,42.156,74.211,34.183,65.834,31.235z M30.544,12.545h3.922c0.865,0,1.567-0.701,1.567-1.569c0-0.007,0-0.015,0-0.023
		c-0.003-1.11,0.37-2.124,0.932-2.818s1.233-1.078,2.206-1.078h6.273c0.973,0,1.646,0.384,2.205,1.078s0.927,1.727,0.932,2.842
		c0,0.868,0.701,1.569,1.568,1.569h3.921v4.704H30.544V12.545z M37.189,51.527c0,4.436,1.351,8.563,3.661,11.99H22.703
		c-0.462,0-0.784-0.322-0.784-0.783V17.25c0-0.461,0.322-0.784,0.784-0.784h4.706v1.569c0,1.276,1.074,2.353,2.351,2.353h25.096
		c1.274,0,2.351-1.076,2.351-2.353v-1.569h4.706c0.461,0,0.784,0.323,0.784,0.784v13.134C61.405,30.141,60.077,30,58.717,30
		C46.852,30,37.193,39.658,37.189,51.527z M68.935,47.752v0.012L58.321,58.377c-0.8,0.799-2.097,0.801-2.896,0.002
		c-0.001-0.002-0.001-0.002-0.001-0.002l-5.895-5.889c-0.804-0.801-0.807-2.102-0.007-2.906c0.8-0.803,2.101-0.807,2.905-0.008
		l4.444,4.445l9.165-9.164c0.8-0.801,2.098-0.801,2.898,0C69.734,45.654,69.734,46.953,68.935,47.752z"/>
</g>
</svg>
