<?xml version="1.0" encoding="utf-8"?>
<!-- Generator: Adobe Illustrator 14.0.0, SVG Export Plug-In . SVG Version: 6.00 Build 43363)  -->
<!DOCTYPE svg PUBLIC "-//W3C//DTD SVG 1.1//EN" "http://www.w3.org/Graphics/SVG/1.1/DTD/svg11.dtd">
<svg version="1.1" id="Capa_1" xmlns="http://www.w3.org/2000/svg" xmlns:xlink="http://www.w3.org/1999/xlink" x="0px" y="0px"
	 width="91.023px" height="76.969px" viewBox="0 0 91.023 76.969" enable-background="new 0 0 91.023 76.969" xml:space="preserve">
<g>
	<path fill="#616061" stroke="#616061" d="M61.447,56.122V28.696c0-2.837-2.364-5.201-5.2-5.201H12.935
		c-2.838,0-5.203,2.364-5.203,5.201v27.426c0,2.837,2.365,5.198,5.203,5.198H56.15C59.082,61.32,61.447,58.959,61.447,56.122z
		 M10.38,56.122V28.696c0-1.419,1.137-2.646,2.647-2.646h43.218c1.418,0,2.647,1.134,2.647,2.646v27.426
		c0,1.418-1.137,2.647-2.647,2.647h-43.31C11.515,58.77,10.38,57.54,10.38,56.122z"/>
	<rect x="24.755" y="66.051" fill="#616061" stroke="#616061" width="19.67" height="2.648"/>
	<path fill="#616061" stroke="#616061" d="M78.186,7.608H55.678c-2.838,0-5.201,2.363-5.201,5.199v6.148h2.646v-6.148
		c0-1.417,1.135-2.646,2.647-2.646H78.28c1.419,0,2.646,1.135,2.646,2.646v51.352c0,1.42-1.135,2.647-2.646,2.647H55.678
		c-1.418,0-2.648-1.137-2.648-2.647v-0.188h-2.646v0.188c0,2.838,2.363,5.2,5.201,5.2h22.508c2.838,0,5.199-2.362,5.199-5.2V12.903
		C83.387,9.972,81.023,7.608,78.186,7.608z"/>
	<rect x="57.854" y="16.023" fill="#616061" stroke="#616061" width="17.308" height="2.648"/>
	<rect x="64.568" y="56.594" fill="#616061" stroke="#616061" width="3.781" height="2.649"/>
</g>
</svg>
