<?xml version="1.0" encoding="utf-8"?>
<!-- Generator: Adobe Illustrator 14.0.0, SVG Export Plug-In . SVG Version: 6.00 Build 43363)  -->
<!DOCTYPE svg PUBLIC "-//W3C//DTD SVG 1.1//EN" "http://www.w3.org/Graphics/SVG/1.1/DTD/svg11.dtd">
<svg version="1.1" id="Capa_1" xmlns="http://www.w3.org/2000/svg" xmlns:xlink="http://www.w3.org/1999/xlink" x="0px" y="0px"
	 width="91.023px" height="76.969px" viewBox="0 0 91.023 76.969" enable-background="new 0 0 91.023 76.969" xml:space="preserve">
<g>
	<path fill="#616061" d="M7.295,56.802c0,8.451,6.869,15.32,15.32,15.32c8.449,0,15.32-6.869,15.32-15.32
		c0-8.45-6.871-15.319-15.32-15.319C14.164,41.482,7.295,48.352,7.295,56.802z M23.228,48.32l6.677,6.676
		c0.193,0.193,0.193,0.516,0,0.71l-1.58,1.58c-0.193,0.192-0.518,0.192-0.711,0l-3.418-3.419v11.158
		c0,0.291-0.227,0.518-0.516,0.518h-2.228c-0.29,0-0.516-0.227-0.516-0.518V53.964l-3.289,3.29c-0.193,0.193-0.518,0.193-0.711,0
		l-1.579-1.581c-0.194-0.192-0.194-0.516,0-0.709l6.676-6.677C22.357,47.997,22.873,47.997,23.228,48.32z"/>
	<g>
		<path fill="#616061" d="M83.361,35.706c-0.203-0.326-0.637-0.444-0.99-0.444h-6.565V12.089c0-0.377-0.125-0.671-0.404-0.952
			l-5.889-5.885c-0.521-0.523-1.384-0.522-1.902-0.001c-0.262,0.261-0.404,0.6-0.404,0.953s0.144,0.691,0.404,0.951l5.481,5.482
			v34.774c0,0.798,0.558,1.354,1.355,1.354s1.357-0.558,1.357-1.354v-9.437h5.073l-2.674,27.702h-6.326v-29.06
			c0-0.667-0.389-1.165-0.979-1.313V14.052c0-0.379-0.125-0.673-0.404-0.951l-7.85-7.849c-0.521-0.523-1.386-0.522-1.904-0.001
			c-0.26,0.262-0.404,0.6-0.404,0.953s0.146,0.691,0.404,0.951l7.445,7.443v20.663h-2.193V16.014c0-0.378-0.125-0.671-0.404-0.951
			l-9.811-9.812c-0.281-0.279-0.574-0.404-0.953-0.404H21.465c-0.799,0-1.354,0.558-1.354,1.356v20.229h-6.568
			c-0.799,0-1.356,0.558-1.356,1.356v39.246c0,0.799,0.559,1.356,1.356,1.356H79.43c0.643,0,1.211-0.498,1.354-1.223l2.945-30.453
			C83.728,36.326,83.595,35.962,83.361,35.706z M55.431,7.653l7.754,7.755h-7.754V7.653z M22.822,7.559h30.647v8.455
			c0,0.799,0.557,1.356,1.354,1.356h8.455v17.892H40.941l-3.511-7.956c-0.132-0.522-0.633-0.874-1.248-0.874h-13.36V7.559
			L22.822,7.559z M69.166,65.678H14.897V29.145h20.452l3.54,8.034c0.328,0.658,0.844,0.797,1.219,0.797h29.058V65.678z"/>
	</g>
</g>
</svg>
