<?xml version="1.0" encoding="utf-8"?>
<!-- Generator: Adobe Illustrator 14.0.0, SVG Export Plug-In . SVG Version: 6.00 Build 43363)  -->
<!DOCTYPE svg PUBLIC "-//W3C//DTD SVG 1.1//EN" "http://www.w3.org/Graphics/SVG/1.1/DTD/svg11.dtd">
<svg version="1.1" id="Capa_1" xmlns="http://www.w3.org/2000/svg" xmlns:xlink="http://www.w3.org/1999/xlink" x="0px" y="0px"
	 width="36px" height="36px" viewBox="0 0 36 36" enable-background="new 0 0 36 36" xml:space="preserve">
<path fill="#0E71B4" d="M15.458,27.792h4.048v-9.793h2.699l0.357-3.375h-3.057l0.002-1.689c0-0.879,0.085-1.352,1.348-1.352h1.688
	V8.208h-2.7c-3.242,0-4.385,1.637-4.385,4.391v2.025h-2.02v3.375h2.02V27.792z M18,36C8.06,36,0,27.94,0,17.999C0,8.059,8.06,0,18,0
	c9.942,0,18,8.059,18,17.999C36,27.94,27.942,36,18,36z"/>
</svg>
