<?xml version="1.0" encoding="utf-8"?>
<!-- Generator: Adobe Illustrator 14.0.0, SVG Export Plug-In . SVG Version: 6.00 Build 43363)  -->
<!DOCTYPE svg PUBLIC "-//W3C//DTD SVG 1.1//EN" "http://www.w3.org/Graphics/SVG/1.1/DTD/svg11.dtd">
<svg version="1.1" id="Capa_1" xmlns="http://www.w3.org/2000/svg" xmlns:xlink="http://www.w3.org/1999/xlink" x="0px" y="0px"
	 width="40.996px" height="40.996px" viewBox="0 0 40.996 40.996" enable-background="new 0 0 40.996 40.996" xml:space="preserve">
<g>
	<g>
		<path fill="#0E71B4" d="M20.498,0.305c-11.134,0-20.193,9.06-20.193,20.193c0,11.132,9.059,20.192,20.193,20.192
			c11.134,0,20.192-9.058,20.192-20.192S31.632,0.305,20.498,0.305z M29.505,15.877c0.01,0.2,0.015,0.402,0.015,0.604
			c0,6.142-4.674,13.222-13.225,13.222c-2.625,0-5.067-0.768-7.124-2.086c0.363,0.041,0.732,0.064,1.108,0.064
			c2.178,0,4.182-0.744,5.771-1.992c-2.033-0.035-3.75-1.379-4.34-3.227c0.281,0.055,0.574,0.084,0.873,0.084
			c0.424,0,0.835-0.055,1.225-0.162c-2.126-0.426-3.727-2.304-3.727-4.558c0-0.02,0-0.04,0-0.058
			c0.625,0.347,1.343,0.557,2.104,0.58c-1.246-0.832-2.066-2.255-2.066-3.866c0-0.854,0.229-1.652,0.629-2.339
			c2.291,2.813,5.717,4.662,9.578,4.858c-0.078-0.342-0.12-0.696-0.12-1.06c0-2.567,2.081-4.648,4.648-4.648
			c1.336,0,2.544,0.563,3.394,1.468c1.059-0.208,2.053-0.594,2.951-1.129c-0.35,1.086-1.084,1.996-2.047,2.571
			c0.941-0.11,1.84-0.36,2.67-0.73C31.203,14.404,30.414,15.223,29.505,15.877z"/>
	</g>
</g>
</svg>
