<?xml version="1.0" encoding="utf-8"?>
<!-- Generator: Adobe Illustrator 14.0.0, SVG Export Plug-In . SVG Version: 6.00 Build 43363)  -->
<!DOCTYPE svg PUBLIC "-//W3C//DTD SVG 1.1//EN" "http://www.w3.org/Graphics/SVG/1.1/DTD/svg11.dtd">
<svg version="1.1" id="Capa_1" xmlns="http://www.w3.org/2000/svg" xmlns:xlink="http://www.w3.org/1999/xlink" x="0px" y="0px"
	 width="297.699px" height="211.275px" viewBox="0 0 297.699 211.275" enable-background="new 0 0 297.699 211.275"
	 xml:space="preserve">
<path fill="#727071" d="M65.883,66.277c-0.711-0.341-1.611-0.569-2.289-0.422c-8.896,1.086-16.936,11.329-20.164,18.969
	c-10.322,24.831,4.375,52.371,19.369,71.846c13.318,17.284,39.785,46.865,63.953,30.99c3.049-1.938,6.85-4.961,7.658-8.746
	c1.154-6.412-3.545-12.401-7.167-16.996c-2.796-3.427-8.197-12.308-12.733-13.307c-4.087-0.883-7.704,2.668-10.902,4.564
	l-5.645,3.351c-0.943,0.563-8.932-8.185-9.79-9.199c-3.248-3.542-6.271-7.348-8.767-11.337c-2.497-3.989-4.615-8.201-6.248-12.448
	c-0.479-1.24-4.297-11.954-3.505-12.551c0,0,6.7-4.359,8.772-6.228c4.371-3.997,7.727-7.133,5.58-13.749
	c-0.816-2.444-2.041-4.513-3.383-6.769c-2.384-3.803-4.73-7.752-7.678-11.222C71.378,71.031,68.764,67.491,65.883,66.277"/>
<g>
	<path fill="#727071" d="M119.997,44.07c3.865-3.863,8.732-5.802,14.598-5.802c7.262,0,12.726,2.648,16.39,7.947
		c3.664,5.297,5.499,13.879,5.499,25.737c0,11.795-1.783,20.357-5.348,25.688c-3.564,5.334-9.078,7.996-16.541,7.996
		c-7.534,0-13.112-2.8-16.744-8.396c-3.63-5.601-5.346-14.026-5.141-25.29c0-3.398,0.108-6.479,0.344-9.246
		c0.231-2.767,0.615-5.277,1.146-7.544c0.537-2.266,1.285-4.299,2.252-6.102C117.418,47.268,118.601,45.602,119.997,44.07
		 M127.333,93.945c1.544,2.332,3.967,3.499,7.262,3.499c1.949,0,3.611-0.417,4.99-1.25c1.383-0.833,2.521-2.229,3.432-4.198
		c0.904-1.966,1.578-4.578,2.017-7.848c0.438-3.264,0.66-7.329,0.66-12.193c0-4.861-0.222-8.928-0.66-12.195
		c-0.438-3.262-1.112-5.877-2.017-7.848c-0.91-1.962-2.049-3.36-3.432-4.193c-1.379-0.834-3.041-1.25-4.99-1.25
		c-1.952,0-3.615,0.416-4.99,1.25c-1.383,0.833-2.525,2.231-3.436,4.193c-0.904,1.971-1.577,4.586-2.014,7.848
		c-0.437,3.27-0.658,7.334-0.658,12.195C123.497,83.284,124.777,90.615,127.333,93.945"/>
	<path fill="#727071" d="M183.37,95.746l-0.098-6.699V66.258c0-1.063,0.163-5.1,0.5-12.095c-3.732,4.6-8.531,8.196-14.391,10.795
		c-2.404-1.331-3.873-3.398-4.4-6.195c9.326-5.799,15.555-12.192,18.689-19.19c1.397-0.334,3.013-0.502,4.848-0.502
		c1.833,0,3.484,0.168,4.945,0.502v49.477l-0.096,6.698l5.896-0.104h6.896c0.271,1.271,0.398,2.722,0.398,4.351
		c0,1.634-0.13,3.084-0.398,4.352h-37.683c-0.267-1.337-0.397-2.802-0.397-4.396c0-1.604,0.133-3.032,0.397-4.304h9.192
		L183.37,95.746z"/>
	<path fill="#727071" d="M259.538,95.247c0,2.864-0.436,5.097-1.305,6.695c-0.863,1.6-2.729,2.396-5.597,2.396H221.55
		c-2.731-2.396-4.098-4.562-4.098-6.497c0-5.328,4.148-11.663,12.449-18.988l9.766-8.597c2.523-2.201,4.397-4.449,5.627-6.746
		c1.229-2.304,1.851-4.554,1.851-6.75c0-2.999-0.899-5.396-2.688-7.192c-1.791-1.804-4.08-2.701-6.867-2.701
		c-2.783,0-5.188,0.884-7.211,2.647c-2.025,1.768-3.596,4.051-4.729,6.848c-1.396-0.065-2.828-0.415-4.299-1.052
		c-1.467-0.63-2.533-1.449-3.195-2.447c0.729-2.063,1.729-3.979,3-5.748c1.266-1.766,2.78-3.295,4.547-4.6
		c1.764-1.297,3.776-2.329,6.045-3.096c2.267-0.766,4.764-1.151,7.5-1.151c2.666,0,5.144,0.469,7.442,1.399
		c2.304,0.937,4.282,2.216,5.947,3.85c1.669,1.631,2.962,3.531,3.896,5.696c0.938,2.165,1.401,4.484,1.401,6.946
		c0,2.534-0.267,4.747-0.798,6.646c-0.538,1.902-1.336,3.686-2.4,5.349c-1.066,1.669-2.381,3.266-3.945,4.799
		c-1.57,1.537-3.353,3.168-5.352,4.897l-7.697,6.598c-5.863,5.064-9.125,8.931-9.793,11.6c2.598-0.271,5-0.469,7.192-0.604
		c2.204-0.133,4.198-0.197,6-0.197H259.538z"/>
</g>
<g>
	<g enable-background="new    ">
		<path fill="#727071" d="M122.933,111.453c-2.455,3.182-3.683,7.063-3.683,11.646c0,4.564,1.228,8.438,3.683,11.619
			c-0.311,0.727-0.847,1.21-1.608,1.453c-0.778-0.762-1.474-1.651-2.088-2.672s-1.133-2.109-1.556-3.268
			c-0.424-1.158-0.752-2.352-0.986-3.58c-0.233-1.228-0.35-2.42-0.35-3.579c0-1.158,0.117-2.347,0.35-3.566
			c0.234-1.219,0.562-2.407,0.986-3.566c0.423-1.158,0.942-2.247,1.556-3.268c0.614-1.02,1.31-1.91,2.088-2.672
			C122.086,110.243,122.622,110.726,122.933,111.453z"/>
		<path fill="#727071" d="M133.982,116.017c0.311,0.398,0.579,0.821,0.804,1.271c0.225,0.449,0.411,0.955,0.558,1.517
			c0.147,0.563,0.259,1.198,0.337,1.906c0.078,0.71,0.117,1.53,0.117,2.465c0,1.349-0.147,2.559-0.441,3.631
			c-0.294,1.072-0.722,1.979-1.284,2.724c-0.562,0.743-1.258,1.313-2.088,1.711c-0.83,0.398-1.79,0.597-2.879,0.597
			c-1.521,0-2.767-0.273-3.735-0.821c0.087-0.874,0.408-1.499,0.963-1.876c0.833,0.381,1.709,0.57,2.628,0.57
			c1.319,0,2.308-0.469,2.967-1.407c0.659-0.938,1.015-2.216,1.067-3.832c-1.11,0.969-2.376,1.453-3.798,1.453
			c-1.457,0-2.602-0.467-3.435-1.4c-0.832-0.935-1.249-2.317-1.249-4.15c0-0.916,0.138-1.746,0.415-2.49
			c0.276-0.743,0.662-1.374,1.154-1.893c0.493-0.52,1.076-0.921,1.75-1.206c0.675-0.286,1.418-0.429,2.231-0.429
			C131.726,114.357,133.031,114.911,133.982,116.017z M129.922,123.669c1.094,0,2.119-0.476,3.074-1.427v-0.44
			c0-1.764-0.256-3.1-0.769-4.008c-0.513-0.907-1.281-1.361-2.306-1.361c-0.834,0-1.485,0.329-1.954,0.985
			c-0.469,0.657-0.704,1.557-0.704,2.698C127.265,122.485,128.15,123.669,129.922,123.669z"/>
	</g>
	<g enable-background="new    ">
		<path fill="#727071" d="M137.77,127.274c0-0.985,0.286-1.867,0.856-2.646c0.571-0.778,1.297-1.4,2.179-1.867
			c-1.729-0.935-2.594-2.257-2.594-3.969c0-0.64,0.134-1.232,0.402-1.776c0.268-0.545,0.644-1.012,1.128-1.4
			c0.484-0.39,1.046-0.696,1.686-0.921c0.64-0.225,1.34-0.338,2.101-0.338s1.461,0.108,2.101,0.324
			c0.64,0.217,1.188,0.52,1.647,0.908c0.458,0.389,0.817,0.848,1.077,1.375c0.259,0.527,0.389,1.102,0.389,1.725
			c0,0.83-0.233,1.569-0.7,2.218s-1.072,1.171-1.815,1.568c1.988,1.072,2.982,2.603,2.982,4.591c0,0.727-0.151,1.384-0.454,1.972
			c-0.303,0.588-0.722,1.089-1.258,1.504c-0.536,0.415-1.159,0.735-1.868,0.96s-1.479,0.337-2.308,0.337
			c-0.83,0-1.587-0.104-2.27-0.311c-0.684-0.208-1.267-0.506-1.751-0.896c-0.484-0.389-0.86-0.864-1.128-1.426
			C137.903,128.644,137.77,128.001,137.77,127.274z M142.766,123.591h-0.052c-1.463,0.83-2.195,1.989-2.195,3.476
			c0,0.882,0.275,1.574,0.826,2.075c0.551,0.502,1.248,0.752,2.092,0.752c0.877,0,1.592-0.263,2.143-0.791
			c0.551-0.527,0.827-1.214,0.827-2.062c0-1.557-1.068-2.654-3.202-3.294L142.766,123.591z M140.908,118.766
			c0,1.314,1.002,2.248,3.008,2.802l0.312,0.13c1.228-0.709,1.841-1.678,1.841-2.905c0-0.743-0.247-1.336-0.739-1.776
			c-0.493-0.441-1.111-0.662-1.854-0.662c-0.726,0-1.335,0.221-1.829,0.662C141.154,117.457,140.908,118.041,140.908,118.766z"/>
	</g>
	<g enable-background="new    ">
		<path fill="#727071" d="M156.496,129.271l-0.025-1.738v-5.913c0-0.276,0.043-1.323,0.129-3.139
			c-0.968,1.193-2.213,2.127-3.734,2.802c-0.623-0.346-1.003-0.882-1.141-1.608c2.42-1.504,4.037-3.164,4.85-4.979
			c0.363-0.087,0.782-0.13,1.258-0.13s0.903,0.043,1.284,0.13v12.838l-0.026,1.738l1.531-0.026h1.789
			c0.068,0.329,0.104,0.705,0.104,1.129s-0.035,0.8-0.104,1.128h-9.778c-0.069-0.346-0.104-0.727-0.104-1.142
			s0.034-0.786,0.104-1.115h2.386L156.496,129.271z"/>
		<path fill="#727071" d="M180.28,116.017c0.312,0.398,0.579,0.821,0.804,1.271c0.225,0.449,0.41,0.955,0.558,1.517
			c0.147,0.563,0.259,1.198,0.337,1.906c0.078,0.71,0.117,1.53,0.117,2.465c0,1.349-0.146,2.559-0.441,3.631
			c-0.294,1.072-0.722,1.979-1.283,2.724c-0.563,0.743-1.258,1.313-2.088,1.711c-0.83,0.398-1.79,0.597-2.879,0.597
			c-1.521,0-2.768-0.273-3.735-0.821c0.087-0.874,0.407-1.499,0.963-1.876c0.833,0.381,1.709,0.57,2.628,0.57
			c1.319,0,2.309-0.469,2.968-1.407s1.015-2.216,1.067-3.832c-1.111,0.969-2.377,1.453-3.799,1.453c-1.457,0-2.602-0.467-3.435-1.4
			c-0.832-0.935-1.249-2.317-1.249-4.15c0-0.916,0.139-1.746,0.416-2.49c0.275-0.743,0.661-1.374,1.154-1.893
			c0.492-0.52,1.076-0.921,1.75-1.206c0.675-0.286,1.418-0.429,2.23-0.429C178.023,114.357,179.329,114.911,180.28,116.017z
			 M176.221,123.669c1.094,0,2.118-0.476,3.074-1.427v-0.44c0-1.764-0.257-3.1-0.77-4.008c-0.512-0.907-1.281-1.361-2.305-1.361
			c-0.834,0-1.486,0.329-1.955,0.985c-0.469,0.657-0.703,1.557-0.703,2.698C173.563,122.485,174.448,123.669,176.221,123.669z"/>
	</g>
	<g enable-background="new    ">
		<path fill="#727071" d="M186.013,115.862c1.003-1.003,2.265-1.505,3.786-1.505c1.885,0,3.303,0.688,4.254,2.063
			c0.951,1.374,1.427,3.601,1.427,6.679c0,3.061-0.463,5.282-1.388,6.666c-0.925,1.383-2.355,2.074-4.293,2.074
			c-1.953,0-3.401-0.726-4.344-2.179c-0.942-1.452-1.388-3.64-1.336-6.562c0-0.882,0.03-1.682,0.091-2.399
			c0.061-0.717,0.159-1.37,0.298-1.958s0.334-1.115,0.584-1.582S185.649,116.26,186.013,115.862z M187.915,128.804
			c0.401,0.605,1.029,0.907,1.884,0.907c0.506,0,0.938-0.107,1.297-0.324c0.357-0.216,0.653-0.579,0.889-1.089
			c0.236-0.51,0.41-1.188,0.523-2.036c0.113-0.847,0.171-1.901,0.171-3.164c0-1.262-0.058-2.317-0.171-3.164
			c-0.113-0.848-0.287-1.526-0.523-2.036c-0.235-0.51-0.531-0.873-0.889-1.09c-0.358-0.216-0.791-0.324-1.297-0.324
			s-0.938,0.108-1.295,0.324c-0.357,0.217-0.654,0.58-0.891,1.09c-0.234,0.51-0.409,1.188-0.522,2.036
			c-0.114,0.847-0.171,1.902-0.171,3.164C186.92,126.038,187.252,127.94,187.915,128.804z"/>
		<path fill="#727071" d="M199.76,115.862c1.002-1.003,2.265-1.505,3.786-1.505c1.885,0,3.303,0.688,4.254,2.063
			c0.95,1.374,1.427,3.601,1.427,6.679c0,3.061-0.463,5.282-1.389,6.666c-0.924,1.383-2.355,2.074-4.292,2.074
			c-1.954,0-3.401-0.726-4.345-2.179c-0.941-1.452-1.387-3.64-1.336-6.562c0-0.882,0.031-1.682,0.092-2.399
			c0.061-0.717,0.159-1.37,0.298-1.958c0.138-0.588,0.333-1.115,0.583-1.582C199.089,116.692,199.396,116.26,199.76,115.862z
			 M201.662,128.804c0.4,0.605,1.029,0.907,1.884,0.907c0.506,0,0.938-0.107,1.296-0.324c0.357-0.216,0.654-0.579,0.89-1.089
			s0.41-1.188,0.523-2.036c0.113-0.847,0.171-1.901,0.171-3.164c0-1.262-0.058-2.317-0.171-3.164
			c-0.113-0.848-0.288-1.526-0.523-2.036s-0.532-0.873-0.89-1.09c-0.357-0.216-0.79-0.324-1.296-0.324s-0.938,0.108-1.296,0.324
			c-0.357,0.217-0.654,0.58-0.89,1.09s-0.409,1.188-0.522,2.036c-0.114,0.847-0.171,1.902-0.171,3.164
			C200.667,126.038,200.998,127.94,201.662,128.804z"/>
	</g>
	<g enable-background="new    ">
		<path fill="#727071" d="M218.716,130.178c-0.312-0.397-0.579-0.82-0.804-1.271c-0.225-0.449-0.415-0.95-0.57-1.504
			c-0.156-0.554-0.27-1.189-0.338-1.906c-0.069-0.718-0.104-1.544-0.104-2.478c0-1.349,0.146-2.559,0.441-3.631
			c0.293-1.072,0.721-1.979,1.283-2.724c0.563-0.743,1.258-1.313,2.088-1.712c0.83-0.397,1.789-0.597,2.879-0.597
			c1.521,0,2.767,0.274,3.735,0.822c-0.087,0.874-0.407,1.499-0.964,1.876c-0.832-0.381-1.709-0.571-2.628-0.571
			c-1.318,0-2.308,0.474-2.967,1.421s-1.015,2.229-1.067,3.845c1.059-0.986,2.315-1.479,3.772-1.479c1.475,0,2.628,0.467,3.46,1.4
			s1.249,2.317,1.249,4.15c0,0.882-0.134,1.694-0.401,2.438c-0.269,0.744-0.645,1.379-1.129,1.906
			c-0.484,0.528-1.068,0.938-1.75,1.232c-0.684,0.294-1.449,0.44-2.296,0.44C220.963,131.839,219.666,131.286,218.716,130.178z
			 M222.775,122.528c-1.129,0-2.153,0.483-3.074,1.452v0.415c0,1.764,0.256,3.1,0.769,4.007c0.513,0.908,1.272,1.362,2.28,1.362
			c0.834,0,1.489-0.329,1.967-0.986c0.478-0.656,0.717-1.556,0.717-2.697C225.434,123.713,224.548,122.528,222.775,122.528z"/>
	</g>
	<g enable-background="new    ">
		<path fill="#727071" d="M239.337,127.896l0.026,1.4v2.205c-0.398,0.069-0.844,0.104-1.336,0.104s-0.921-0.034-1.283-0.104v-2.205
			l0.025-1.4l-1.4,0.052h-4.592c-0.414-0.674-0.622-1.171-0.622-1.491c0-0.319,0.173-0.911,0.519-1.776l4.384-10.142
			c0.38-0.086,0.834-0.082,1.362,0.014c0.526,0.095,0.911,0.255,1.153,0.479l-2.982,6.899c-0.761,1.764-1.366,3.018-1.815,3.761
			l0.078,0.104c1.089-0.086,2.074-0.13,2.956-0.13h0.96c-0.018-0.189-0.025-0.467-0.025-0.83v-2.022c0-0.64,0.154-1.146,0.467-1.518
			c0.311-0.372,0.742-0.558,1.297-0.558h0.726l0.13,0.13v3.424l-0.026,1.374l1.193-0.025h1.374c0.053,0.362,0.078,0.739,0.078,1.128
			s-0.061,0.774-0.182,1.154h-1.271L239.337,127.896z"/>
	</g>
	<g enable-background="new    ">
		<path fill="#727071" d="M253.912,117.599l-2.723,2.905c-0.121,0.121-0.26,0.251-0.415,0.389c-0.155,0.139-0.329,0.277-0.519,0.415
			c0.691,0.018,1.336,0.139,1.932,0.363c0.597,0.225,1.106,0.549,1.531,0.973c0.423,0.424,0.756,0.946,0.998,1.569
			c0.242,0.622,0.363,1.349,0.363,2.179s-0.16,1.582-0.48,2.256c-0.32,0.675-0.752,1.245-1.297,1.712s-1.172,0.83-1.88,1.09
			c-0.71,0.259-1.452,0.389-2.231,0.389c-2.109,0-3.838-0.57-5.187-1.712c0.19-0.726,0.587-1.322,1.192-1.789
			c1.176,0.864,2.326,1.297,3.45,1.297c1.142,0,2.032-0.299,2.671-0.896c0.641-0.596,0.96-1.413,0.96-2.45
			c0-1.021-0.264-1.803-0.791-2.348s-1.181-0.817-1.958-0.817c-0.744,0-1.393,0.147-1.945,0.441
			c-0.484-0.225-0.848-0.709-1.09-1.452l3.242-3.527c0.883-0.882,1.47-1.444,1.764-1.687l-0.077-0.13
			c-0.675,0.174-1.678,0.26-3.009,0.26h-3.657c-0.104-0.276-0.155-0.622-0.155-1.037c0-0.45,0.078-0.882,0.232-1.297h9.053
			c0.38,0.709,0.57,1.279,0.57,1.712C254.457,116.787,254.275,117.184,253.912,117.599z"/>
		<path fill="#727071" d="M256.922,134.718c2.455-3.232,3.683-7.106,3.683-11.619c0-4.53-1.228-8.412-3.683-11.646
			c0.311-0.727,0.847-1.21,1.607-1.453c0.761,0.762,1.448,1.652,2.063,2.672c0.613,1.021,1.132,2.109,1.556,3.268
			c0.424,1.159,0.753,2.353,0.985,3.58c0.234,1.228,0.351,2.421,0.351,3.579s-0.112,2.347-0.337,3.566
			c-0.225,1.219-0.554,2.408-0.986,3.566c-0.432,1.158-0.951,2.247-1.556,3.268c-0.605,1.021-1.297,1.91-2.075,2.672
			C257.769,135.927,257.232,135.444,256.922,134.718z"/>
	</g>
</g>
</svg>
