<?xml version="1.0" encoding="utf-8"?>
<!-- Generator: Adobe Illustrator 14.0.0, SVG Export Plug-In . SVG Version: 6.00 Build 43363)  -->
<!DOCTYPE svg PUBLIC "-//W3C//DTD SVG 1.1//EN" "http://www.w3.org/Graphics/SVG/1.1/DTD/svg11.dtd">
<svg version="1.1" id="Capa_1" xmlns="http://www.w3.org/2000/svg" xmlns:xlink="http://www.w3.org/1999/xlink" x="0px" y="0px"
	 width="16px" height="16px" viewBox="0 0 16 16" enable-background="new 0 0 16 16" xml:space="preserve">
<polygon fill="#FFFFFF" points="79.712,-59.022 78.232,-60.501 69.617,-51.886 61.003,-60.5 59.524,-59.021 68.139,-50.407 
	59.524,-41.792 61.002,-40.313 69.617,-48.926 78.233,-40.313 79.712,-41.792 71.097,-50.407 "/>
<g>
	<g>
		<circle fill="#828F95" cx="8" cy="8" r="7.54"/>
		<path fill="#5C6A71" d="M8.252,0.728c2.061,0,3.928,0.829,5.289,2.171c-1.378-1.496-3.347-2.439-5.54-2.439
			c-4.165,0-7.541,3.376-7.541,7.542c0,2.1,0.86,3.998,2.246,5.364C1.471,12.022,0.71,10.236,0.71,8.268
			C0.71,4.104,4.087,0.728,8.252,0.728z"/>
	</g>
	<g>
		<g>
			<path fill="#5C6A71" d="M5.274,12.227L4.32,11.271l2.847-2.847L4.32,5.578l0.955-0.957l2.848,2.847l2.847-2.847l0.956,0.956
				L9.078,8.425l2.848,2.847l-0.955,0.955L8.123,9.379L5.274,12.227L5.274,12.227z"/>
		</g>
		<g>
			<path fill="#FFFFFF" d="M5.028,11.379l-0.954-0.955l2.847-2.847L4.074,4.73l0.955-0.957L7.877,6.62l2.847-2.847l0.956,0.956
				L8.832,7.577l2.848,2.847l-0.955,0.955L7.877,8.532L5.028,11.379L5.028,11.379z"/>
		</g>
	</g>
</g>
</svg>
